<svg viewBox="0 0 17 17" xmlns="http://www.w3.org/2000/svg" fill-rule="evenodd" clip-rule="evenodd" stroke-linejoin="round" stroke-miterlimit="2"><path d="M16.45 8.45c0 4.389-3.611 8-8 8-4.389 0-8-3.611-8-8 0-4.389 3.611-8 8-8 4.389 0 8 3.611 8 8z" fill="#fff" stroke="#000" stroke-width=".9"/><path d="M4.103 9.97V6.89h1.954v.441H4.611v.872h1.36v.44h-1.36v.882h1.446v.446H4.103zM6.874 6.89h.57l1.442 2.29h-.038V6.89h.507v3.08h-.527L7.3 7.557h.082v2.415h-.508V6.89zM10.273 6.89h.967c.312 0 .585.063.82.187.234.13.416.307.545.537.13.23.197.503.197.819 0 .311-.067.58-.197.81-.129.23-.31.412-.546.536a1.67 1.67 0 01-.819.192h-.967V6.89zm.507.46v2.166h.46a.976.976 0 00.537-.144.903.903 0 00.35-.383c.08-.163.124-.35.124-.556 0-.21-.043-.398-.125-.56a.931.931 0 00-.35-.384 1.016 1.016 0 00-.536-.139h-.46z" fill-rule="nonzero"/></svg>