<svg viewBox="0 0 17 17" xmlns="http://www.w3.org/2000/svg" fill-rule="evenodd" clip-rule="evenodd" stroke-linejoin="round" stroke-miterlimit="2"><path d="M16.45 8.45c0 4.389-3.611 8-8 8-4.389 0-8-3.611-8-8 0-4.389 3.611-8 8-8 4.389 0 8 3.611 8 8z" fill="#fff" stroke="#000" stroke-width=".9"/><text font-family="'Karla-SemiBold','Karla',sans-serif" font-weight="600" font-size="3.947" transform="translate(1.46 9.972) scale(1.21352)">ST</text><path d="M6.872 9.972l1.053-3.08h.637l1.016 3.08h-.541l-.226-.7H7.648l-.235.7h-.541zm.905-1.088h.91L8.237 7.5l-.46 1.384zM10.148 9.972v-3.08h1.116c.364 0 .642.086.833.254a.873.873 0 01.292.68c0 .278-.1.503-.292.67-.191.173-.47.259-.833.259h-.608v1.217h-.508zm1.681 0l-.833-1.433h.546l.953 1.433h-.666zm-1.173-1.567h.56c.21 0 .374-.048.484-.148.11-.1.167-.225.167-.388a.52.52 0 00-.153-.388c-.1-.1-.254-.149-.45-.149h-.608v1.073zM12.756 7.332v-.44h2.447v.44h-1.082l.115-.12v2.76h-.513v-2.76l.115.12h-1.082z" fill-rule="nonzero"/></svg>