<svg xmlns="http://www.w3.org/2000/svg" width="271.659" height="385.83" viewBox="0 0 271.659 385.83" overflow="visible"><path fill="#df7839" d="M271.659 135.83C271.659 60.813 210.846 0 135.83 0S0 60.813 0 135.83c0 27.474 8.165 53.037 22.189 74.411h-.011L135.83 385.83l112.152-173.363c1.39-2.03 2.732-4.095 4.012-6.202l.002-.003c12.477-20.537 19.663-44.645 19.663-70.432zM135.83 220.732c-42.306 0-76.603-34.296-76.603-76.603 0-42.306 34.296-76.603 76.603-76.603 42.306 0 76.603 34.296 76.603 76.603-.001 42.307-34.297 76.603-76.603 76.603z"/></svg>