<svg enable-background="new 0 0 1000 1000" viewBox="0 0 1000 1000" xmlns="http://www.w3.org/2000/svg"><g fill="#fff9e1"><path d="m507.09 514.25h-4.06v-1.47h9.89v1.47h-4.08v11.89h-1.74v-11.89z"/><path d="m519.1 512.78v5.59h6.46v-5.59h1.74v13.36h-1.74v-6.26h-6.46v6.26h-1.72v-13.36z"/><path d="m540.19 519.88h-5.19v4.81h5.79v1.45h-7.51v-13.36h7.21v1.45h-5.49v4.22h5.19z"/><path d="m552.94 524.04c.77.48 1.9.87 3.09.87 1.76 0 2.79-.93 2.79-2.28 0-1.25-.71-1.96-2.52-2.66-2.18-.77-3.53-1.9-3.53-3.79 0-2.08 1.72-3.63 4.32-3.63 1.37 0 2.36.32 2.95.65l-.48 1.41c-.44-.24-1.33-.63-2.54-.63-1.82 0-2.52 1.09-2.52 2 0 1.25.81 1.86 2.66 2.58 2.26.87 3.41 1.96 3.41 3.92 0 2.06-1.53 3.84-4.68 3.84-1.29 0-2.69-.38-3.41-.85z"/><path d="m577.34 519.32c0 4.6-2.79 7.03-6.2 7.03-3.53 0-6-2.73-6-6.78 0-4.24 2.64-7.02 6.2-7.02 3.64.01 6 2.81 6 6.77zm-10.37.22c0 2.85 1.55 5.41 4.26 5.41 2.74 0 4.28-2.52 4.28-5.55 0-2.66-1.39-5.43-4.26-5.43-2.85 0-4.28 2.64-4.28 5.57z"/><path d="m584.28 512.78v7.91c0 2.99 1.33 4.26 3.11 4.26 1.98 0 3.25-1.31 3.25-4.26v-7.91h1.74v7.79c0 4.1-2.16 5.79-5.05 5.79-2.73 0-4.8-1.57-4.8-5.71v-7.87z"/><path d="m598.35 526.14v-13.36h1.88l4.28 6.76c.99 1.57 1.76 2.97 2.4 4.34l.04-.02c-.16-1.78-.2-3.41-.2-5.49v-5.59h1.63v13.36h-1.74l-4.24-6.78c-.93-1.49-1.82-3.01-2.5-4.46l-.06.02c.1 1.68.14 3.29.14 5.51v5.71z"/><path d="m614.37 512.96c1.05-.16 2.3-.28 3.67-.28 2.48 0 4.24.58 5.41 1.66 1.19 1.09 1.88 2.64 1.88 4.8 0 2.18-.67 3.96-1.92 5.19-1.25 1.25-3.31 1.92-5.91 1.92-1.23 0-2.26-.06-3.13-.16zm1.72 11.81c.44.08 1.07.1 1.74.1 3.69 0 5.69-2.06 5.69-5.67.02-3.15-1.76-5.15-5.41-5.15-.89 0-1.57.08-2.02.18z"/><path d="m649.13 519.32c0 4.6-2.79 7.03-6.2 7.03-3.53 0-6-2.73-6-6.78 0-4.24 2.64-7.02 6.2-7.02 3.64.01 6 2.81 6 6.77zm-10.36.22c0 2.85 1.55 5.41 4.26 5.41 2.74 0 4.28-2.52 4.28-5.55 0-2.66-1.39-5.43-4.26-5.43-2.85 0-4.28 2.64-4.28 5.57z"/><path d="m654.35 512.78h7.19v1.45h-5.47v4.44h5.05v1.43h-5.05v6.04h-1.72z"/><path d="m685.41 520.27c-.1-1.86-.22-4.1-.2-5.77h-.06c-.46 1.57-1.01 3.23-1.68 5.07l-2.36 6.48h-1.31l-2.16-6.36c-.63-1.88-1.17-3.61-1.55-5.19h-.04c-.04 1.66-.14 3.9-.26 5.91l-.36 5.73h-1.64l.93-13.36h2.2l2.28 6.46c.55 1.64 1.01 3.11 1.35 4.5h.06c.34-1.35.81-2.81 1.41-4.5l2.38-6.46h2.2l.83 13.36h-1.68z"/><path d="m694.79 512.78v7.91c0 2.99 1.33 4.26 3.11 4.26 1.98 0 3.25-1.31 3.25-4.26v-7.91h1.74v7.79c0 4.1-2.16 5.79-5.05 5.79-2.73 0-4.8-1.57-4.8-5.71v-7.87z"/><path d="m708.62 524.04c.77.48 1.9.87 3.09.87 1.76 0 2.79-.93 2.79-2.28 0-1.25-.71-1.96-2.52-2.66-2.18-.77-3.53-1.9-3.53-3.79 0-2.08 1.72-3.63 4.32-3.63 1.37 0 2.36.32 2.95.65l-.48 1.41c-.44-.24-1.33-.63-2.54-.63-1.82 0-2.52 1.09-2.52 2 0 1.25.81 1.86 2.66 2.58 2.26.87 3.41 1.96 3.41 3.92 0 2.06-1.53 3.84-4.68 3.84-1.29 0-2.69-.38-3.41-.85z"/><path d="m723.33 512.78v13.36h-1.72v-13.36z"/><path d="m738.65 525.7c-.63.32-1.9.63-3.53.63-3.76 0-6.6-2.38-6.6-6.76 0-4.18 2.83-7.02 6.98-7.02 1.66 0 2.71.36 3.17.59l-.42 1.41c-.65-.32-1.59-.55-2.7-.55-3.13 0-5.21 2-5.21 5.51 0 3.27 1.88 5.37 5.13 5.37 1.05 0 2.12-.22 2.81-.55z"/><path d="m284.71 515.39h-3.93v-1.42h9.56v1.42h-3.95v11.49h-1.68z"/><path d="m296.31 513.97v5.4h6.24v-5.4h1.69v12.91h-1.69v-6.05h-6.24v6.05h-1.67v-12.91z"/><path d="m316.68 520.83h-5.02v4.65h5.59v1.4h-7.25v-12.91h6.97v1.4h-5.31v4.08h5.02z"/><path d="m329.22 514.15c.84-.17 2.05-.27 3.2-.27 1.78 0 2.93.33 3.73 1.05.65.57 1.01 1.46 1.01 2.45 0 1.7-1.07 2.83-2.43 3.29v.06c1 .35 1.59 1.26 1.9 2.6.42 1.8.73 3.04 1 3.54h-1.72c-.21-.36-.5-1.47-.86-3.08-.38-1.78-1.07-2.45-2.59-2.51h-1.57v5.59h-1.67zm1.67 5.88h1.7c1.78 0 2.91-.98 2.91-2.45 0-1.67-1.21-2.39-2.97-2.41-.8 0-1.38.08-1.65.15v4.71z"/><path d="m353.48 520.29c0 4.44-2.7 6.8-5.99 6.8-3.41 0-5.8-2.64-5.8-6.55 0-4.1 2.55-6.78 5.99-6.78 3.52 0 5.8 2.7 5.8 6.53zm-10.02.21c0 2.76 1.49 5.23 4.12 5.23 2.64 0 4.14-2.43 4.14-5.36 0-2.57-1.34-5.25-4.12-5.25-2.76 0-4.14 2.55-4.14 5.38z"/><path d="m360.18 513.97v7.64c0 2.89 1.28 4.12 3.01 4.12 1.91 0 3.14-1.26 3.14-4.12v-7.64h1.69v7.53c0 3.96-2.09 5.59-4.88 5.59-2.64 0-4.63-1.51-4.63-5.52v-7.6z"/><path d="m373.77 526.88v-12.91h1.82l4.14 6.53c.96 1.51 1.7 2.87 2.32 4.19l.04-.02c-.15-1.72-.19-3.29-.19-5.31v-5.4h1.57v12.91h-1.69l-4.1-6.55c-.9-1.44-1.76-2.91-2.41-4.31l-.06.02c.1 1.63.13 3.18.13 5.32v5.52h-1.57z"/><path d="m389.24 514.15c1.01-.15 2.22-.27 3.54-.27 2.39 0 4.1.56 5.23 1.61 1.15 1.05 1.82 2.55 1.82 4.63 0 2.11-.65 3.83-1.86 5.02-1.21 1.21-3.2 1.86-5.71 1.86-1.19 0-2.18-.06-3.03-.15v-12.7zm1.66 11.41c.42.08 1.03.1 1.69.1 3.56 0 5.5-1.99 5.5-5.48.02-3.05-1.7-4.98-5.23-4.98-.86 0-1.51.08-1.95.17v10.19z"/><path d="m411.54 520.83h-5.02v4.65h5.59v1.4h-7.26v-12.91h6.97v1.4h-5.3v4.08h5.02z"/><path d="m417.15 514.15c.84-.17 2.05-.27 3.2-.27 1.78 0 2.93.33 3.73 1.05.65.57 1.01 1.46 1.01 2.45 0 1.7-1.07 2.83-2.43 3.29v.06c1 .35 1.59 1.26 1.9 2.6.42 1.8.73 3.04 1 3.54h-1.72c-.21-.36-.5-1.47-.86-3.08-.38-1.78-1.07-2.45-2.59-2.51h-1.57v5.59h-1.67zm1.67 5.88h1.7c1.78 0 2.91-.98 2.91-2.45 0-1.67-1.21-2.39-2.97-2.41-.8 0-1.38.08-1.65.15v4.71z"/><path d="m430.09 524.85c.75.46 1.84.84 2.99.84 1.7 0 2.7-.9 2.7-2.2 0-1.21-.69-1.9-2.43-2.57-2.11-.75-3.41-1.84-3.41-3.66 0-2.01 1.67-3.5 4.17-3.5 1.32 0 2.28.31 2.85.63l-.46 1.36c-.42-.23-1.28-.61-2.45-.61-1.76 0-2.43 1.05-2.43 1.93 0 1.21.78 1.8 2.57 2.49 2.18.84 3.29 1.9 3.29 3.79 0 1.99-1.47 3.71-4.52 3.71-1.24 0-2.6-.36-3.29-.82z"/><path d="m498.83 534.31h1v5.2c0 2.06-1.01 2.7-2.35 2.7-.37 0-.82-.08-1.07-.18l.15-.82c.21.08.51.15.84.15.9 0 1.43-.4 1.43-1.92z"/><path d="m504.23 534.31v4.6c0 1.74.77 2.48 1.81 2.48 1.15 0 1.89-.76 1.89-2.48v-4.6h1.01v4.53c0 2.39-1.26 3.36-2.94 3.36-1.59 0-2.79-.91-2.79-3.32v-4.57z"/><path d="m512.41 534.31h1v6.93h3.32v.84h-4.32z"/><path d="m520.58 534.31v7.77h-1v-7.77z"/><path d="m528.08 538.44h-3.02v2.8h3.36v.84h-4.37v-7.77h4.19v.84h-3.19v2.45h3.02v.84z"/><path d="m536.88 539.64-.81 2.44h-1.04l2.64-7.77h1.21l2.65 7.77h-1.07l-.83-2.44zm2.55-.79-.76-2.24c-.17-.51-.29-.97-.4-1.42h-.02c-.11.46-.24.93-.39 1.41l-.76 2.25z"/><path d="m544.41 542.08v-7.77h1.09l2.49 3.93c.58.91 1.03 1.73 1.39 2.52l.02-.01c-.09-1.04-.11-1.98-.11-3.19v-3.25h.94v7.77h-1.01l-2.47-3.94c-.54-.86-1.06-1.75-1.45-2.59l-.03.01c.06.98.08 1.91.08 3.2v3.32z"/><path d="m553.72 534.42c.61-.09 1.34-.16 2.13-.16 1.44 0 2.47.33 3.15.97.69.63 1.09 1.53 1.09 2.79 0 1.27-.39 2.3-1.12 3.02-.73.73-1.92 1.12-3.43 1.12-.71 0-1.31-.03-1.82-.09zm1 6.86c.25.05.62.06 1.01.06 2.14 0 3.31-1.2 3.31-3.3.01-1.83-1.03-3-3.15-3-.52 0-.91.05-1.18.1v6.14z"/><path d="m563.12 534.42c.51-.1 1.23-.16 1.92-.16 1.07 0 1.76.2 2.25.63.39.35.61.88.61 1.47 0 1.03-.65 1.71-1.46 1.98v.03c.6.21.96.76 1.14 1.57.25 1.08.44 1.83.6 2.13h-1.04c-.13-.22-.3-.89-.52-1.86-.23-1.07-.65-1.47-1.56-1.51h-.94v3.36h-1zm1 3.53h1.03c1.07 0 1.75-.59 1.75-1.47 0-1-.73-1.44-1.79-1.45-.48 0-.83.05-.99.09z"/><path d="m575.06 538.44h-3.02v2.8h3.36v.84h-4.37v-7.77h4.19v.84h-3.19v2.45h3.02v.84z"/><path d="m579.81 542.08-1.97-7.77h1.06l.92 3.93c.23.97.44 1.94.58 2.68h.02c.13-.77.37-1.69.63-2.7l1.04-3.92h1.05l.94 3.94c.22.92.43 1.84.54 2.66h.02c.16-.85.38-1.72.62-2.69l1.03-3.92h1.03l-2.2 7.77h-1.05l-.98-4.04c-.24-.99-.4-1.75-.51-2.53h-.02c-.14.77-.31 1.53-.6 2.53l-1.11 4.04h-1.04z"/><path d="m589.88 540.86c.45.28 1.11.51 1.8.51 1.03 0 1.62-.54 1.62-1.33 0-.73-.41-1.14-1.46-1.54-1.27-.45-2.05-1.11-2.05-2.2 0-1.21 1-2.11 2.51-2.11.8 0 1.37.18 1.72.38l-.28.82c-.25-.14-.77-.37-1.47-.37-1.06 0-1.46.63-1.46 1.16 0 .73.47 1.08 1.54 1.5 1.31.51 1.98 1.14 1.98 2.28 0 1.2-.89 2.23-2.72 2.23-.75 0-1.57-.22-1.98-.5z"/><path d="m607.02 541.83c-.37.18-1.11.37-2.05.37-2.19 0-3.84-1.38-3.84-3.93 0-2.43 1.65-4.08 4.06-4.08.97 0 1.58.21 1.84.35l-.24.82c-.38-.18-.92-.32-1.57-.32-1.82 0-3.03 1.16-3.03 3.2 0 1.9 1.09 3.12 2.98 3.12.61 0 1.23-.13 1.64-.32z"/><path d="m611.01 534.31v3.25h3.76v-3.25h1.01v7.77h-1.01v-3.64h-3.76v3.64h-1v-7.77z"/><path d="m619.24 534.42c.51-.1 1.23-.16 1.92-.16 1.07 0 1.76.2 2.25.63.39.35.61.88.61 1.47 0 1.03-.64 1.71-1.46 1.98v.03c.6.21.96.76 1.14 1.57.25 1.08.44 1.83.6 2.13h-1.04c-.13-.22-.3-.89-.52-1.86-.23-1.07-.65-1.47-1.56-1.51h-.94v3.36h-1zm1.01 3.53h1.03c1.07 0 1.75-.59 1.75-1.47 0-1-.73-1.44-1.79-1.45-.48 0-.83.05-.99.09z"/><path d="m628.17 534.31v7.77h-1v-7.77z"/><path d="m631.51 540.86c.45.28 1.11.51 1.8.51 1.03 0 1.62-.54 1.62-1.33 0-.73-.41-1.14-1.46-1.54-1.27-.45-2.05-1.11-2.05-2.2 0-1.21 1-2.11 2.51-2.11.8 0 1.37.18 1.72.38l-.28.82c-.25-.14-.77-.37-1.47-.37-1.06 0-1.46.63-1.46 1.16 0 .73.47 1.08 1.54 1.5 1.31.51 1.98 1.14 1.98 2.28 0 1.2-.89 2.23-2.72 2.23-.75 0-1.57-.22-1.98-.5z"/><path d="m640.54 535.16h-2.36v-.85h5.75v.85h-2.37v6.91h-1.01v-6.91z"/><path d="m652.84 538.11c0 2.67-1.62 4.09-3.61 4.09-2.05 0-3.49-1.59-3.49-3.94 0-2.47 1.53-4.08 3.61-4.08 2.12.01 3.49 1.63 3.49 3.93zm-6.03.13c0 1.66.9 3.15 2.48 3.15 1.59 0 2.49-1.46 2.49-3.23 0-1.54-.81-3.16-2.48-3.16-1.66 0-2.49 1.54-2.49 3.24z"/><path d="m655.87 534.4c.48-.08 1.12-.15 1.92-.15.99 0 1.72.23 2.18.65.43.37.68.93.68 1.62 0 .7-.21 1.26-.6 1.66-.53.56-1.39.85-2.37.85-.3 0-.58-.01-.81-.07v3.11h-1zm1 3.75c.22.06.5.08.83.08 1.21 0 1.95-.59 1.95-1.66 0-1.03-.73-1.52-1.83-1.52-.44 0-.77.03-.95.08z"/><path d="m664.73 534.31v3.25h3.76v-3.25h1.01v7.77h-1.01v-3.64h-3.76v3.64h-1v-7.77z"/><path d="m676.99 538.44h-3.02v2.8h3.36v.84h-4.37v-7.77h4.19v.84h-3.19v2.45h3.02v.84z"/><path d="m680.36 534.42c.51-.1 1.23-.16 1.92-.16 1.07 0 1.76.2 2.25.63.39.35.61.88.61 1.47 0 1.03-.64 1.71-1.46 1.98v.03c.6.21.96.76 1.14 1.57.25 1.08.44 1.83.6 2.13h-1.04c-.13-.22-.3-.89-.52-1.86-.23-1.07-.65-1.47-1.56-1.51h-.95v3.36h-1v-7.64zm1 3.53h1.03c1.07 0 1.75-.59 1.75-1.47 0-1-.73-1.44-1.79-1.45-.48 0-.83.05-.99.09z"/><path d="m692.46 534.4c.48-.08 1.12-.15 1.92-.15.99 0 1.72.23 2.18.65.43.37.68.93.68 1.62 0 .7-.21 1.26-.6 1.66-.53.56-1.39.85-2.37.85-.3 0-.58-.01-.81-.07v3.11h-1zm1 3.75c.22.06.5.08.83.08 1.21 0 1.95-.59 1.95-1.66 0-1.03-.73-1.52-1.83-1.52-.44 0-.77.03-.94.08v3.02z"/><path d="m700.32 534.31h1v6.93h3.32v.84h-4.32z"/><path d="m708.07 534.31v4.6c0 1.74.77 2.48 1.81 2.48 1.15 0 1.89-.76 1.89-2.48v-4.6h1.01v4.53c0 2.39-1.26 3.36-2.94 3.36-1.59 0-2.79-.91-2.79-3.32v-4.57z"/><path d="m722.79 538.67c-.06-1.08-.13-2.39-.11-3.35h-.03c-.26.91-.59 1.88-.98 2.95l-1.37 3.77h-.76l-1.26-3.7c-.37-1.09-.68-2.1-.9-3.02h-.02c-.02.97-.08 2.27-.15 3.43l-.21 3.33h-.96l.54-7.77h1.28l1.33 3.76c.32.96.59 1.81.78 2.62h.03c.2-.78.47-1.64.82-2.62l1.38-3.76h1.28l.48 7.77h-.98z"/><path d="m727.24 534.42c.44-.09 1.13-.16 1.83-.16 1 0 1.65.17 2.13.56.4.3.64.76.64 1.37 0 .75-.5 1.41-1.31 1.71v.02c.74.18 1.6.79 1.6 1.95 0 .67-.26 1.17-.66 1.56-.54.5-1.42.73-2.69.73-.69 0-1.22-.05-1.56-.09v-7.65zm1 3.18h.91c1.06 0 1.68-.55 1.68-1.3 0-.91-.69-1.27-1.7-1.27-.46 0-.73.03-.89.07zm0 3.72c.2.03.48.05.84.05 1.04 0 1.99-.38 1.99-1.51 0-1.06-.91-1.5-2-1.5h-.83z"/><path d="m739.23 538.44h-3.02v2.8h3.36v.84h-4.37v-7.77h4.19v.84h-3.19v2.45h3.02v.84z"/><path d="m742.61 534.42c.51-.1 1.23-.16 1.92-.16 1.07 0 1.76.2 2.25.63.39.35.61.88.61 1.47 0 1.03-.64 1.71-1.46 1.98v.03c.6.21.96.76 1.14 1.57.25 1.08.44 1.83.6 2.13h-1.04c-.13-.22-.3-.89-.52-1.86-.23-1.07-.65-1.47-1.56-1.51h-.94v3.36h-1zm1 3.53h1.03c1.07 0 1.75-.59 1.75-1.47 0-1-.73-1.44-1.79-1.45-.48 0-.83.05-.99.09z"/><path d="m279.5 541.68c-.46.17-1.38.44-2.46.44-1.21 0-2.21-.31-2.99-1.06-.69-.67-1.12-1.73-1.12-2.98.01-2.39 1.65-4.13 4.33-4.13.93 0 1.65.2 2 .37l-.25.84c-.43-.19-.96-.35-1.77-.35-1.95 0-3.22 1.21-3.22 3.22 0 2.03 1.22 3.23 3.09 3.23.68 0 1.14-.09 1.38-.21v-2.39h-1.63v-.83h2.64z"/><path d="m282.86 534.03h1.03v7.14h3.42v.87h-4.45z"/><path d="m294.39 538.28h-3.11v2.89h3.47v.87h-4.5v-8h4.32v.87h-3.29v2.53h3.11z"/><path d="m297.87 542.03v-8h1.13l2.56 4.05c.59.94 1.06 1.78 1.44 2.6l.02-.01c-.09-1.07-.12-2.04-.12-3.29v-3.35h.97v8h-1.05l-2.54-4.06c-.56-.89-1.09-1.8-1.5-2.67l-.04.01c.06 1.01.08 1.97.08 3.3v3.42z"/><path d="m307.46 542.03v-8h1.13l2.56 4.05c.59.94 1.06 1.78 1.44 2.6l.02-.01c-.09-1.07-.12-2.04-.12-3.29v-3.35h.97v8h-1.05l-2.54-4.06c-.56-.89-1.09-1.8-1.5-2.67l-.04.01c.06 1.01.08 1.97.08 3.3v3.42z"/><path d="m321.35 534.03h4.31v.87h-3.28v2.66h3.03v.85h-3.03v3.62h-1.03z"/><path d="m335.76 537.95c0 2.75-1.67 4.21-3.72 4.21-2.11 0-3.6-1.64-3.6-4.06 0-2.54 1.58-4.2 3.72-4.2 2.19 0 3.6 1.67 3.6 4.05zm-6.21.13c0 1.71.93 3.24 2.55 3.24 1.64 0 2.57-1.51 2.57-3.32 0-1.59-.83-3.25-2.55-3.25-1.72-.01-2.57 1.57-2.57 3.33z"/><path d="m338.88 534.14c.52-.11 1.27-.17 1.98-.17 1.1 0 1.82.2 2.32.65.4.36.63.9.63 1.52 0 1.06-.67 1.76-1.51 2.04v.04c.62.21.99.78 1.17 1.61.26 1.12.45 1.89.62 2.2h-1.07c-.13-.23-.31-.91-.53-1.91-.24-1.1-.67-1.52-1.6-1.56h-.97v3.47h-1.03v-7.89zm1.03 3.64h1.06c1.1 0 1.8-.61 1.8-1.52 0-1.03-.75-1.48-1.84-1.5-.5 0-.85.05-1.02.1z"/><path d="m347.05 534.14c.63-.09 1.38-.17 2.2-.17 1.48 0 2.54.34 3.24 1 .71.65 1.13 1.58 1.13 2.87 0 1.31-.4 2.37-1.15 3.11-.75.75-1.98 1.15-3.54 1.15-.74 0-1.35-.04-1.88-.1zm1.03 7.07c.26.05.64.06 1.04.06 2.21 0 3.41-1.24 3.41-3.4.01-1.89-1.06-3.09-3.24-3.09-.53 0-.94.05-1.21.11z"/><path d="m362.07 534.03v3.35h3.87v-3.35h1.05v8h-1.05v-3.75h-3.87v3.75h-1.03v-8z"/><path d="m374.71 538.28h-3.11v2.89h3.47v.87h-4.5v-8h4.32v.87h-3.29v2.53h3.11z"/><path d="m378.19 542.03v-8h1.13l2.56 4.05c.59.94 1.06 1.78 1.44 2.6l.02-.01c-.09-1.07-.12-2.04-.12-3.29v-3.35h.97v8h-1.05l-2.54-4.06c-.56-.89-1.09-1.8-1.5-2.67l-.04.01c.06 1.01.08 1.97.08 3.3v3.42z"/><path d="m387.78 534.14c.52-.11 1.27-.17 1.98-.17 1.1 0 1.82.2 2.32.65.4.36.63.9.63 1.52 0 1.06-.67 1.76-1.51 2.04v.04c.62.21.99.78 1.17 1.61.26 1.12.45 1.89.62 2.2h-1.07c-.13-.23-.31-.91-.53-1.91-.24-1.1-.67-1.52-1.6-1.56h-.97v3.47h-1.03v-7.89zm1.03 3.64h1.06c1.1 0 1.8-.61 1.8-1.52 0-1.03-.75-1.48-1.84-1.5-.5 0-.85.05-1.02.1z"/><path d="m397.6 542.03v-3.4l-2.53-4.61h1.18l1.13 2.21c.31.61.55 1.09.8 1.65h.02c.23-.52.5-1.05.81-1.65l1.15-2.21h1.17l-2.68 4.6v3.41z"/><path d="m408.32 534.03h4.31v.87h-3.28v2.66h3.03v.85h-3.03v3.62h-1.03z"/><path d="m422.73 537.95c0 2.75-1.67 4.21-3.72 4.21-2.11 0-3.6-1.64-3.6-4.06 0-2.54 1.58-4.2 3.72-4.2 2.19 0 3.6 1.67 3.6 4.05zm-6.21.13c0 1.71.93 3.24 2.55 3.24 1.64 0 2.57-1.51 2.57-3.32 0-1.59-.83-3.25-2.55-3.25-1.72-.01-2.57 1.57-2.57 3.33z"/><path d="m425.85 542.03v-8h1.13l2.56 4.05c.59.94 1.06 1.78 1.44 2.6l.02-.01c-.09-1.07-.12-2.04-.12-3.29v-3.35h.97v8h-1.05l-2.54-4.06c-.56-.89-1.09-1.8-1.5-2.67l-.04.01c.06 1.01.08 1.97.08 3.3v3.42z"/><path d="m435.45 534.14c.63-.09 1.38-.17 2.2-.17 1.48 0 2.54.34 3.24 1 .71.65 1.13 1.58 1.13 2.87 0 1.31-.4 2.37-1.15 3.11-.75.75-1.98 1.15-3.54 1.15-.74 0-1.35-.04-1.88-.1zm1.03 7.07c.26.05.64.06 1.04.06 2.21 0 3.41-1.24 3.41-3.4.01-1.89-1.06-3.09-3.24-3.09-.53 0-.94.05-1.21.11z"/><path d="m446.26 539.52-.83 2.52h-1.07l2.72-8h1.25l2.73 8h-1.1l-.85-2.52zm2.63-.81-.78-2.3c-.18-.52-.3-1-.41-1.46h-.02c-.12.48-.25.96-.4 1.45l-.78 2.32h2.39z"/><path d="m844.37 600.51h.61v45.89h-.61z"/><path d="m844.37 600.78h.61v3.83h-.61z"/><path d="m891.53 646.84v6.23h-783.06v-6.23c0-1.37 0-352.06 0-352.06h15.67v-14.99h4.67v-.64h715.57v.64h.59v227.38h26.3v47.46h-26.3v45.88h-.61v45.89h-65.03v.44h100.71v-42.24h-35.07v-4.09h38.9v46.33z"/></g><path d="m124.15 554.63h720.23v91.76h-720.23z" fill="#b0d3f1"/><path d="m320.14 581.93h17.76v30.3h-17.76z" fill="#fff"/><path d="m128.82 279.15h715.57v227.38h-715.57z" fill="#fff"/><path d="m253.13 507.17h518.85v42.92h-518.85z" fill="#fff"/><path d="m715.38 550.4c-.17 0-.31-.14-.31-.31v-42.92c0-.17.14-.31.31-.31s.31.14.31.31v42.92c0 .18-.14.31-.31.31z" fill="#b69994"/><path d="m657.18 550.4c-.17 0-.31-.14-.31-.31v-42.92c0-.17.14-.31.31-.31s.31.14.31.31v42.92c0 .18-.14.31-.31.31z" fill="#b69994"/><path d="m598.98 550.4c-.17 0-.31-.14-.31-.31v-42.92c0-.17.14-.31.31-.31s.31.14.31.31v42.92c0 .18-.14.31-.31.31z" fill="#b69994"/><path d="m540.77 550.4c-.17 0-.31-.14-.31-.31v-42.92c0-.17.14-.31.31-.31s.31.14.31.31v42.92c0 .18-.14.31-.31.31z" fill="#b69994"/><path d="m482.57 550.4c-.17 0-.31-.14-.31-.31v-42.92c0-.17.14-.31.31-.31s.31.14.31.31v42.92c0 .18-.14.31-.31.31z" fill="#b69994"/><path d="m424.37 550.4c-.17 0-.31-.14-.31-.31v-42.92c0-.17.14-.31.31-.31s.31.14.31.31v42.92c0 .18-.14.31-.31.31z" fill="#b69994"/><path d="m366.17 550.4c-.17 0-.31-.14-.31-.31v-42.92c0-.17.14-.31.31-.31s.31.14.31.31v42.92c0 .18-.14.31-.31.31z" fill="#b69994"/><path d="m307.96 550.4c-.17 0-.31-.14-.31-.31v-42.92c0-.17.14-.31.31-.31s.31.14.31.31v42.92c0 .18-.13.31-.31.31z" fill="#b69994"/><path d="m771.98 524.39h-518.85c-.17 0-.31-.14-.31-.31s.14-.31.31-.31h518.85c.17 0 .31.14.31.31s-.14.31-.31.31z" fill="#b69994"/><path d="m771.98 515.29h-518.85c-.17 0-.31-.14-.31-.31s.14-.31.31-.31h518.85c.17 0 .31.14.31.31s-.14.31-.31.31z" fill="#b69994"/><path d="m771.98 533.49h-518.85c-.17 0-.31-.14-.31-.31s.14-.31.31-.31h518.85c.17 0 .31.14.31.31 0 .18-.14.31-.31.31z" fill="#b69994"/><path d="m771.98 542.6h-518.85c-.17 0-.31-.14-.31-.31s.14-.31.31-.31h518.85c.17 0 .31.14.31.31s-.14.31-.31.31z" fill="#b69994"/><path d="m385.77 554.63h269.8v91.76h-269.8z" fill="#fff"/><path d="m707.69 554.63h137.28v91.76h-137.28z" fill="#fff"/><path d="m880.05 600.51h3.83v46.33h-3.83z" fill="#b0d3f1"/><path d="m131.87 600.78h751.43v3.82h-751.43z" fill="#b0d3f1"/><path d="m132.69 603.09h5.08v43.75h-5.08z" fill="#b0d3f1"/><path d="m251.98 600.51h5.56v45.88h-5.56z" fill="#b0d3f1"/><path d="m356.94 602.28h4.31v44.56h-4.31z" fill="#b0d3f1"/><path d="m462.53 602.28h3.95v44.56h-3.95z" fill="#b0d3f1"/><path d="m565.89 602.28h4.01v44.56h-4.01z" fill="#b0d3f1"/><path d="m670.12 602.28h4.3v44.56h-4.3z" fill="#b0d3f1"/><path d="m775.01 602.28h4.33v44.56h-4.33z" fill="#b0d3f1"/><path d="m828.72 506.49c-.17 0-.31-.14-.31-.31v-226.72c0-.17.14-.31.31-.31s.31.14.31.31v226.73c0 .16-.14.3-.31.3z" fill="#b69994"/><path d="m812.25 506.49c-.17 0-.31-.14-.31-.31v-226.72c0-.17.14-.31.31-.31s.31.14.31.31v226.73c0 .16-.14.3-.31.3z" fill="#b69994"/><path d="m795.78 506.49c-.17 0-.31-.14-.31-.31v-226.72c0-.17.14-.31.31-.31s.31.14.31.31v226.73c0 .16-.14.3-.31.3z" fill="#b69994"/><path d="m779.31 506.49c-.17 0-.31-.14-.31-.31v-226.72c0-.17.14-.31.31-.31s.31.14.31.31v226.73c0 .16-.14.3-.31.3z" fill="#b69994"/><path d="m762.84 506.49c-.17 0-.31-.14-.31-.31v-226.72c0-.17.14-.31.31-.31s.31.14.31.31v226.73c0 .16-.14.3-.31.3z" fill="#b69994"/><path d="m746.37 506.49c-.17 0-.31-.14-.31-.31v-226.72c0-.17.14-.31.31-.31s.31.14.31.31v226.73c0 .16-.14.3-.31.3z" fill="#b69994"/><path d="m729.9 506.49c-.17 0-.31-.14-.31-.31v-226.72c0-.17.14-.31.31-.31s.31.14.31.31v226.73c0 .16-.14.3-.31.3z" fill="#b69994"/><path d="m713.43 506.49c-.17 0-.31-.14-.31-.31v-226.72c0-.17.14-.31.31-.31s.31.14.31.31v226.73c0 .16-.14.3-.31.3z" fill="#b69994"/><path d="m696.96 506.49c-.17 0-.31-.14-.31-.31v-226.72c0-.17.14-.31.31-.31s.31.14.31.31v226.73c0 .16-.14.3-.31.3z" fill="#b69994"/><path d="m680.49 506.49c-.17 0-.31-.14-.31-.31v-226.72c0-.17.14-.31.31-.31s.31.14.31.31v226.73c0 .16-.14.3-.31.3z" fill="#b69994"/><path d="m664.02 435.68c-.17 0-.31-.14-.31-.31v-155.91c0-.17.14-.31.31-.31s.31.14.31.31v155.91c0 .17-.14.31-.31.31z" fill="#b69994"/><path d="m664.02 506.49c-.17 0-.31-.14-.31-.31v-35.12c0-.17.14-.31.31-.31s.31.14.31.31v35.12c0 .17-.14.31-.31.31z" fill="#b69994"/><path d="m647.55 414.28c-.17 0-.31-.14-.31-.31v-134.51c0-.17.14-.31.31-.31s.31.14.31.31v134.51c0 .17-.14.31-.31.31z" fill="#b69994"/><path d="m647.55 506.49c-.17 0-.31-.14-.31-.31v-58.12c0-.17.14-.31.31-.31s.31.14.31.31v58.12c0 .17-.14.31-.31.31z" fill="#b69994"/><path d="m631.08 506.49c-.17 0-.31-.14-.31-.31v-226.72c0-.17.14-.31.31-.31s.31.14.31.31v226.73c0 .16-.14.3-.31.3z" fill="#b69994"/><path d="m613.48 506.49c-.17 0-.31-.14-.31-.31v-226.72c0-.17.14-.31.31-.31s.31.14.31.31v226.73c0 .16-.14.3-.31.3z" fill="#b69994"/><path d="m598.14 506.49c-.17 0-.31-.14-.31-.31v-226.72c0-.17.14-.31.31-.31s.31.14.31.31v226.73c0 .16-.14.3-.31.3z" fill="#b69994"/><path d="m581.67 506.49c-.17 0-.31-.14-.31-.31v-226.72c0-.17.14-.31.31-.31s.31.14.31.31v226.73c0 .16-.14.3-.31.3z" fill="#b69994"/><path d="m565.2 506.49c-.17 0-.31-.14-.31-.31v-226.72c0-.17.14-.31.31-.31s.31.14.31.31v226.73c0 .16-.14.3-.31.3z" fill="#b69994"/><path d="m548.73 417.96c-.17 0-.31-.14-.31-.31v-138.19c0-.17.14-.31.31-.31s.31.14.31.31v138.19c0 .17-.14.31-.31.31z" fill="#b69994"/><path d="m548.73 506.49c-.17 0-.31-.14-.31-.31v-36.67c0-.17.14-.31.31-.31s.31.14.31.31v36.67c0 .17-.14.31-.31.31z" fill="#b69994"/><path d="m531.21 506.49c-.17 0-.31-.14-.31-.31v-226.72c0-.17.14-.31.31-.31s.31.14.31.31v226.73c0 .16-.14.3-.31.3z" fill="#b69994"/><path d="m515.79 506.49c-.17 0-.31-.14-.31-.31v-226.72c0-.17.14-.31.31-.31s.31.14.31.31v226.73c-.01.16-.14.3-.31.3z" fill="#b69994"/><path d="m499.32 506.49c-.17 0-.31-.14-.31-.31v-226.72c0-.17.14-.31.31-.31s.31.14.31.31v226.73c-.01.16-.14.3-.31.3z" fill="#b69994"/><path d="m482.85 506.49c-.17 0-.31-.14-.31-.31v-226.72c0-.17.14-.31.31-.31s.31.14.31.31v226.73c-.01.16-.14.3-.31.3z" fill="#b69994"/><path d="m466.37 411.19c-.17 0-.31-.14-.31-.31v-131.42c0-.17.14-.31.31-.31s.31.14.31.31v131.42c0 .17-.13.31-.31.31z" fill="#b69994"/><path d="m466.37 506.49c-.17 0-.31-.14-.31-.31v-29.9c0-.17.14-.31.31-.31s.31.14.31.31v29.9c0 .17-.13.31-.31.31z" fill="#b69994"/><path d="m449.9 506.49c-.17 0-.31-.14-.31-.31v-226.72c0-.17.14-.31.31-.31s.31.14.31.31v226.73c0 .16-.14.3-.31.3z" fill="#b69994"/><path d="m433.43 411.19c-.17 0-.31-.14-.31-.31v-131.42c0-.17.14-.31.31-.31s.31.14.31.31v131.42c0 .17-.14.31-.31.31z" fill="#b69994"/><path d="m433.43 506.49c-.17 0-.31-.14-.31-.31v-29.9c0-.17.14-.31.31-.31s.31.14.31.31v29.9c0 .17-.14.31-.31.31z" fill="#b69994"/><path d="m416.96 506.49c-.17 0-.31-.14-.31-.31v-226.72c0-.17.14-.31.31-.31s.31.14.31.31v226.73c0 .16-.14.3-.31.3z" fill="#b69994"/><path d="m400.49 506.49c-.17 0-.31-.14-.31-.31v-226.72c0-.17.14-.31.31-.31s.31.14.31.31v226.73c0 .16-.14.3-.31.3z" fill="#b69994"/><path d="m384.02 506.49c-.17 0-.31-.14-.31-.31v-226.72c0-.17.14-.31.31-.31s.31.14.31.31v226.73c0 .16-.14.3-.31.3z" fill="#b69994"/><path d="m367.55 506.49c-.17 0-.31-.14-.31-.31v-226.72c0-.17.14-.31.31-.31s.31.14.31.31v226.73c0 .16-.14.3-.31.3z" fill="#b69994"/><path d="m351.08 506.49c-.17 0-.31-.14-.31-.31v-226.72c0-.17.14-.31.31-.31s.31.14.31.31v226.73c0 .16-.14.3-.31.3z" fill="#b69994"/><path d="m334.61 506.49c-.17 0-.31-.14-.31-.31v-226.72c0-.17.14-.31.31-.31s.31.14.31.31v226.73c0 .16-.14.3-.31.3z" fill="#b69994"/><path d="m318.14 413.23c-.17 0-.31-.14-.31-.31v-133.46c0-.17.14-.31.31-.31s.31.14.31.31v133.46c0 .17-.14.31-.31.31z" fill="#b69994"/><path d="m318.14 506.49c-.17 0-.31-.14-.31-.31v-31.93c0-.17.14-.31.31-.31s.31.14.31.31v31.93c0 .17-.14.31-.31.31z" fill="#b69994"/><path d="m301.67 506.49c-.17 0-.31-.14-.31-.31v-226.72c0-.17.14-.31.31-.31s.31.14.31.31v226.73c0 .16-.14.3-.31.3z" fill="#b69994"/><path d="m285.2 506.49c-.17 0-.31-.14-.31-.31v-226.72c0-.17.14-.31.31-.31s.31.14.31.31v226.73c0 .16-.14.3-.31.3z" fill="#b69994"/><path d="m268.73 506.49c-.17 0-.31-.14-.31-.31v-226.72c0-.17.14-.31.31-.31s.31.14.31.31v226.73c0 .16-.14.3-.31.3z" fill="#b69994"/><path d="m252.26 506.49c-.17 0-.31-.14-.31-.31v-226.72c0-.17.14-.31.31-.31s.31.14.31.31v226.73c0 .16-.14.3-.31.3z" fill="#b69994"/><path d="m235.79 506.49c-.17 0-.31-.14-.31-.31v-226.72c0-.17.14-.31.31-.31s.31.14.31.31v226.73c0 .16-.14.3-.31.3z" fill="#b69994"/><path d="m219.32 506.49c-.17 0-.31-.14-.31-.31v-226.72c0-.17.14-.31.31-.31s.31.14.31.31v226.73c0 .16-.14.3-.31.3z" fill="#b69994"/><path d="m202.85 506.49c-.17 0-.31-.14-.31-.31v-226.72c0-.17.14-.31.31-.31s.31.14.31.31v226.73c0 .16-.14.3-.31.3z" fill="#b69994"/><path d="m186.38 506.49c-.17 0-.31-.14-.31-.31v-226.72c0-.17.14-.31.31-.31s.31.14.31.31v226.73c0 .16-.14.3-.31.3z" fill="#b69994"/><path d="m169.91 506.49c-.17 0-.31-.14-.31-.31v-226.72c0-.17.14-.31.31-.31s.31.14.31.31v226.73c0 .16-.14.3-.31.3z" fill="#b69994"/><path d="m153.44 506.49c-.17 0-.31-.14-.31-.31v-226.72c0-.17.14-.31.31-.31s.31.14.31.31v226.73c0 .16-.14.3-.31.3z" fill="#b69994"/><path d="m136.97 506.49c-.17 0-.31-.14-.31-.31v-226.72c0-.17.14-.31.31-.31s.31.14.31.31v226.73c-.01.16-.14.3-.31.3z" fill="#b69994"/><path d="m285.2 611.87h16.47v28.05h-16.47z" fill="#e87934"/><path d="m301.67 640.33h-16.47c-.23 0-.41-.18-.41-.41s.18-.41.41-.41h16.47c.23 0 .41.18.41.41s-.18.41-.41.41z" fill="#392c28"/><path d="m361.79 410.88h-35.07l-15.22 15.44v34.52l15.22 15.44h35.07l15.22-15.44v-34.52zm-4.13 46.1h-26.8v-26.8h26.8z" fill="#b0d3f1"/><path d="m597.93 410.88h-35.07l-15.22 15.44v34.52l15.22 15.44h35.07l15.22-15.44v-34.52zm-4.13 46.1h-26.8v-26.8h26.8z" fill="#b0d3f1"/><path d="m441.73 410.88h-46.88v65.41h46.88l12.72-12.72v-39.97zm-5.04 46.1h-26.8v-26.8h26.8z" fill="#b0d3f1"/><path d="m531.21 451.11-40.97-.34v12.8h40.97l-12.72 12.72h-46.87v-65.41h46.87l12.72 12.72h-40.97v11.49l40.97-.34z" fill="#b0d3f1"/><path d="m626.05 410.88v65.41h14.58v-48.15l33.61 48.15h15.44v-65.41h-14.17v39.42l-30.34-39.42z" fill="#b0d3f1"/><path d="m153.65 507.17h94.38v42.92h-94.38z" fill="#b0d3f1"/><path d="m776.53 507.17h94.38v42.92h-94.38z" fill="#b0d3f1"/><path d="m496.31 526.14v-11.93c0-.02 0-.02-.02-.04-.04-.04-.06-.06-.08-.06h-3.19v-2.83h9.45v2.83h-3.21l-.12.1v11.93z" fill="#392c28"/><path d="m515.53 511.27h2.83v14.86h-2.83v-5.93c0-.08-.04-.12-.12-.12h-4.83c-.08 0-.12.04-.12.12v5.93h-2.83v-14.86h2.83v5.87c0 .08.04.12.12.12h4.83c.08 0 .12-.04.12-.12z" fill="#392c28"/><path d="m526.53 523.18c0 .08.04.12.12.12h5.21v2.83h-8.16v-14.86h8.16v2.83h-5.21c-.08 0-.12.04-.12.12v2.91c0 .08.04.12.12.12h5.21v2.83h-5.21c-.08 0-.12.04-.12.12z" fill="#392c28"/><path d="m548.06 522.19c.4.65.89 1.29 1.94 1.29.85 0 1.47-.71 1.47-1.51 0-1.41-1.01-1.72-2.08-2.14-2.02-.77-3.57-1.92-3.57-4.26 0-2.68 1.7-4.42 4.34-4.42 1.45 0 3.17.83 3.69 2.46l-2.56 1.23c-.32-.69-.91-.83-1.31-.83-.73 0-1.33.71-1.33 1.45 0 .71.71 1.31 1.55 1.66.54.22 1.57.67 1.98.93 1.49.89 2.12 2.02 2.12 3.92 0 2.4-1.86 4.32-4.18 4.32h-.18c-2.04 0-3.59-1.35-4.14-3.13z" fill="#392c28"/><path d="m567.05 511.12c4.2 0 7.59 3.39 7.59 7.59s-3.39 7.59-7.59 7.59-7.59-3.39-7.59-7.59c0-4.21 3.39-7.59 7.59-7.59zm0 12.34c2.62 0 4.76-2.14 4.76-4.76s-2.14-4.76-4.76-4.76-4.76 2.14-4.76 4.76 2.14 4.76 4.76 4.76z" fill="#392c28"/><path d="m579.72 511.29h2.83v10.23c0 1.17 1.17 1.88 2.12 1.88 1.05 0 2.02-.79 2.02-1.8v-10.3h2.83v10.62c0 2.54-2.34 4.32-4.86 4.32-2.54 0-4.95-1.78-4.95-4.32v-10.63z" fill="#392c28"/><path d="m597.46 511.27 6.34 9.41v-9.39h2.83v14.84h-2.63l-6.36-9.41v9.41h-2.83v-14.84z" fill="#392c28"/><path d="m611.87 511.27h4.87c4.14 0 7.47 3.39 7.47 7.43s-3.33 7.43-7.47 7.43h-4.87zm4.88 12.03c2.69 0 4.64-1.88 4.64-4.6s-1.82-4.6-4.52-4.6h-2.04c-.08 0-.12.04-.12.12v8.96c0 .08.04.12.12.12z" fill="#392c28"/><path d="m645.67 511.12c4.2 0 7.59 3.39 7.59 7.59s-3.39 7.59-7.59 7.59-7.59-3.39-7.59-7.59c0-4.21 3.39-7.59 7.59-7.59zm0 12.34c2.62 0 4.76-2.14 4.76-4.76s-2.14-4.76-4.76-4.76-4.76 2.14-4.76 4.76 2.14 4.76 4.76 4.76z" fill="#392c28"/><path d="m658.45 511.27h8.18v2.83h-5.23c-.08 0-.12.04-.12.12v2.91c0 .08.04.12.12.12h5.23v2.83h-5.23c-.08 0-.12.04-.12.12v5.93h-2.83z" fill="#392c28"/><path d="m691.75 511.27h3.78v14.86h-2.79v-9.77c0-.06-.06-.08-3.71 9.77h-2.16l-3.51-9.85v9.85h-2.91v-14.86h3.73l3.78 10.38z" fill="#392c28"/><path d="m700.73 511.29h2.83v10.23c0 1.17 1.17 1.88 2.12 1.88 1.05 0 2.02-.79 2.02-1.8v-10.3h2.83v10.62c0 2.54-2.34 4.32-4.86 4.32-2.54 0-4.95-1.78-4.95-4.32v-10.63z" fill="#392c28"/><path d="m717.88 522.19c.4.65.89 1.29 1.94 1.29.85 0 1.47-.71 1.47-1.51 0-1.41-1.01-1.72-2.08-2.14-2.02-.77-3.57-1.92-3.57-4.26 0-2.68 1.7-4.42 4.34-4.42 1.45 0 3.17.83 3.69 2.46l-2.56 1.23c-.32-.69-.91-.83-1.31-.83-.73 0-1.33.71-1.33 1.45 0 .71.71 1.31 1.55 1.66.54.22 1.57.67 1.98.93 1.49.89 2.12 2.02 2.12 3.92 0 2.4-1.86 4.32-4.18 4.32h-.18c-2.04 0-3.59-1.35-4.14-3.13z" fill="#392c28"/><path d="m732.15 511.27v14.86h-2.83v-14.86z" fill="#392c28"/><path d="m740.16 518.71c0 2.64 2.3 4.6 4.76 4.76 1.13 0 2.18-.4 2.99-1.05l1.74 2.26c-.26.26-1.86 1.62-4.74 1.62-4.2 0-7.59-3.39-7.59-7.59s3.39-7.59 7.59-7.59c2.89 0 4.46 1.41 4.74 1.63l-1.74 2.26c-.81-.65-1.86-1.05-2.99-1.05-2.7.09-4.76 2.11-4.76 4.75z" fill="#392c28"/><path d="m488.77 540.13c.08.26.33.4.61.4.4 0 .73-.33.73-.75v-6.35h1.65v6.35c0 1.34-1.05 2.39-2.37 2.39-.88 0-1.65-.45-2.05-1.19z" fill="#392c28"/><path d="m494.71 533.45h1.65v5.95c0 .68.68 1.09 1.23 1.09.61 0 1.18-.46 1.18-1.05v-5.99h1.65v6.18c0 1.47-1.36 2.51-2.82 2.51-1.47 0-2.88-1.04-2.88-2.51v-6.18z" fill="#392c28"/><path d="m507.99 540.43v1.65h-4.54v-8.65h1.65v6.87c0 .09.05.14.14.14h2.75z" fill="#392c28"/><path d="m512.58 533.44v8.64h-1.65v-8.64z" fill="#392c28"/><path d="m517.27 540.36c0 .05.02.07.07.07h3.03v1.65h-4.75v-8.64h4.75v1.65h-3.03c-.05 0-.07.02-.07.07v1.69c0 .05.02.07.07.07h3.03v1.65h-3.03c-.05 0-.07.02-.07.07z" fill="#392c28"/><path d="m534.48 542.08-.68-1.56c-.01-.03-.05-.06-.09-.06h-3.12c-.05 0-.08.02-.09.06l-.65 1.56h-1.77l3.45-8.64h1.26l3.47 8.64zm-2.32-5.7c-.01 0-.02.01-.02.02-.01.01-.01.01-.01.02l-.97 2.43c-.01.01-.01.02-.01.05 0 .02.01.03.05.03h1.92c.03 0 .05-.01.05-.05 0-.01 0-.02-.01-.03l-.96-2.43c-.01-.01-.01-.01-.01-.02z" fill="#392c28"/><path d="m540.4 533.44 3.69 5.47v-5.46h1.65v8.63h-1.53l-3.7-5.47v5.47h-1.65v-8.63z" fill="#392c28"/><path d="m548.78 533.44h2.83c2.41 0 4.34 1.97 4.34 4.32s-1.94 4.32-4.34 4.32h-2.83zm2.83 6.99c1.57 0 2.7-1.09 2.7-2.67s-1.06-2.67-2.63-2.67h-1.19c-.05 0-.07.02-.07.07v5.21c0 .05.02.07.07.07h1.12z" fill="#392c28"/><path d="m561.22 538.76c-.02-.05-.06-.07-.1-.07h-.44c-.05 0-.07.02-.07.07v3.32h-1.65v-8.64h2.71c1.61 0 2.6 1.24 2.6 2.71 0 .8-.24 1.34-.77 1.87-.21.21-.44.32-.59.41-.01 0-.02.02 0 .06l1.98 3.59h-1.89zm-.61-1.61c0 .05.02.07.07.07h.99c.61 0 .97-.5.97-1.07 0-.56-.36-1.06-.97-1.06h-.99c-.05 0-.07.02-.07.07z" fill="#392c28"/><path d="m569.19 540.36c0 .05.02.07.07.07h3.03v1.65h-4.75v-8.64h4.75v1.65h-3.03c-.05 0-.07.02-.07.07v1.69c0 .05.02.07.07.07h3.03v1.65h-3.03c-.05 0-.07.02-.07.07z" fill="#392c28"/><path d="m581.18 542.08c-1.11-4.28-1.28-4.93-1.28-4.89l-1.26 4.89h-1.29l-2.33-8.64h1.72c1.11 4.33 1.23 4.9 1.24 4.9s.02-.01.03-.02l1.28-4.87h1.29c1.11 4.33 1.23 4.9 1.24 4.9s.02-.01.03-.02l1.24-4.87h1.72l-2.34 8.64h-1.29z" fill="#392c28"/><path d="m588.65 539.79c.23.38.52.75 1.13.75.5 0 .85-.41.85-.88 0-.82-.59-1-1.21-1.24-1.17-.45-2.07-1.12-2.07-2.48 0-1.56.99-2.57 2.52-2.57.84 0 1.84.48 2.14 1.43l-1.49.71c-.18-.4-.53-.48-.76-.48-.43 0-.77.41-.77.84 0 .41.41.76.9.97.31.13.91.39 1.15.54.86.52 1.23 1.18 1.23 2.28 0 1.39-1.08 2.51-2.43 2.51h-.1c-1.19 0-2.09-.78-2.41-1.82z" fill="#392c28"/><path d="m601.98 537.76c0 1.53 1.34 2.67 2.76 2.77.66 0 1.27-.23 1.74-.61l1.01 1.31c-.15.15-1.08.94-2.75.94-2.44 0-4.41-1.97-4.41-4.41s1.97-4.41 4.41-4.41c1.68 0 2.59.82 2.75.94l-1.01 1.31c-.47-.38-1.08-.61-1.74-.61-1.56.06-2.76 1.23-2.76 2.77z" fill="#392c28"/><path d="m614.91 533.44h1.65v8.64h-1.65v-3.45c0-.05-.02-.07-.07-.07h-2.81c-.05 0-.07.02-.07.07v3.45h-1.65v-8.64h1.65v3.41c0 .05.02.07.07.07h2.81c.05 0 .07-.02.07-.07z" fill="#392c28"/><path d="m621.85 538.76c-.02-.05-.06-.07-.1-.07h-.44c-.05 0-.07.02-.07.07v3.32h-1.65v-8.64h2.71c1.61 0 2.6 1.24 2.6 2.71 0 .8-.24 1.34-.77 1.87-.21.21-.44.32-.59.41-.01 0-.02.02 0 .06l1.98 3.59h-1.89zm-.61-1.61c0 .05.02.07.07.07h.99c.61 0 .97-.5.97-1.07 0-.56-.36-1.06-.97-1.06h-.99c-.05 0-.07.02-.07.07z" fill="#392c28"/><path d="m629.83 533.44v8.64h-1.65v-8.64z" fill="#392c28"/><path d="m634.16 539.79c.23.38.52.75 1.13.75.5 0 .85-.41.85-.88 0-.82-.59-1-1.21-1.24-1.17-.45-2.07-1.12-2.07-2.48 0-1.56.99-2.57 2.52-2.57.84 0 1.84.48 2.14 1.43l-1.49.71c-.18-.4-.53-.48-.76-.48-.43 0-.77.41-.77.84 0 .41.41.76.9.97.31.13.91.39 1.15.54.86.52 1.23 1.18 1.23 2.28 0 1.39-1.08 2.51-2.43 2.51h-.1c-1.19 0-2.09-.78-2.41-1.82z" fill="#392c28"/><path d="m642.67 542.08v-6.94c0-.01 0-.01-.01-.02-.02-.02-.03-.03-.05-.03h-1.86v-1.65h5.5v1.65h-1.87l-.07.06v6.94h-1.64z" fill="#392c28"/><path d="m652.58 533.34c2.44 0 4.41 1.97 4.41 4.41s-1.97 4.41-4.41 4.41-4.41-1.97-4.41-4.41 1.97-4.41 4.41-4.41zm0 7.18c1.52 0 2.76-1.24 2.76-2.77 0-1.52-1.24-2.77-2.76-2.77s-2.77 1.24-2.77 2.77c.01 1.53 1.25 2.77 2.77 2.77z" fill="#392c28"/><path d="m660.02 533.44h2.65c1.47 0 2.51 1.13 2.51 2.59s-1.04 2.65-2.51 2.65h-.94c-.05 0-.07.02-.07.07v3.33h-1.65zm1.64 3.52c0 .05.02.07.07.07h.94c.68 0 .86-.63.86-1 0-.36-.18-.94-.86-.94h-.94c-.05 0-.07.02-.07.07z" fill="#392c28"/><path d="m672.74 533.44h1.65v8.64h-1.65v-3.45c0-.05-.02-.07-.07-.07h-2.81c-.05 0-.07.02-.07.07v3.45h-1.65v-8.64h1.65v3.41c0 .05.02.07.07.07h2.81c.05 0 .07-.02.07-.07z" fill="#392c28"/><path d="m679.14 540.36c0 .05.02.07.07.07h3.03v1.65h-4.75v-8.64h4.75v1.65h-3.03c-.05 0-.07.02-.07.07v1.69c0 .05.02.07.07.07h3.03v1.65h-3.03c-.05 0-.07.02-.07.07z" fill="#392c28"/><path d="m687.55 538.76c-.02-.05-.06-.07-.1-.07h-.45c-.05 0-.07.02-.07.07v3.32h-1.65v-8.64h2.71c1.61 0 2.6 1.24 2.6 2.71 0 .8-.24 1.34-.77 1.87-.21.21-.44.32-.59.41-.01 0-.02.02 0 .06l1.98 3.59h-1.89zm-.62-1.61c0 .05.02.07.07.07h.99c.61 0 .97-.5.97-1.07 0-.56-.36-1.06-.97-1.06h-.99c-.05 0-.07.02-.07.07z" fill="#392c28"/><path d="m698.95 533.44h2.65c1.47 0 2.51 1.13 2.51 2.59s-1.04 2.65-2.51 2.65h-.94c-.05 0-.07.02-.07.07v3.33h-1.65zm1.64 3.52c0 .05.02.07.07.07h.94c.68 0 .86-.63.86-1 0-.36-.18-.94-.86-.94h-.94c-.05 0-.07.02-.07.07z" fill="#392c28"/><path d="m711.61 540.43v1.65h-4.54v-8.65h1.65v6.87c0 .09.05.14.14.14h2.75z" fill="#392c28"/><path d="m714.55 533.45h1.65v5.95c0 .68.68 1.09 1.23 1.09.61 0 1.18-.46 1.18-1.05v-5.99h1.65v6.18c0 1.47-1.36 2.51-2.82 2.51-1.47 0-2.88-1.04-2.88-2.51v-6.18z" fill="#392c28"/><path d="m729.85 533.44h2.2v8.64h-1.62v-5.68c0-.03-.03-.05-2.15 5.68h-1.26l-2.04-5.73v5.73h-1.69v-8.64h2.17l2.2 6.04z" fill="#392c28"/><path d="m735.08 542.08v-8.64h2.48c.05 0 .08 0 .1.01 1.28.09 2.21 1.09 2.21 2.33 0 .59-.18 1.11-.5 1.52.61.5 1 1.23 1 2.1 0 1.47-1.16 2.65-2.63 2.68zm2.36-7h-.64c-.05 0-.07.02-.07.07v1.59c0 .05.02.07.07.07h.71c.46-.03.78-.44.78-.89 0-.44-.35-.84-.85-.84zm.25 5.35c.59 0 1.04-.52 1.04-1.11 0-.6-.45-1.1-1.04-1.1h-.9c-.05 0-.07.02-.07.07v2.06c0 .05.02.07.07.07h.9z" fill="#392c28"/><path d="m745.03 540.36c0 .05.02.07.07.07h3.03v1.65h-4.75v-8.64h4.75v1.65h-3.03c-.05 0-.07.02-.07.07v1.69c0 .05.02.07.07.07h3.03v1.65h-3.03c-.05 0-.07.02-.07.07z" fill="#392c28"/><path d="m753.44 538.76c-.02-.05-.06-.07-.1-.07h-.44c-.05 0-.07.02-.07.07v3.32h-1.65v-8.64h2.71c1.61 0 2.6 1.24 2.6 2.71 0 .8-.24 1.34-.77 1.87-.21.21-.44.32-.59.41-.01 0-.02.02 0 .06l1.98 3.59h-1.89zm-.61-1.61c0 .05.02.07.07.07h.99c.61 0 .97-.5.97-1.07 0-.56-.36-1.06-.97-1.06h-.99c-.05 0-.07.02-.07.07z" fill="#392c28"/><path d="m189.7 566.14h56.08v72.31h-56.08z" fill="#fff9e1"/><path d="m195.12 574.31h8.7v11.65h-8.7z" fill="#ecc98e"/><path d="m228.4 574.87h11.26v13.82h-11.26z" fill="#d0b68a"/><path d="m217.14 573.24h10.24v11.86h-10.24z" fill="#ecc98e"/><path d="m208.82 581.4s-1.48-.07-1.97-.55-.77-.95-.77-.95l1.01-.63s.03.89 0-.39c-.03-1.29.12-1.97.27-2.02s-.13-.53 1.08-.42c1.2.11 1.55-.58 1.82-.68.26-.11.32-.26.87-.26s1.7.16 2.03.63.93 1.58 1.15 1.79.38 2 .38 2l-.16.53-3.12 1.21z" fill="#fff9e1"/><path d="m212.95 588.36.69-4.69s-.44-.68-1.48-.68-1.91 0-1.91 0l-2.25.21s-1.1-.26-.88.79.77 3.31.77 3.31l.88 1.58z" fill="#fae2b4"/><path d="m232.16 584.21s-1.52-.69-1.79-1.89 0-1.81 0-1.81l.84-.34.96-1.63s.27-.34 1.08-.34 2.24.34 2.24.34l.72 1.12v1.03h1.25s.29 1.98-.9 2.49-2.06 1.03-2.06 1.03z" fill="#fff9e1"/><path d="m238.61 588.69-4.03-3.1s.54-.17.72-1.2 0-2.67 0-2.67-.99-.43-1.79-.43-1.34.43-1.34.43v2.49s.18 1.12.54 1.29-3.67 3.18-3.67 3.18h9.57z" fill="#fae2b4"/><path d="m197.97 581.91s-1.38-.62-1.63-1.72c-.24-1.09 0-1.64 0-1.64l.76-.31.87-1.48s.24-.31.98-.31 2.03.31 2.03.31l.65 1.01v.94h1.14s.26 1.8-.81 2.26-1.87.94-1.87.94z" fill="#392c28"/><path d="m203.82 585.97-3.66-2.81s.49-.16.65-1.09c.16-.94 0-2.42 0-2.42s-.89-.39-1.63-.39-1.22.39-1.22.39v2.26s.16 1.01.49 1.17-3.33 2.89-3.33 2.89z" fill="#d0b68a"/><path d="m212.81 590.58c0-.16.33-4.05.33-4.05s-.77-1.1-1.75-.32c-.99.79-1.26 1.1-1.26 1.1s-.99-1-1.48-1.1c-.49-.11-.82-.21-1.15.16s0 1.42 0 1.42l.16 2.79z" fill="#392c28"/><path d="m212.05 587.01.76-3.92-.65-.1-.77 4.02z" fill="#392c28"/><path d="m208.6 586.74-1.04-3.56h.82l.93 3.83z" fill="#392c28"/><path d="m210.95 583.18s.49-.22.77-.83c.27-.6.38-.92.38-.92l-.57-3.47s-.41-.32-.79-.26-1.42.21-1.42.21-1.04.05-.88.63 0 1.89 0 1.89.6 1.63.88 1.92c.27.29.6.83.6.83z" fill="#fae2b4"/><path d="m222.32 585.09h-2.66v-3.92l3.4-2.84 1.91 2.11-1.09.26-.55 1.66-1.01.23z" fill="#fff9e1"/><path d="m218.89 580.8.77.58 3.4-3.05h1.04v-1.26h-1.32z" fill="#392c28"/><path d="m218.89 580.8 3.89-3.73-1.53-.73-2.36 2.63-.76 1.2z" fill="#fff9e1"/><path d="m218.13 580.17.76-1.2 2.36-2.63v-1.11l-1.32-.36-1.04 1.68-1.26.52-.49.45v2.65h.71" fill="#392c28"/><path d="m223.55 605.03-2.3-8.83-2.36 1.26.3-2.73-2.54 2.52-3.84 5.78 2.85 4.21.99-1.79 2.24-.21-1.75-1.43 1.04-3.14 2.27 5.2z" fill="#392c28"/><path d="m209.31 612.91v13.04h5.15l.98 2.42h-1.8v1.57l-8.93-.63v-16.4z" fill="#df4142"/><path d="m204.71 629.31-3.07-17.03-6.52-.42-2.02 17.45 3.13.63 1.91-13.14.76.21 1.21 13.77z" fill="#df4142"/><path d="m200.65 625.42-5.03-1.15v-1.48h5.03z" fill="#df4142"/><path d="m218.89 629.94h2.6l-.24-5.83h5.04v-2.79l-4.8-.52-.24-4 5.58-.52v-2.84h-3.28l-6.41 2.42z" fill="#df4142"/><path d="m228.4 613.44v17.34h2.71v-17.87z" fill="#df4142"/><path d="m233.19 612.91v17.03h8.43v-3.78h-4.71l.5-2.52h3.01l.22-3.58h-3.23v-2.84l4.21-.1-.65-4.21h-3.5l-.89 1.43h-1.31z" fill="#df4142"/><path d="m218.18 630.78-2.73-14.61 8.11-2.73s3.23.31 4.85 0 4.79-1.58 4.79-1.58v-3.73l-2.08-3.1-.86-4.73 2.94.74 2.19 2.79v4.77l4.27 1.08-1.04-9.39-11.06-7.46h-3.45l1.75 14.4-6.19-1.46.79 2.35-.79 2.47h-3.51l.99-3.1-2.7-2.06-2.34.95.71 5.67-2.43 2.28 2.43 6.98-4.39 4.1 5.22-1.31 1.04 4.26-4.3 4.52s1.23 1.26 2.77.79c1.53-.47 2.3-2.05 2.3-2.05l1.7.47z" fill="#392c28"/><path d="m216 606.63 1.14.87-.99 3.1h3.51l.79-2.47-.79-2.35-1.48-.47-1.53.14z" fill="#fae2b4"/><path d="m236.18 608.81-2.99 4.1 2.08 1.43h1.31l.89-1.43 1.14-3.49z" fill="#fae2b4"/><path d="m219.19 594.73h2.06l1.53-1.89.77-1.89-.77-2.26h-.79l-.74 1.1-1.59-1.53-2.52.43v1.89l-.6 2.26h1.59z" fill="#fae2b4"/><path d="m216.54 588.69 3.12-.43 1.59 1.53.74-1.1h.79l.77 2.26.55-.74-.55-3.2-2.3-1.04-3.12.46-2.13.58z" fill="#ecc98e"/><path d="m173.7 600.51h75.4v4.55h-75.4z" fill="#b0d3f1"/><path d="m245.79 638.87h-56.09c-.23 0-.41-.18-.41-.41s.18-.41.41-.41h56.08c.23 0 .41.18.41.41s-.18.41-.4.41z" fill="#392c28"/><path d="m844.37 520.05c0-5.35-4.34-9.69-9.69-9.69-4.08 0-7.56 2.52-8.99 6.09l-15.84-3.12c-.05-.01-1.31-.28-2.33.54-.82.65-1.23 1.77-1.23 3.31v25.3c-.01.07-.18 1.85.9 2.8.43.39.99.58 1.64.58.29 0 .6-.04.92-.11l25.45-4.66c.95-.21 2.74-1.2 2.74-3.49v-8.43c3.75-1.35 6.43-4.92 6.43-9.12zm-7.57 17.54c0 1.93-1.77 2.37-1.83 2.38l-25.45 4.66c-.71.16-1.24.09-1.57-.2-.53-.47-.56-1.49-.52-1.9v-25.36c0-1.18.27-1.99.79-2.42.36-.29.78-.35 1.07-.35.19 0 .32.03.33.03l15.72 3.08c-.22.81-.34 1.65-.34 2.53 0 1.52.36 2.95.98 4.23l-3.67.75.02-.05s-.57-.43-1.15-.43-4.66-2.44-4.66-2.44l-2.65-1.86s-1.15-.36-1.65-.36 1-.07 1-.5 0-.75 0-.75l.43-.18-.64-.64.21-.5-.29-.86s-1.79-.72-2.36 0 0 2.22 0 2.22l.07 1.29s-.94 1.72-.33 3.15 2.69 3.87 2.69 3.87-1.36 1.29-1.22 1.93.86 1.86.86 1.86l-.86 2.08v1.36l-1.68 3.08-1.19 5.23h3.44l-1.93-1.22 4.51-8.74 1.65 1.65 2.51 5.52-.14 1.29 3.8-.29v-.64l-2.22-.29-4.69-11.32-.32-3.01 3.22-.36 2.22.07.86.72 4.48-1.02c1.68 2.89 4.8 4.84 8.38 4.84.73 0 1.44-.09 2.12-.24z" fill="#fff"/><path d="m222.49 520.05c0-5.35-4.34-9.69-9.69-9.69-4.08 0-7.56 2.52-8.99 6.09l-15.84-3.12c-.05-.01-1.31-.28-2.33.54-.82.65-1.23 1.77-1.23 3.31v25.3c-.01.07-.18 1.85.9 2.8.43.39.99.58 1.64.58.29 0 .6-.04.92-.11l25.45-4.66c.95-.21 2.74-1.2 2.74-3.49v-8.43c3.74-1.35 6.43-4.92 6.43-9.12zm-7.57 17.54c0 1.93-1.77 2.37-1.83 2.38l-25.45 4.66c-.71.16-1.24.09-1.57-.2-.53-.47-.56-1.49-.52-1.9v-25.36c0-1.18.27-1.99.79-2.42.36-.29.78-.35 1.07-.35.19 0 .32.03.33.03l15.72 3.08c-.22.81-.34 1.65-.34 2.53 0 1.52.36 2.95.98 4.23l-3.67.75.02-.05s-.57-.43-1.15-.43c-.57 0-4.66-2.44-4.66-2.44l-2.65-1.86s-1.15-.36-1.65-.36 1-.07 1-.5 0-.75 0-.75l.43-.18-.64-.64.21-.5-.29-.86s-1.79-.72-2.36 0 0 2.22 0 2.22l.07 1.29s-.94 1.72-.33 3.15 2.69 3.87 2.69 3.87-1.36 1.29-1.22 1.93.86 1.86.86 1.86l-.86 2.08v1.36l-1.68 3.08-1.19 5.23h3.44l-1.93-1.22 4.51-8.74 1.65 1.65 2.51 5.52-.14 1.29 3.8-.29v-.64l-2.22-.29-4.69-11.32-.32-3.01 3.22-.36 2.22.07.86.72 4.48-1.02c1.68 2.89 4.8 4.84 8.38 4.84.73 0 1.44-.09 2.12-.24z" fill="#fff"/><path d="m391.4 559.9h109.88v40.62h-109.88z" fill="#392c28"/><path d="m501.28 600.82h-109.88c-.17 0-.31-.14-.31-.31v-40.61c0-.17.14-.31.31-.31h109.88c.17 0 .31.14.31.31v40.62c0 .16-.14.3-.31.3zm-109.57-.62h109.26v-40h-109.26z" fill="#392c28"/><path d="m391.4 605.06h71.13v37.33h-71.13z" fill="#392c28"/><path d="m462.53 642.7h-71.13c-.17 0-.31-.14-.31-.31v-37.33c0-.17.14-.31.31-.31h71.13c.17 0 .31.14.31.31v37.33c0 .17-.14.31-.31.31zm-70.82-.62h70.51v-36.71h-70.51z" fill="#392c28"/><path d="m466.48 605.06h34.8v37.33h-34.8z" fill="#392c28"/><path d="m501.28 642.7h-34.8c-.17 0-.31-.14-.31-.31v-37.33c0-.17.14-.31.31-.31h34.8c.17 0 .31.14.31.31v37.33c0 .17-.14.31-.31.31zm-34.49-.62h34.18v-36.71h-34.18z" fill="#392c28"/><path d="m507.7 605.06h58.18v37.33h-58.18z" fill="#392c28"/><path d="m565.89 642.7h-58.19c-.17 0-.31-.14-.31-.31v-37.33c0-.17.14-.31.31-.31h58.18c.17 0 .31.14.31.31v37.33c.01.17-.13.31-.3.31zm-57.88-.62h57.57v-36.71h-57.57z" fill="#392c28"/><path d="m569.9 605.06h79.32v37.33h-79.32z" fill="#392c28"/><path d="m649.22 642.7h-79.32c-.17 0-.31-.14-.31-.31v-37.33c0-.17.14-.31.31-.31h79.32c.17 0 .31.14.31.31v37.33c0 .17-.14.31-.31.31zm-79.02-.62h78.71v-36.71h-78.71z" fill="#392c28"/><path d="m507.7 559.9h141.52v40.62h-141.52z" fill="#392c28"/><path d="m649.22 600.82h-141.52c-.17 0-.31-.14-.31-.31v-40.61c0-.17.14-.31.31-.31h141.52c.17 0 .31.14.31.31v40.62c0 .16-.14.3-.31.3zm-141.21-.62h140.9v-40h-140.9z" fill="#392c28"/><path d="m712.35 559.9h123.74v40.62h-123.74z" fill="#392c28"/><path d="m836.09 600.82h-123.74c-.17 0-.31-.14-.31-.31v-40.61c0-.17.14-.31.31-.31h123.74c.17 0 .31.14.31.31v40.62c0 .16-.14.3-.31.3zm-123.43-.62h123.13v-40h-123.13z" fill="#392c28"/><path d="m712.35 605.06h62.67v37.33h-62.67z" fill="#392c28"/><path d="m775.01 642.7h-62.67c-.17 0-.31-.14-.31-.31v-37.33c0-.17.14-.31.31-.31h62.67c.17 0 .31.14.31.31v37.33c0 .17-.13.31-.31.31zm-62.35-.62h62.05v-36.71h-62.05z" fill="#392c28"/><path d="m779.34 604.6h56.75v37.79h-56.75z" fill="#392c28"/><path d="m836.09 642.7h-56.75c-.17 0-.31-.14-.31-.31v-37.79c0-.17.14-.31.31-.31h56.75c.17 0 .31.14.31.31v37.79c0 .17-.14.31-.31.31zm-56.44-.62h56.13v-37.17h-56.13z" fill="#392c28"/><path d="m361.79 476.7h-35.07c-.11 0-.22-.04-.29-.12l-15.22-15.44c-.08-.08-.12-.18-.12-.29v-34.52c0-.11.04-.21.12-.29l15.22-15.44c.08-.08.18-.12.29-.12h35.07c.11 0 .22.04.29.12l15.22 15.44c.08.08.12.18.12.29v34.52c0 .11-.04.21-.12.29l-15.22 15.44c-.07.07-.18.12-.29.12zm-34.89-.82h34.72l14.98-15.2v-34.18l-14.98-15.2h-34.72l-14.98 15.2v34.18zm30.76-18.48h-26.8c-.23 0-.41-.18-.41-.41v-26.8c0-.23.18-.41.41-.41h26.8c.23 0 .41.18.41.41v26.8c0 .22-.19.41-.41.41zm-26.39-.83h25.97v-25.97h-25.97z" fill="#392c28"/><path d="m304.93 426.74c-.1 0-.21-.04-.29-.12-.16-.16-.16-.42 0-.58l15.22-15.44c.08-.08.18-.12.29-.12h6.58c.23 0 .41.18.41.41s-.18.41-.41.41h-6.4l-15.1 15.32c-.09.07-.19.12-.3.12z" fill="#392c28"/><path d="m326.72 476.7h-6.58c-.11 0-.22-.04-.29-.12l-15.22-15.44c-.16-.16-.16-.42 0-.58s.42-.16.58 0l15.1 15.32h6.4c.23 0 .41.18.41.41.02.22-.17.41-.4.41z" fill="#392c28"/><path d="m351.08 457.4c-.23 0-.41-.18-.41-.41v-26.8c0-.23.18-.41.41-.41s.41.18.41.41v26.8c0 .22-.18.41-.41.41z" fill="#392c28"/><path d="m597.93 476.7h-35.07c-.11 0-.22-.04-.29-.12l-15.22-15.44c-.08-.08-.12-.18-.12-.29v-34.52c0-.11.04-.21.12-.29l15.22-15.44c.08-.08.18-.12.29-.12h35.07c.11 0 .22.04.29.12l15.22 15.44c.08.08.12.18.12.29v34.52c0 .11-.04.21-.12.29l-15.22 15.44c-.07.07-.18.12-.29.12zm-34.89-.82h34.72l14.98-15.2v-34.18l-14.98-15.2h-34.72l-14.98 15.2v34.18zm30.76-18.48h-26.8c-.23 0-.41-.18-.41-.41v-26.8c0-.23.18-.41.41-.41h26.8c.23 0 .41.18.41.41v26.8c0 .22-.18.41-.41.41zm-26.39-.83h25.97v-25.97h-25.97z" fill="#392c28"/><path d="m587.22 457.4c-.23 0-.41-.18-.41-.41v-26.8c0-.23.18-.41.41-.41s.41.18.41.41v26.8c0 .22-.18.41-.41.41z" fill="#392c28"/><path d="m441.73 476.7h-46.88c-.23 0-.41-.18-.41-.41v-65.41c0-.23.18-.41.41-.41h46.88c.11 0 .21.04.29.12l12.72 12.72c.08.08.12.18.12.29v39.97c0 .11-.04.21-.12.29l-12.72 12.72c-.07.08-.18.12-.29.12zm-46.46-.82h46.3l12.48-12.48v-39.63l-12.48-12.48h-46.3zm41.42-18.48h-26.8c-.23 0-.41-.18-.41-.41v-26.8c0-.23.18-.41.41-.41h26.8c.23 0 .41.18.41.41v26.8c0 .22-.18.41-.41.41zm-26.39-.83h25.97v-25.97h-25.97z" fill="#392c28"/><path d="m431.43 457.4c-.23 0-.41-.18-.41-.41v-26.8c0-.23.18-.41.41-.41s.41.18.41.41v26.8c0 .22-.18.41-.41.41z" fill="#392c28"/><path d="m394.86 476.7h-5.26c-.23 0-.41-.18-.41-.41v-65.41c0-.23.18-.41.41-.41h5.26c.23 0 .41.18.41.41s-.18.41-.41.41h-4.85v64.58h4.85c.23 0 .41.18.41.41s-.19.42-.41.42z" fill="#392c28"/><path d="m518.49 476.7h-46.88c-.23 0-.41-.18-.41-.41v-65.41c0-.23.18-.41.41-.41h46.88c.11 0 .21.04.29.12l12.72 12.72c.12.12.15.3.09.45s-.21.25-.38.25h-40.56v10.66l40.56-.34c.11.02.22.04.29.12.08.08.12.18.12.29v16.36c0 .11-.04.21-.12.29s-.19.1-.29.12l-40.56-.34v11.98h40.56c.17 0 .32.1.38.25s.03.33-.09.45l-12.72 12.72c-.07.09-.18.13-.29.13zm-46.46-.82h46.3l11.89-11.89h-39.98c-.23 0-.41-.18-.41-.41v-12.8c0-.11.04-.21.12-.29s.19-.09.29-.12l40.56.34v-15.53l-40.56.34c-.11-.03-.22-.04-.29-.12-.08-.08-.12-.18-.12-.29v-11.51c0-.23.18-.41.41-.41h39.98l-11.89-11.89h-46.3z" fill="#392c28"/><path d="m471.62 476.7h-6.58c-.23 0-.41-.18-.41-.41v-65.41c0-.23.18-.41.41-.41h6.58c.23 0 .41.18.41.41s-.18.41-.41.41h-6.16v64.58h6.16c.23 0 .41.18.41.41s-.19.42-.41.42z" fill="#392c28"/><path d="m689.68 476.7h-15.44c-.13 0-.26-.07-.34-.18l-32.86-47.07v46.84c0 .23-.18.41-.41.41h-14.58c-.23 0-.41-.18-.41-.41v-65.41c0-.23.18-.41.41-.41h19.12c.13 0 .25.06.33.16l29.6 38.46v-38.21c0-.23.18-.41.41-.41h14.18c.23 0 .41.18.41.41v65.41c0 .22-.19.41-.42.41zm-15.22-.82h14.82v-64.58h-13.35v39.01c0 .18-.11.33-.28.39s-.35 0-.46-.14l-30.21-39.26h-18.51v64.58h13.76v-47.73c0-.18.12-.34.29-.39s.36.01.46.16z" fill="#392c28"/><path d="m670.39 444.06c-.23 0-.41-.18-.41-.41v-32.77c0-.23.18-.41.41-.41h5.12c.23 0 .41.18.41.41s-.18.41-.41.41h-4.71v32.36c0 .23-.18.41-.41.41z" fill="#392c28"/><path d="m674.24 476.7h-6.58c-.13 0-.26-.07-.34-.18l-27.03-38.73c-.13-.19-.08-.44.1-.57.19-.13.44-.09.57.1l26.91 38.55h6.36c.23 0 .41.18.41.41.01.23-.17.42-.4.42z" fill="#392c28"/><path d="m626.05 476.7h-5.26c-.23 0-.41-.18-.41-.41v-65.41c0-.23.18-.41.41-.41h5.26c.23 0 .41.18.41.41s-.18.41-.41.41h-4.85v64.58h4.85c.23 0 .41.18.41.41s-.18.42-.41.42z" fill="#392c28"/><path d="m540.18 426.74c-.1 0-.21-.04-.29-.12-.16-.16-.16-.42 0-.58l15.22-15.44c.08-.08.18-.12.29-.12h7.47c.23 0 .41.18.41.41s-.18.41-.41.41h-7.29l-15.09 15.32c-.09.07-.2.12-.31.12z" fill="#392c28"/><path d="m844.98 507.58h-720.83c-.23 0-.41-.18-.41-.41v-227.38c0-.23.18-.41.41-.41h720.83c.23 0 .41.18.41.41v227.38c0 .23-.19.41-.41.41zm-720.42-.82h720.01v-226.56h-720.01z" fill="#392c28"/><path d="m129.41 507.58c-.23 0-.41-.18-.41-.41v-227.38c0-.23.18-.41.41-.41s.41.18.41.41v227.38c0 .23-.19.41-.41.41z" fill="#392c28"/><path d="m891.52 653.48h-643.49c-.23 0-.41-.18-.41-.41v-5.81c-32.94.32-138.07 1.24-139.42-.1-.08-.08-.13-.2-.13-.31v-352.07c0-.23.18-.41.41-.41h15.67c.23 0 .41.18.41.41s-.18.41-.41.41h-15.26v351.36c5.4.92 92.88.33 139.14-.12h.01 643.49c.23 0 .41.18.41.41v6.23c0 .23-.19.41-.42.41zm-643.08-.82h642.67v-5.4h-642.67z" fill="#392c28"/><path d="m883.89 647.25c-.23 0-.41-.18-.41-.41v-45.92h-631.09v45.92c0 .23-.18.41-.41.41s-.41-.18-.41-.41v-46.33c0-.23.18-.41.41-.41h631.91c.23 0 .41.18.41.41v46.33c0 .23-.18.41-.41.41z" fill="#392c28"/><path d="m356.94 647.25c-.23 0-.41-.18-.41-.41v-41.83h-98.58v41.83c0 .23-.18.41-.41.41s-.41-.18-.41-.41v-42.24c0-.23.18-.41.41-.41h99.4c.23 0 .41.18.41.41v42.24c0 .23-.18.41-.41.41z" fill="#392c28"/><path d="m462.53 647.25c-.23 0-.41-.18-.41-.41v-41.83h-100.46v41.83c0 .23-.18.41-.41.41s-.41-.18-.41-.41v-42.24c0-.23.18-.41.41-.41h101.29c.23 0 .41.18.41.41v42.24c-.01.23-.19.41-.42.41z" fill="#392c28"/><path d="m565.89 647.25c-.23 0-.41-.18-.41-.41v-41.83h-98.58v41.83c0 .23-.18.41-.41.41s-.41-.18-.41-.41v-42.24c0-.23.18-.41.41-.41h99.4c.23 0 .41.18.41.41v42.24c0 .23-.19.41-.41.41z" fill="#392c28"/><path d="m670.12 647.25c-.23 0-.41-.18-.41-.41v-41.83h-99.4v41.83c0 .23-.18.41-.41.41s-.41-.18-.41-.41v-42.24c0-.23.18-.41.41-.41h100.22c.23 0 .41.18.41.41v42.24c0 .23-.19.41-.41.41z" fill="#392c28"/><path d="m775.01 647.25c-.23 0-.41-.18-.41-.41v-41.83h-99.77v41.83c0 .23-.18.41-.41.41s-.41-.18-.41-.41v-42.24c0-.23.18-.41.41-.41h100.59c.23 0 .41.18.41.41v42.24c.01.23-.18.41-.41.41z" fill="#392c28"/><path d="m880.05 647.25c-.23 0-.41-.18-.41-.41v-41.83h-99.89v41.83c0 .23-.18.41-.41.41s-.41-.18-.41-.41v-42.24c0-.23.18-.41.41-.41h100.71c.23 0 .41.18.41.41v42.24c0 .23-.18.41-.41.41z" fill="#392c28"/><path d="m248.03 653.48h-139.55c-.23 0-.41-.18-.41-.41v-6.23c0-.23.18-.41.41-.41s.41.18.41.41v5.81h139.14c.23 0 .41.18.41.41s-.18.42-.41.42z" fill="#392c28"/><path d="m124.15 647.79c-.23 0-.41-.18-.41-.41v-140.2c0-.23.18-.41.41-.41s.41.18.41.41v140.2c0 .22-.19.41-.41.41z" fill="#392c28"/><path d="m871.28 555.04h-747.13c-.23 0-.41-.18-.41-.41s.18-.41.41-.41h746.73v-3.71h-746.73c-.23 0-.41-.18-.41-.41s.18-.41.41-.41h747.14c.23 0 .41.18.41.41v4.54c0 .22-.19.4-.42.4z" fill="#392c28"/><path d="m153.65 555.04c-.23 0-.41-.18-.41-.41v-47.46c0-.23.18-.41.41-.41s.41.18.41.41v47.46c0 .23-.18.41-.41.41z" fill="#392c28"/><path d="m871.28 550.51h-26.31c-.23 0-.41-.18-.41-.41s.18-.41.41-.41h25.89v-42.1h-25.89c-.23 0-.41-.18-.41-.41s.18-.41.41-.41h26.31c.23 0 .41.18.41.41v42.92c.01.22-.18.41-.41.41z" fill="#392c28"/><path d="m252.8 550.51c-.23 0-.41-.18-.41-.41v-42.92c0-.23.18-.41.41-.41s.41.18.41.41v42.92c0 .22-.18.41-.41.41z" fill="#392c28"/><path d="m248.03 550.51c-.23 0-.41-.18-.41-.41v-42.92c0-.23.18-.41.41-.41s.41.18.41.41v42.92c0 .22-.18.41-.41.41z" fill="#392c28"/><path d="m844.98 600.93c-.23 0-.41-.18-.41-.41v-45.88c0-.23.18-.41.41-.41s.41.18.41.41v45.88c0 .22-.19.41-.41.41z" fill="#392c28"/><path d="m385.77 647.25c-.23 0-.41-.18-.41-.41v-42.24c0-.23.18-.41.41-.41s.41.18.41.41v42.24c0 .23-.18.41-.41.41z" fill="#392c28"/><path d="m385.77 600.93c-.23 0-.41-.18-.41-.41v-45.88c0-.23.18-.41.41-.41s.41.18.41.41v45.88c0 .22-.18.41-.41.41z" fill="#392c28"/><path d="m655.57 600.93c-.23 0-.41-.18-.41-.41v-45.88c0-.23.18-.41.41-.41s.41.18.41.41v45.88c0 .22-.18.41-.41.41z" fill="#392c28"/><path d="m655.57 647.25c-.23 0-.41-.18-.41-.41v-41.78c0-.23.18-.41.41-.41s.41.18.41.41v41.78c0 .23-.18.41-.41.41z" fill="#392c28"/><path d="m707.69 646.81c-.23 0-.41-.18-.41-.41v-41.33c0-.23.18-.41.41-.41s.41.18.41.41v41.33c0 .22-.18.41-.41.41z" fill="#392c28"/><path d="m707.69 600.93c-.23 0-.41-.18-.41-.41v-45.88c0-.23.18-.41.41-.41s.41.18.41.41v45.88c0 .22-.18.41-.41.41z" fill="#392c28"/><path d="m844.98 646.81c-.23 0-.41-.18-.41-.41v-41.33c0-.23.18-.41.41-.41s.41.18.41.41v41.33c0 .22-.19.41-.41.41z" fill="#392c28"/><path d="m132.69 647.25c-.23 0-.41-.18-.41-.41v-46.33c0-.23.18-.41.41-.41h120.11c.23 0 .41.18.41.41s-.18.41-.41.41h-119.7v45.92c0 .23-.18.41-.41.41z" fill="#392c28"/><path d="m137.77 646.81c-.23 0-.41-.18-.41-.41v-41.33c0-.23.18-.41.41-.41h114.21c.23 0 .41.18.41.41s-.18.41-.41.41h-113.8v40.92c0 .22-.18.41-.41.41z" fill="#392c28"/><path d="m844.98 658.42c-.23 0-.41-.18-.41-.41v-4.94c0-.23.18-.41.41-.41s.41.18.41.41v4.94c0 .23-.19.41-.41.41z" fill="#392c28"/><path d="m844.98 704.41c-.23 0-.41-.18-.41-.41v-11.5c0-.23.18-.41.41-.41s.41.18.41.41v11.5c0 .23-.19.41-.41.41zm0-22.99c-.23 0-.41-.18-.41-.41v-11.5c0-.23.18-.41.41-.41s.41.18.41.41v11.5c0 .22-.19.41-.41.41z" fill="#392c28"/><path d="m844.98 720.85c-.23 0-.41-.18-.41-.41v-4.94c0-.23.18-.41.41-.41s.41.18.41.41v4.94c0 .23-.19.41-.41.41z" fill="#392c28"/><path d="m108.48 658.42c-.23 0-.41-.18-.41-.41v-4.94c0-.23.18-.41.41-.41s.41.18.41.41v4.94c0 .23-.19.41-.41.41z" fill="#392c28"/><path d="m108.48 704.41c-.23 0-.41-.18-.41-.41v-11.5c0-.23.18-.41.41-.41s.41.18.41.41v11.5c0 .23-.19.41-.41.41zm0-22.99c-.23 0-.41-.18-.41-.41v-11.5c0-.23.18-.41.41-.41s.41.18.41.41v11.5c0 .22-.19.41-.41.41z" fill="#392c28"/><path d="m108.48 720.85c-.23 0-.41-.18-.41-.41v-4.94c0-.23.18-.41.41-.41s.41.18.41.41v4.94c0 .23-.19.41-.41.41z" fill="#392c28"/><path d="m311.51 461.26h-6.58c-.23 0-.41-.18-.41-.41v-34.52c0-.23.18-.41.41-.41h6.58c.23 0 .41.18.41.41s-.18.41-.41.41h-6.16v33.7h6.16c.23 0 .41.18.41.41s-.19.41-.41.41z" fill="#392c28"/><path d="m776.53 550.51c-.23 0-.41-.18-.41-.41v-42.92c0-.23.18-.41.41-.41s.41.18.41.41v42.92c0 .22-.18.41-.41.41z" fill="#392c28"/><path d="m771.98 550.51c-.23 0-.41-.18-.41-.41v-42.92c0-.23.18-.41.41-.41s.41.18.41.41v42.92c0 .22-.18.41-.41.41z" fill="#392c28"/><path d="m562.87 476.7h-7.47c-.11 0-.22-.04-.29-.12l-15.22-15.44c-.12-.12-.15-.29-.09-.45.06-.15.21-.25.38-.25h7.47c.23 0 .41.18.41.41s-.18.41-.41.41h-6.48l14.4 14.62h7.29c.23 0 .41.18.41.41.01.22-.18.41-.4.41z" fill="#392c28"/><path d="m540.18 461.26c-.23 0-.41-.18-.41-.41v-34.52c0-.23.18-.41.41-.41h7.47c.23 0 .41.18.41.41s-.18.41-.41.41h-7.05v34.11c0 .22-.19.41-.42.41z" fill="#392c28"/><path d="m337.91 612.65h-17.76c-.23 0-.41-.18-.41-.41s.18-.41.41-.41h17.76c.23 0 .41.18.41.41s-.19.41-.41.41z" fill="#392c28"/></svg>