<svg enable-background="new 0 0 1000 1000" viewBox="0 0 1000 1000" xmlns="http://www.w3.org/2000/svg"><style>path {vector-effect: non-scaling-stroke;}</style><path d="m501 430.3c-.67-.02-1.33-.02-2.01-.02" fill="#fff9e1"/><path d="m479.13 373.01-.05-.08" fill="#fff9e1"/><path d="m510.18 364.78-.04-.12" fill="#fff9e1"/><path d="m570.46 357.94c-.08-.01-.16-.01-.24-.01" fill="#fff9e1"/><path d="m570.46 371.39c-.09.01-.18.01-.27.01" fill="#fff9e1"/><path d="m668.86 714.84v18.19h-337.71v-18.19l2.99-5.48v-402.17h48.34l125.57-40.22 112.41 40.3 10.13-.03 28.67-.05h6.61v402.17z" fill="#fff9e1"/><path d="m594.31 629.62v63.06h24.35v-63.06zm18.03 59.92h-15.12v-56.97h15.12z" fill="#b0d3f1"/><path d="m391.54 609.7h194.81v115.08h-191.82v-10.15l-2.99-5.27z" fill="#e87934"/><path d="m401.75 581.54h199.43v-25.07h-199.43zm6.87-22.39h188.97v19.33h-188.97z" fill="#ab8e62"/><path d="m431.95 372.12c-.79 0-2.54-.49-2.54-3.33h-6.2v.79c0 3.14 1.75 7.76 8.81 7.76 6.47 0 8.51-3.93 8.51-7.49 0-2.84-1.16-4.95-5.71-7-4.39-1.98-5.05-2.28-5.05-3.73 0-1.16 1.06-1.91 2.14-1.91 1.91 0 2.11 1.55 2.24 2.38h6.17c-.06-1.39-.16-3.04-1.62-4.82-1.58-1.88-4.19-2.77-6.6-2.77-4.09 0-8.55 2.61-8.55 7.19 0 4.59 4.26 6.3 5.97 7 3.76 1.58 4.78 1.98 4.78 3.6.03 1.11-.86 2.33-2.35 2.33z" fill="#e87934"/><path d="m459.27 376.87v-18.94h4.79v-5.48h-15.84v5.48h4.82v18.94z" fill="#e87934"/><path d="m479.13 368.98h.07l5.64 7.89h7.13l-6.63-8.32c4.62-.76 6.07-4.88 6.07-7.69 0-2.51-.99-5.08-3-6.67-1.58-1.22-3.23-1.75-7.52-1.75h-7.72v24.42h5.97v-7.88zm0-11.05h2.28c2.41 0 4.03 1.09 4.03 3.3 0 1.19-.43 3.5-4.09 3.5h-2.21v-6.8z" fill="#e87934"/><path d="m507.38 373.34h8.48l1.19 3.53h6.77l-9.7-24.42h-4.92l-9.8 24.42h6.7zm4.22-13.3h.07.03l2.51 8.35h-5.12z" fill="#e87934"/><path d="m538.72 362.05.07-.03 9.3 14.85h5.42v-24.42h-5.98l.27 15.28-.07.07-9.44-15.35h-5.38v24.42h5.98z" fill="#e87934"/><path d="m564.23 352.45v24.42h8.55c9.27 0 12.57-5.61 12.57-12.28 0-2.67-.56-5.28-2.24-7.59-3.17-4.55-8.05-4.55-10.79-4.55zm13.69 7.72c.89 1.39 1.19 3.14 1.19 4.52 0 3.47-1.32 6.7-5.97 6.7h-2.67v-13.47h2.71c2.76.01 4.02 1.16 4.74 2.25z" fill="#e87934"/><path d="m586.35 610.08h3.61v114.7h-3.61z" fill="#d0b68a"/><path d="m331.14 721.19h63.38v11.83h-63.38z" fill="#d0b68a"/><path d="m620.51 721.19h48.35v11.83h-48.35z" fill="#d0b68a"/><path d="m394.17 725.42h210.43v7.61h-210.43z" fill="#d0b68a"/><path d="m408.29 559.14h188.93v19.26h-188.93z" fill="#fff"/><path d="m597.22 632.57h15.12v56.97h-15.12z" fill="#fff"/><path d="m382.47 597.74h248.11v3.35h-248.11z" fill="#d0b68a"/><path d="m391.54 610.08h194.81v3.52h-194.81z" fill="#c35618"/><g fill="#392c28"><path d="m496.53 443.29c-45.06 0-81.6 38.17-81.6 85.25h163.19c.01-47.08-36.52-85.25-81.59-85.25zm68.48 60.1v16.09h-139.29v-15.85h26.23v-43.27c.37-.23.75-.44 1.07-.62.63-.36 1.31-.69 3.93-1.06v44.95h37.64v-56.57c1.99.04 3.01.06 5 .06v56.51h32.74v-47.69c1.99.51 2.99 1.05 4.02 1.51v46.18z"/><path d="m578.13 528.85h-163.19c-.17 0-.31-.14-.31-.31 0-47.18 36.74-85.56 81.91-85.56 45.16 0 81.91 38.38 81.91 85.56-.01.17-.15.31-.32.31zm-162.88-.62h162.57c-.16-46.69-36.56-84.63-81.29-84.63s-81.12 37.93-81.28 84.63zm149.76-8.44h-139.29c-.17 0-.31-.14-.31-.31v-15.85c0-.17.14-.31.31-.31h25.93v-42.96c0-.11.05-.21.14-.26.31-.19.62-.37.91-.53l.18-.1c.7-.39 1.44-.73 4.04-1.09.09-.01.18.01.25.07s.11.14.11.23v44.64h37.02v-56.26c0-.08.03-.16.09-.22s.15-.09.22-.09c1.99.04 3 .06 5 .06.17 0 .31.14.31.31v56.2h32.12v-47.38c0-.09.04-.18.12-.24s.17-.08.27-.06c1.67.42 2.65.88 3.52 1.28.19.09.37.17.55.25.11.05.18.16.18.28v45.86l28.34-.23c.08 0 .16.03.22.09s.09.14.09.22v16.09c-.02.17-.15.31-.32.31zm-138.98-.62h138.67v-15.47l-28.34.23c-.05.02-.16-.03-.22-.09s-.09-.14-.09-.22v-45.97c-.12-.06-.25-.11-.37-.17-.78-.36-1.65-.76-3.03-1.14v47.29c0 .17-.14.31-.31.31h-32.74c-.17 0-.31-.14-.31-.31v-56.2c-1.7 0-2.69-.02-4.38-.05v56.25c0 .17-.14.31-.31.31h-37.64c-.17 0-.31-.14-.31-.31v-44.6c-2.39.36-2.96.68-3.47.97l-.18.1c-.23.13-.48.27-.74.43v43.1c0 .17-.14.31-.31.31h-25.93v15.23z"/><path d="m546.64 670.27h12v21.9h-12z"/><path d="m558.65 692.48h-12c-.17 0-.31-.14-.31-.31v-21.9c0-.17.14-.31.31-.31h12c.17 0 .31.14.31.31v21.9c0 .17-.14.31-.31.31zm-11.7-.62h11.38v-21.28h-11.38z"/><path d="m562.8 670.27h12v21.9h-12z"/><path d="m574.8 692.48h-12c-.17 0-.31-.14-.31-.31v-21.9c0-.17.14-.31.31-.31h12c.17 0 .31.14.31.31v21.9c0 .17-.14.31-.31.31zm-11.69-.62h11.38v-21.28h-11.38z"/><path d="m546.64 644.06h12v21.9h-12z"/><path d="m558.65 666.27h-12c-.17 0-.31-.14-.31-.31v-21.9c0-.17.14-.31.31-.31h12c.17 0 .31.14.31.31v21.9c0 .17-.14.31-.31.31zm-11.7-.62h11.38v-21.28h-11.38z"/><path d="m562.8 644.06h12v21.9h-12z"/><path d="m574.8 666.27h-12c-.17 0-.31-.14-.31-.31v-21.9c0-.17.14-.31.31-.31h12c.17 0 .31.14.31.31v21.9c0 .17-.14.31-.31.31zm-11.69-.62h11.38v-21.28h-11.38z"/><path d="m546.64 617.61h12v21.9h-12z"/><path d="m558.65 639.82h-12c-.17 0-.31-.14-.31-.31v-21.9c0-.17.14-.31.31-.31h12c.17 0 .31.14.31.31v21.9c0 .17-.14.31-.31.31zm-11.7-.62h11.38v-21.28h-11.38z"/><path d="m562.8 617.61h12v21.9h-12z"/><path d="m574.8 639.82h-12c-.17 0-.31-.14-.31-.31v-21.9c0-.17.14-.31.31-.31h12c.17 0 .31.14.31.31v21.9c0 .17-.14.31-.31.31zm-11.69-.62h11.38v-21.28h-11.38z"/><path d="m500.49 670.27h12v21.9h-12z"/><path d="m512.49 692.48h-12c-.17 0-.31-.14-.31-.31v-21.9c0-.17.14-.31.31-.31h12c.17 0 .31.14.31.31v21.9c0 .17-.14.31-.31.31zm-11.69-.62h11.38v-21.28h-11.38z"/><path d="m516.64 670.27h12v21.9h-12z"/><path d="m528.65 692.48h-12c-.17 0-.31-.14-.31-.31v-21.9c0-.17.14-.31.31-.31h12c.17 0 .31.14.31.31v21.9c-.01.17-.14.31-.31.31zm-11.7-.62h11.38v-21.28h-11.38z"/><path d="m500.49 644.06h12v21.9h-12z"/><path d="m512.49 666.27h-12c-.17 0-.31-.14-.31-.31v-21.9c0-.17.14-.31.31-.31h12c.17 0 .31.14.31.31v21.9c0 .17-.14.31-.31.31zm-11.69-.62h11.38v-21.28h-11.38z"/><path d="m516.64 644.06h12v21.9h-12z"/><path d="m528.65 666.27h-12c-.17 0-.31-.14-.31-.31v-21.9c0-.17.14-.31.31-.31h12c.17 0 .31.14.31.31v21.9c-.01.17-.14.31-.31.31zm-11.7-.62h11.38v-21.28h-11.38z"/><path d="m500.49 617.61h12v21.9h-12z"/><path d="m512.49 639.82h-12c-.17 0-.31-.14-.31-.31v-21.9c0-.17.14-.31.31-.31h12c.17 0 .31.14.31.31v21.9c0 .17-.14.31-.31.31zm-11.69-.62h11.38v-21.28h-11.38z"/><path d="m516.64 617.61h12v21.9h-12z"/><path d="m528.65 639.82h-12c-.17 0-.31-.14-.31-.31v-21.9c0-.17.14-.31.31-.31h12c.17 0 .31.14.31.31v21.9c-.01.17-.14.31-.31.31zm-11.7-.62h11.38v-21.28h-11.38z"/><path d="m453.36 670.27h12v21.9h-12z"/><path d="m465.36 692.48h-12c-.17 0-.31-.14-.31-.31v-21.9c0-.17.14-.31.31-.31h12c.17 0 .31.14.31.31v21.9c0 .17-.14.31-.31.31zm-11.7-.62h11.38v-21.28h-11.38z"/><path d="m469.51 670.27h12v21.9h-12z"/><path d="m481.51 692.48h-12c-.17 0-.31-.14-.31-.31v-21.9c0-.17.14-.31.31-.31h12c.17 0 .31.14.31.31v21.9c0 .17-.14.31-.31.31zm-11.69-.62h11.38v-21.28h-11.38z"/><path d="m453.36 644.06h12v21.9h-12z"/><path d="m465.36 666.27h-12c-.17 0-.31-.14-.31-.31v-21.9c0-.17.14-.31.31-.31h12c.17 0 .31.14.31.31v21.9c0 .17-.14.31-.31.31zm-11.7-.62h11.38v-21.28h-11.38z"/><path d="m469.51 644.06h12v21.9h-12z"/><path d="m481.51 666.27h-12c-.17 0-.31-.14-.31-.31v-21.9c0-.17.14-.31.31-.31h12c.17 0 .31.14.31.31v21.9c0 .17-.14.31-.31.31zm-11.69-.62h11.38v-21.28h-11.38z"/><path d="m453.36 617.61h12v21.9h-12z"/><path d="m465.36 639.82h-12c-.17 0-.31-.14-.31-.31v-21.9c0-.17.14-.31.31-.31h12c.17 0 .31.14.31.31v21.9c0 .17-.14.31-.31.31zm-11.7-.62h11.38v-21.28h-11.38z"/><path d="m469.51 617.61h12v21.9h-12z"/><path d="m481.51 639.82h-12c-.17 0-.31-.14-.31-.31v-21.9c0-.17.14-.31.31-.31h12c.17 0 .31.14.31.31v21.9c0 .17-.14.31-.31.31zm-11.69-.62h11.38v-21.28h-11.38z"/><path d="m402.29 670.27h12v21.9h-12z"/><path d="m414.29 692.48h-12c-.17 0-.31-.14-.31-.31v-21.9c0-.17.14-.31.31-.31h12c.17 0 .31.14.31.31v21.9c0 .17-.14.31-.31.31zm-11.69-.62h11.38v-21.28h-11.38z"/><path d="m418.45 670.27h12v21.9h-12z"/><path d="m430.45 692.48h-12c-.17 0-.31-.14-.31-.31v-21.9c0-.17.14-.31.31-.31h12c.17 0 .31.14.31.31v21.9c0 .17-.14.31-.31.31zm-11.7-.62h11.38v-21.28h-11.38z"/><path d="m402.29 644.06h12v21.9h-12z"/><path d="m414.29 666.27h-12c-.17 0-.31-.14-.31-.31v-21.9c0-.17.14-.31.31-.31h12c.17 0 .31.14.31.31v21.9c0 .17-.14.31-.31.31zm-11.69-.62h11.38v-21.28h-11.38z"/><path d="m418.45 644.06h12v21.9h-12z"/><path d="m430.45 666.27h-12c-.17 0-.31-.14-.31-.31v-21.9c0-.17.14-.31.31-.31h12c.17 0 .31.14.31.31v21.9c0 .17-.14.31-.31.31zm-11.7-.62h11.38v-21.28h-11.38z"/><path d="m402.29 617.61h12v21.9h-12z"/><path d="m414.29 639.82h-12c-.17 0-.31-.14-.31-.31v-21.9c0-.17.14-.31.31-.31h12c.17 0 .31.14.31.31v21.9c0 .17-.14.31-.31.31zm-11.69-.62h11.38v-21.28h-11.38z"/><path d="m418.45 617.61h12v21.9h-12z"/><path d="m430.45 639.82h-12c-.17 0-.31-.14-.31-.31v-21.9c0-.17.14-.31.31-.31h12c.17 0 .31.14.31.31v21.9c0 .17-.14.31-.31.31zm-11.7-.62h11.38v-21.28h-11.38z"/><path d="m601.18 541.43c-.23 0-.41-.18-.41-.41 0-60.84-43.82-110.33-97.68-110.33s-97.68 49.49-97.68 110.33c0 .23-.18.41-.41.41s-.41-.18-.41-.41c0-61.29 44.19-111.15 98.5-111.15s98.5 49.86 98.5 111.15c0 .23-.18.41-.41.41z"/><path d="m592.97 541.43c-.23 0-.41-.18-.41-.41 0-60.84-41.97-110.33-93.57-110.33-.23 0-.41-.18-.41-.41s.18-.41.41-.41c52.05 0 94.39 49.86 94.39 111.15 0 .23-.19.41-.41.41z"/><path d="m586.35 725.19c-.23 0-.41-.18-.41-.41v-114.7c0-.23.18-.41.41-.41s.41.18.41.41v114.7c0 .23-.18.41-.41.41z"/><path d="m537.06 725.19c-.23 0-.41-.18-.41-.41v-114.7c0-.23.18-.41.41-.41s.41.18.41.41v114.7c0 .23-.19.41-.41.41z"/><path d="m490.5 725.19c-.23 0-.41-.18-.41-.41v-114.7c0-.23.18-.41.41-.41s.41.18.41.41v114.7c0 .23-.18.41-.41.41z"/><path d="m440.6 725.19c-.23 0-.41-.18-.41-.41v-114.7c0-.23.18-.41.41-.41s.41.18.41.41v114.7c0 .23-.18.41-.41.41z"/><path d="m606.83 386.14h-204.47c-.23 0-.41-.18-.41-.41v-41.74c0-.23.18-.41.41-.41h204.47c.23 0 .41.18.41.41v41.74c0 .23-.18.41-.41.41zm-204.06-.82h203.64v-40.91h-203.64z"/><path d="m630.59 541.43h-248.12c-.23 0-.41-.18-.41-.41s.18-.41.41-.41h248.11c.23 0 .41.18.41.41s-.18.41-.4.41z"/><path d="m630.59 598.15h-248.12c-.23 0-.41-.18-.41-.41s.18-.41.41-.41h248.11c.23 0 .41.18.41.41s-.18.41-.4.41z"/><path d="m394.53 733.44c-.23 0-.41-.18-.41-.41v-18.08l-2.94-5.39c-.11-.2-.04-.45.16-.56s.45-.04.56.16l2.99 5.49c.03.06.05.13.05.2v18.18c0 .22-.19.41-.41.41z"/><path d="m351.03 733.44c-.23 0-.41-.18-.41-.41v-18.18c0-.07.02-.14.05-.2l2.94-5.39-.22-401.99c0-.23.18-.41.41-.41s.41.18.41.41l.22 402.09c0 .07-.02.14-.05.2l-2.94 5.4v18.08c0 .21-.19.4-.41.4z"/><path d="m385.47 733.44c-.23 0-.41-.18-.41-.41v-18.08l-2.94-5.39c-.03-.06-.05-.13-.05-.2v-401.76h-38.45v401.76c0 .06-.01.13-.05.19l-2.94 5.39v18.08c0 .23-.18.41-.41.41s-.41-.18-.41-.41v-18.18c0-.07.02-.14.05-.2l2.94-5.39v-401.99c0-.18.12-.34.29-.39l.25-.08c.04-.01.08-.02.12-.02h39.02c.23 0 .41.18.41.41v402.06l2.94 5.39c.03.06.05.13.05.2v18.18c0 .24-.19.43-.41.43z"/><path d="m620.51 733.44c-.23 0-.41-.18-.41-.41v-18.18c0-.07.02-.14.05-.2l2.94-5.4.1-99.14h-231.24v99.24c0 .23-.18.41-.41.41h-57.4c-.23 0-.41-.18-.41-.41s.18-.41.41-.41h56.99v-99.24c0-.23.18-.41.41-.41h232.06c.11 0 .21.04.29.12s.12.18.12.29l-.1 99.65c0 .07-.02.14-.05.2l-2.94 5.4v18.08c0 .22-.19.41-.41.41z"/><path d="m627.6 733.44c-.23 0-.41-.18-.41-.41v-18.18c0-.07.02-.14.05-.2l2.94-5.39v-402c0-.23.18-.41.41-.41s.41.18.41.41v402.09c0 .07-.02.14-.05.2l-2.94 5.39v18.08c0 .23-.19.42-.41.42z"/><path d="m662.26 733.44c-.23 0-.41-.18-.41-.41v-18.08l-2.94-5.4c-.03-.06-.05-.13-.05-.2v-401.75l-37.98.07-.14 233.34c0 .23-.18.41-.41.41-.23 0-.41-.18-.41-.41l.14-233.76c0-.23.18-.41.41-.41l38.81-.08c.11 0 .21.04.29.12s.12.18.12.29v402.06l2.94 5.39c.03.06.05.13.05.2v18.18c-.01.25-.2.44-.42.44z"/><path d="m620.46 307.68c-.05 0-.09-.01-.14-.02l-112.28-40.24-125.44 40.16c-.21.07-.45-.05-.52-.27s.05-.45.27-.52l125.57-40.22c.09-.03.18-.03.26 0l112.42 40.29c.21.08.32.31.25.53-.06.18-.22.29-.39.29z"/><path d="m601.18 581.95h-196.17c-.23 0-.41-.18-.41-.41v-25.07c0-.23.18-.41.41-.41h196.17c.23 0 .41.18.41.41v25.07c0 .22-.18.41-.41.41zm-195.76-.83h195.35v-24.24h-195.35z"/><path d="m604.6 733.44c-.23 0-.41-.18-.41-.41v-7.84h-209.66c-.23 0-.41-.18-.41-.41s.18-.41.41-.41h210.07c.23 0 .41.18.41.41v8.25c0 .22-.18.41-.41.41z"/><path d="m668.86 721.6h-48.35c-.23 0-.41-.18-.41-.41s.18-.41.41-.41h48.35c.23 0 .41.18.41.41s-.19.41-.41.41z"/><path d="m394.53 721.6h-63.38c-.23 0-.41-.18-.41-.41s.18-.41.41-.41h63.38c.23 0 .41.18.41.41s-.19.41-.41.41z"/><path d="m665.86 709.77h-42.36c-.23 0-.41-.18-.41-.41s.18-.41.41-.41h42.37c.23 0 .41.18.41.41 0 .22-.19.41-.42.41z"/><path d="m668.86 733.44h-337.72c-.23 0-.41-.18-.41-.41v-18.18c0-.07.02-.14.05-.2l2.94-5.4v-402.06c0-.23.18-.41.41-.41h9.31c.23 0 .41.18.41.41s-.18.41-.41.41h-8.9v401.76c0 .07-.02.14-.05.2l-2.94 5.39v17.67h336.89v-17.67l-2.94-5.4c-.03-.06-.05-.13-.05-.2v-401.75h-6.19c-.23 0-.41-.18-.41-.41s.18-.41.41-.41h6.6c.23 0 .41.18.41.41v402.06l2.94 5.39c.03.06.05.13.05.2v18.18c.01.23-.18.42-.4.42z"/><path d="m407.61 386.14c-.23 0-.41-.18-.41-.41v-41.74c0-.23.18-.41.41-.41s.41.18.41.41v41.74c0 .23-.19.41-.41.41z"/><path d="m432.02 377.75c-6.8 0-9.22-4.22-9.22-8.17v-.79c0-.23.18-.41.41-.41h6.2c.23 0 .41.18.41.41 0 2.78 1.77 2.92 2.13 2.92 1.21 0 1.96-1 1.96-1.93 0-1.27-.68-1.6-4.3-3.12l-.23-.1c-1.7-.69-6.23-2.51-6.23-7.38 0-4.76 4.56-7.61 8.96-7.61.23 0 .41.18.41.41s-.18.41-.41.41c-4 0-8.14 2.54-8.14 6.78 0 4.31 4 5.92 5.71 6.61l.24.1c3.6 1.51 4.81 2.02 4.81 3.88 0 1.32-1.07 2.75-2.79 2.75-.29 0-2.75-.1-2.94-3.33h-5.39v.38c0 1.72.61 7.34 8.4 7.34 1.9 0 8.1-.51 8.1-7.08 0-2.57-.91-4.58-5.47-6.62-4.49-2.02-5.29-2.39-5.29-4.1 0-1.46 1.3-2.33 2.56-2.33 1.98 0 2.43 1.49 2.59 2.38h5.82c.23 0 .41.18.41.41s-.18.41-.41.41h-6.17c-.2 0-.37-.15-.41-.35-.17-1.1-.44-2.03-1.84-2.03-.85 0-1.73.56-1.73 1.5 0 1.15.41 1.37 4.8 3.35 4.29 1.93 5.96 4 5.96 7.38.01 1.88-.63 7.93-8.91 7.93z"/><path d="m459.27 377.28h-6.24c-.23 0-.41-.18-.41-.41v-18.53h-4.41c-.23 0-.41-.18-.41-.41v-5.48c0-.23.18-.41.41-.41s.41.18.41.41v5.07h4.41c.23 0 .41.18.41.41v18.53h5.41v-18.53c0-.23.18-.41.41-.41h4.78c.23 0 .41.18.41.41s-.18.41-.41.41h-4.37v18.53c.01.23-.17.41-.4.41z"/><path d="m491.97 377.28h-7.13c-.13 0-.26-.06-.33-.17l-4.96-6.94v6.7c0 .23-.18.41-.41.41h-5.97c-.23 0-.41-.18-.41-.41v-24.42c0-.23.18-.41.41-.41h7.72c.23 0 .41.18.41.41s-.18.41-.41.41h-7.31v23.6h5.15v-7.48c0-.23.18-.41.41-.41.13 0 .32.06.4.17l5.52 7.72h6.06l-6.1-7.65c-.09-.11-.11-.27-.06-.4.05-.14.17-.23.32-.26 4.23-.69 5.73-4.36 5.73-7.28 0-.23.18-.41.41-.41s.41.18.41.41c0 3.32-1.78 6.97-5.74 7.96l6.22 7.79c.1.12.12.29.05.44-.09.13-.23.22-.39.22zm-10.63-12.14h-2.21c-.23 0-.41-.18-.41-.41v-6.8c0-.23.18-.41.41-.41h2.28c2.78 0 4.44 1.39 4.44 3.71 0 1.17-.44 3.91-4.51 3.91zm-1.8-.82h1.8c3.04 0 3.68-1.68 3.68-3.09 0-2.51-2.26-2.89-3.61-2.89h-1.87z"/><path d="m523.81 377.28h-6.77c-.18 0-.33-.11-.39-.28l-1.09-3.25h-7.9l-1.19 3.26c-.06.16-.21.27-.39.27h-6.7c-.14 0-.26-.07-.34-.18s-.09-.26-.04-.38l9.8-24.42c.08-.21.32-.31.54-.23s.31.32.23.54l-9.57 23.85h5.8l1.19-3.26c.06-.16.21-.27.39-.27h8.48c.18 0 .33.11.39.28l1.09 3.25h6.47c.23 0 .41.18.41.41s-.18.41-.41.41zm-9.6-8.48h-5.12c-.13 0-.25-.06-.33-.17-.08-.1-.1-.24-.06-.36l2.51-8.35c.05-.17.21-.29.39-.29s.44.12.49.29l2.51 8.35c.04.12.01.26-.06.36-.08.11-.2.17-.33.17zm-4.56-.82h4.01l-2-6.67z"/><path d="m553.51 377.28h-5.41c-.14 0-.27-.07-.35-.19l-8.6-13.72.15 13.49c0 .11-.04.22-.12.29s-.18.12-.29.12h-5.97c-.23 0-.41-.18-.41-.41v-24.42c0-.23.18-.41.41-.41s.41.18.41.41v24.01h5.15l-.16-14.4c0-.16.09-.3.22-.37.19-.1.49-.07.6.11l9.18 14.66h4.77v-24.01c0-.23.18-.41.41-.41s.41.18.41.41v24.42c.01.24-.18.42-.4.42zm-5.78-9.07c-.11 0-.21-.04-.29-.12-.14-.14-.16-.35-.06-.51l-.26-15.12c0-.23.18-.41.4-.42.23-.04.41.18.42.4l.26 15.28c0 .11-.04.22-.12.3l-.07.07c-.07.08-.17.12-.28.12z"/><path d="m572.77 377.28h-8.55c-.23 0-.41-.18-.41-.41v-24.42c0-.23.18-.41.41-.41s.41.18.41.41v24.01h8.13c10.58 0 12.16-7.43 12.16-11.86 0-2.94-.71-5.35-2.17-7.35-.13-.18-.09-.44.09-.58.18-.13.44-.09.58.09 1.56 2.15 2.32 4.71 2.32 7.83.02 4.74-1.67 12.69-12.97 12.69zm.37-5.47h-2.67c-.23 0-.41-.18-.41-.41v-13.47c0-.23.18-.41.41-.41h2.71c2.34 0 4.01.79 5.1 2.43 1.09 1.7 1.26 3.71 1.26 4.75-.02 4.58-2.29 7.11-6.4 7.11zm-2.27-.83h2.26c3.69 0 5.56-2.12 5.56-6.29 0-1.62-.41-3.19-1.12-4.3-.59-.88-1.69-2.06-4.41-2.06h-2.29z"/><path d="m558.65 719.09h-12c-.23 0-.41-.18-.41-.41v-21.9c0-.23.18-.41.41-.41h12c.23 0 .41.18.41.41v21.9c0 .23-.19.41-.41.41zm-11.59-.82h11.18v-21.08h-11.18z"/><path d="m574.8 719.09h-12c-.23 0-.41-.18-.41-.41v-21.9c0-.23.18-.41.41-.41h12c.23 0 .41.18.41.41v21.9c0 .23-.18.41-.41.41zm-11.59-.82h11.18v-21.08h-11.18z"/><path d="m512.49 719.09h-12c-.23 0-.41-.18-.41-.41v-21.9c0-.23.18-.41.41-.41h12c.23 0 .41.18.41.41v21.9c0 .23-.18.41-.41.41zm-11.59-.82h11.18v-21.08h-11.18z"/><path d="m528.65 719.09h-12c-.23 0-.41-.18-.41-.41v-21.9c0-.23.18-.41.41-.41h12c.23 0 .41.18.41.41v21.9c0 .23-.19.41-.41.41zm-11.59-.82h11.18v-21.08h-11.18z"/><path d="m465.36 719.09h-12c-.23 0-.41-.18-.41-.41v-21.9c0-.23.18-.41.41-.41h12c.23 0 .41.18.41.41v21.9c0 .23-.18.41-.41.41zm-11.59-.82h11.18v-21.08h-11.18z"/><path d="m481.51 719.09h-12c-.23 0-.41-.18-.41-.41v-21.9c0-.23.18-.41.41-.41h12c.23 0 .41.18.41.41v21.9c0 .23-.18.41-.41.41zm-11.59-.82h11.18v-21.08h-11.18z"/><path d="m414.29 719.09h-12c-.23 0-.41-.18-.41-.41v-21.9c0-.23.18-.41.41-.41h12c.23 0 .41.18.41.41v21.9c.01.23-.18.41-.41.41zm-11.59-.82h11.18v-21.08h-11.18z"/><path d="m430.45 719.09h-12c-.23 0-.41-.18-.41-.41v-21.9c0-.23.18-.41.41-.41h12c.23 0 .41.18.41.41v21.9c0 .23-.19.41-.41.41zm-11.59-.82h11.18v-21.08h-11.18z"/><path d="m597.59 578.81h-188.97c-.23 0-.41-.18-.41-.41v-19.26c0-.23.18-.41.41-.41h188.97c.23 0 .41.18.41.41v19.26c0 .22-.19.41-.41.41zm-188.56-.82h188.14v-18.43h-188.14z"/><path d="m405.01 581.95h-3.26c-.23 0-.41-.18-.41-.41v-25.07c0-.23.18-.41.41-.41h3.26c.23 0 .41.18.41.41s-.18.41-.41.41h-2.84v24.24h2.84c.23 0 .41.18.41.41s-.18.42-.41.42z"/><path d="m565.01 519.89h-139.29c-.23 0-.41-.18-.41-.41v-16.09c0-.23.18-.41.41-.41h139.29c.23 0 .41.18.41.41v16.09c0 .23-.19.41-.41.41zm-138.88-.82h138.46v-15.26h-138.46z"/><path d="m428.88 519.89c-.23 0-.41-.18-.41-.41v-15.94c0-.23.18-.41.41-.41s.41.18.41.41v15.94c0 .23-.18.41-.41.41z"/><path d="m615.39 693.09h-21.08c-.23 0-.41-.18-.41-.41v-63.06c0-.23.18-.41.41-.41h21.08c.23 0 .41.18.41.41v63.06c0 .23-.18.41-.41.41zm-20.67-.82h20.25v-62.24h-20.25z"/><path d="m612.48 690.08h-15.26c-.23 0-.41-.18-.41-.41v-57.04c0-.23.18-.41.41-.41h15.26c.23 0 .41.18.41.41v57.04c0 .23-.18.41-.41.41zm-14.85-.82h14.44v-56.22h-14.44z"/><path d="m618.66 693.09h-3.27c-.23 0-.41-.18-.41-.41s.18-.41.41-.41h2.86v-62.24h-2.86c-.23 0-.41-.18-.41-.41s.18-.41.41-.41h3.27c.23 0 .41.18.41.41v63.06c0 .23-.18.41-.41.41z"/><path d="m589.96 725.19c-.23 0-.41-.18-.41-.41v-115.08c0-.23.18-.41.41-.41s.41.18.41.41v115.08c0 .23-.19.41-.41.41z"/><path d="m420.62 359.59c-.23 0-.41-.18-.41-.41 0-4.76 4.56-7.61 8.96-7.61h2.21c.23 0 .41.18.41.41s-.18.41-.41.41h-2.21c-4 0-8.14 2.54-8.14 6.78 0 .24-.18.42-.41.42z"/><path d="m426.44 366.56.15-.38-.15.38c-1.71-.69-6.23-2.51-6.23-7.38 0-.23.18-.41.41-.41s.41.18.41.41c0 4.31 4 5.92 5.71 6.61z"/><path d="m431.38 370.19c-.23 0-.41-.18-.41-.41 0-1.27-.68-1.6-4.3-3.12l-.23-.1c-.21-.09-.31-.33-.22-.54s.33-.31.54-.22l.23.1c3.6 1.51 4.81 2.02 4.81 3.88-.01.22-.19.41-.42.41z"/><path d="m430.5 372.02c-.12 0-.24-.05-.32-.15-.14-.18-.12-.44.06-.58.45-.37.73-.94.73-1.51 0-.23.18-.41.41-.41s.41.18.41.41c0 .82-.39 1.63-1.04 2.15-.07.06-.16.09-.25.09z"/><path d="m453.04 377.28h-2.95c-.23 0-.41-.18-.41-.41v-18.94c0-.23.18-.41.41-.41s.41.18.41.41v18.53h2.53c.23 0 .41.18.41.41.01.23-.18.41-.4.41z"/><path d="m473.16 377.28h-2.95c-.23 0-.41-.18-.41-.41v-24.42c0-.23.18-.41.41-.41h2.95c.23 0 .41.18.41.41s-.18.41-.41.41h-2.53v23.6h2.53c.23 0 .41.18.41.41s-.18.41-.41.41z"/><path d="m484.84 377.28h-2.95c-.13 0-.26-.06-.33-.17l-2.82-3.94c-.13-.18-.09-.44.1-.57s.44-.09.57.09l2.7 3.77h2.73c.23 0 .41.18.41.41s-.18.41-.41.41z"/><path d="m482.49 361.64c-.23 0-.41-.18-.41-.41 0-2.14-1.62-2.73-2.99-2.86-.23-.02-.39-.22-.37-.45s.22-.38.45-.37c2.37.22 3.73 1.56 3.73 3.68 0 .23-.18.41-.41.41z"/><path d="m479.13 365.11c-.21 0-.39-.16-.41-.37-.02-.23.14-.43.37-.45 2.47-.24 2.99-1.79 2.99-3.06 0-.23.18-.41.41-.41s.41.18.41.41c0 2.23-1.36 3.65-3.73 3.88-.01-.01-.03 0-.04 0z"/><path d="m517.05 377.28h-2.95c-.18 0-.33-.11-.39-.28l-1.19-3.53c-.07-.22.04-.45.26-.52s.45.04.52.26l1.09 3.25h2.65c.23 0 .41.18.41.41.01.23-.18.41-.4.41z"/><path d="m499.39 377.28h-2.95c-.14 0-.26-.07-.34-.18s-.09-.26-.04-.38l9.8-24.42c.06-.16.21-.26.38-.26h2.95c.23 0 .41.18.41.41s-.18.41-.41.41h-2.67l-9.47 23.6h2.34c.23 0 .41.18.41.41s-.18.41-.41.41z"/><path d="m511.26 368.8c-.18 0-.34-.11-.39-.29l-1.12-3.73c-.07-.22.06-.45.28-.51.22-.07.45.06.51.28l1.12 3.73c.07.22-.06.45-.28.51-.04.01-.08.01-.12.01z"/><path d="m548.09 377.28h-2.95c-.14 0-.27-.07-.35-.19l-6.37-10.17c-.12-.19-.06-.45.13-.57s.45-.06.57.13l6.25 9.98h2.72c.23 0 .41.18.41.41.01.23-.18.41-.41.41z"/><path d="m544.85 363.39c-.22 0-.41-.18-.41-.4l-.26-10.53c0-.11.04-.22.12-.3s.18-.12.29-.12h2.95c.23 0 .41.18.41.41s-.18.41-.41.41h-2.52l.25 10.11c.01.23-.17.42-.4.42-.01 0-.01 0-.02 0z"/><path d="m564.23 377.28h-2.95c-.23 0-.41-.18-.41-.41v-24.42c0-.23.18-.41.41-.41h2.95c.23 0 .41.18.41.41s-.18.41-.41.41h-2.53v23.6h2.53c.23 0 .41.18.41.41s-.19.41-.41.41z"/><path d="m574.98 360.59c-.13 0-.26-.06-.34-.18-.59-.88-1.69-2.06-4.41-2.06-.23 0-.41-.18-.41-.41s.18-.41.41-.41c2.34 0 4.01.79 5.1 2.43.13.19.07.44-.11.57-.09.03-.17.06-.24.06z"/><path d="m576.16 365.11c-.23 0-.41-.18-.41-.41 0-1.62-.41-3.19-1.12-4.3-.12-.19-.07-.45.12-.57s.45-.07.57.12c1.09 1.69 1.25 3.7 1.25 4.74 0 .23-.18.42-.41.42z"/><path d="m570.19 371.81c-.23 0-.41-.18-.41-.41s.18-.41.41-.41c3.69 0 5.56-2.12 5.56-6.29 0-.23.18-.41.41-.41s.41.18.41.41c0 4.58-2.26 7.11-6.38 7.11z"/><path d="m448.22 358.34h-2.95c-.23 0-.41-.18-.41-.41v-5.48c0-.23.18-.41.41-.41h2.95c.23 0 .41.18.41.41s-.18.41-.41.41h-2.53v4.65h2.53c.23 0 .41.18.41.41 0 .24-.19.42-.41.42z"/><path d="m432.02 377.75h-2.95c-6.8 0-9.22-4.22-9.22-8.17v-.79c0-.22.17-.4.39-.41 1.23-.07 2.77-.12 3.13.03.21.09.31.33.22.54s-.32.3-.53.22c-.22-.06-1.34-.04-2.39.01v.4c0 1.72.61 7.34 8.4 7.34h2.95c.23 0 .41.18.41.41s-.18.42-.41.42z"/><path d="m434.16 359.99h-1.89c-.11 0-.22-.05-.3-.12-.08-.08-.12-.19-.12-.3.01-.3-.05-1.15-.43-1.54-.13-.14-.29-.2-.49-.2-.23 0-.41-.18-.41-.41s.18-.41.41-.41c.42 0 .8.16 1.08.45.47.48.61 1.24.65 1.71h1.49c.23 0 .41.18.41.41s-.17.41-.4.41z"/></g></svg>