<svg viewBox="0 0 1000 1000" xmlns="http://www.w3.org/2000/svg"><path d="M459.36 95c-.33 0-.66-.02-.98-.04M458.7 99.55c-.02.05-.02.12-.04.18M513.11 637.65v-3.36l3.1.08M457.46 490.78c-.14-.06-.29-.12-.44-.18M490.1 777.6l-.3-.08M693.92 820.41h8.13v4.49h-2.16v4.48h-3.8v-4.48h-2.17zM318.71 240.34a3.36 3.36 0 0 1 3.36-3.36 3.37 3.37 0 0 1 3.37 3.36c0 1.86-1.51 3.37-3.37 3.37-.49 0-.95-.1-1.37-.3a3.36 3.36 0 0 1-1.99-3.07zM591.54 240.34c0-1.86 1.51-3.36 3.36-3.36s3.37 1.51 3.37 3.36c0 1.86-1.51 3.37-3.37 3.37-.49 0-.95-.1-1.37-.3a3.36 3.36 0 0 1-1.99-3.07z" fill="#fff9e1"/><path d="M706.26 789.7v27.14h3.08v3.53H571.06l38.42.05h8.13v4.49h-2.17v4.48h-2.91v109.97h-.4v19.17H506.5v.02h-99.12v-.02h-30.76v.02h-4.16v-.02h-72.91V731.52h-2.65v-4.49h41.29v-.48h-38.64v-39.97h-2.65v-5.4h2.65v-94.1h-2.65v-4.49h41.29v-.14h-38.64v-29.48h-2.65v-4.49h86.14l.01-.48v-86.1l-4.85.07c-2.52 0-4.58-1.9-4.83-4.35.3 3.45 3.68 5.02 3.68 5.02h5.99V548h-83.49v-50.79h-2.65v-4.49h43.94v4.49h-2.64v.15h2.85v-5.12h-41.5v-39.97h-2.65v-4.49h2.65v-16.92h145.81v-.48H295.6v-2.99h-2.17v-4.11h-2.79v-6.36h8.9V398.6h-2.65v-4.49h2.65v-81.88h-4.38v-5.6h-4.53v-7.02h16.39v-.8l1.5-2.28h2.12v-1.89l-1.81-1.8v-2.4l.23-.27a20.01 20.01 0 0 1-5.35-7.51c-.74-1.83-1.21-3.79-1.35-5.84-.03-.48-.05-.95-.05-1.42 0-1.29.12-2.54.37-3.76 1.39-7.21 6.73-13 13.69-15.04.01 0 .02-.01.02-.01l.09-1.47.29-.29c.84-.84.84-2.21 0-3.06l-.44-.44h1.6c-.35-.57-.4-1.32-.12-1.93.3-.69.94-1.15 1.47-1.69.52-.53.97-1.29.73-2h4.02c-.23.71.22 1.47.74 2 .52.54 1.16 1 1.46 1.69.27.61.23 1.36-.12 1.93h1.77l-.44.44c-.84.85-.84 2.22 0 3.06l.3.29v1.56c6.81 2.12 12.03 7.86 13.4 14.96.23 1.21.36 2.47.36 3.75 0 2.57-.49 5.02-1.4 7.26a19.568 19.568 0 0 1-5.66 7.78v2.4l-1.8 1.8v1.89h2.12l1.49 2.28v.8h23.83v-8.09c4.36 0 8.3-1.76 11.16-4.62s4.63-6.8 4.63-11.16v-5.1l.01-.06c-2.64-.34-5.12-1.22-7.32-2.51-.82-.49-1.18-1.5-.8-2.44l.1-.27c.43-1.1 1.75-1.58 2.76-.97 2.86 1.7 6.3 2.5 9.96 2.01 6.62-.89 12-6.14 13.02-12.73.9-5.73-1.39-10.99-5.36-14.29l-1.45-.65c-.69-.3-1.51-.02-1.84.66-.33.65-.11 1.44.51 1.83l2.12 1.33.39 5.06c-.71.25-1.48.38-2.29.38-4.38 0-7.82-4-6.86-8.55.55-2.62 2.65-4.74 5.27-5.32 2.11-.46 4.1.02 5.64 1.11l.17.09c.48.35.94.72 1.38 1.11-.4-1.37-.66-2.8-.73-4.28-.02-.32-.02-.64-.02-.96l4.39-.52c0 .18-.01.35-.01.52 0 7.95 6.45 14.39 14.39 14.39 7.95 0 14.4-6.44 14.4-14.39 0-4.26-1.86-8.09-4.81-10.73l3.1-3.1c3.74 3.43 6.08 8.36 6.08 13.83v54.48h.13l.4-93.81h-3.46v-2.52h-2.24v-9.11h-2.67v-3.36h-3.74v-3.25h11.64c0-13.74 8.73-25.08 20.04-26.86h4.33l1.64 4.77c-.73.06-1.44.18-2.13.34l.02.09v4.95h4.44l-.84-12.99-.13-2.05s-1.79-9.66-1.79-14.1c0-4.45.43-5.77 1.39-8.59.05-.15.09-.32.12-.51.59-3.35-1.51-12.32-1.51-12.32l-4.74-8.84s-1.28-1.67-1.28-3.08c0-1.4 4.4-16.28 4.4-16.28v-3.33h3.23v5l-1.22 1.67-3.34 12.3 5.05 7.9.18.02 2.47.24v-2.01s-.11-.06-.28-.2c-.76-.55-2.79-2.29-2.79-5.06 0 0-2.9-1.02-1.24-4.23 1.67-3.21 4.31-2.05 4.31-2.05s7.86-3.59 7.86 1.67l-.16.09c-.44.05-.85.23-1.22.47l.2.05c.08 1.08.29 1.35.37 2.44.02.18.03.37.11.54.11.23 1.02 2.05 1.02 2.05-.37.3-.72.61-1.05.94l-.06 2.01c-.47.76-2.16 1.03-2.16 1.03v1.88c.9.23 2.15 1.49 2.15 1.49l5.38 5.21s1.29.64 1.29 1.92l-4.41 8.85-.27.37c-.69.05-1.35.26-1.94.59.06.38.13.73.22 1.05.46 1.86 1.22 3.24 1.22 5.85 0 3.76-1.57 11.8-1.57 11.8l-.19 8.05-.19 8.21c.61 0 1.94 1.94 1.94 1.94h1.56v-5.06c-.67-.15-1.35-.26-2.04-.32l1.64-4.77c11.32 1.78 20.04 13.12 20.04 26.86h15.64v3.25h-3.14v3.36h-4.33v9.11h-2.24v2.52h-3.38v39.32c0-5.47 2.34-10.4 6.08-13.83l3.1 3.1c-2.95 2.64-4.8 6.47-4.8 10.73 0 7.95 6.44 14.39 14.39 14.39s14.39-6.44 14.39-14.39c0-.17 0-.34-.01-.52l4.39.52c0 .32-.01.64-.02.96-.08 1.48-.34 2.91-.74 4.28.45-.39.91-.76 1.38-1.11l.18-.09a7.076 7.076 0 0 1 5.63-1.11c2.61.58 4.71 2.7 5.27 5.32a7.026 7.026 0 0 1-6.86 8.55c-.8 0-1.57-.13-2.29-.38l.4-5.06 2.11-1.33a1.418 1.418 0 0 0-1.34-2.49l-1.45.65c-3.97 3.29-6.26 8.55-5.36 14.29 1.03 6.59 6.41 11.84 13.02 12.73 3.66.49 7.12-.31 9.96-2.01 1.02-.61 2.33-.13 2.76.97l.11.27c.37.94.02 1.95-.81 2.44-2.2 1.3-4.67 2.17-7.31 2.51l.01.06v5.1c0 4.35 1.76 8.3 4.62 11.16s6.8 4.62 11.16 4.62v8.09h21.14v-.8l1.5-2.28h2.12v-1.89l-1.81-1.8v-2.4l.23-.27a19.876 19.876 0 0 1-5.34-7.51c-.73-1.83-1.2-3.79-1.35-5.84-.03-.48-.05-.95-.05-1.42 0-1.22.11-2.41.33-3.57 1.33-7.3 6.71-13.18 13.72-15.24.01 0 .02-.01.02-.01l.09-1.47.29-.29c.84-.84.84-2.21 0-3.06l-.44-.44h1.6c-.35-.57-.4-1.32-.12-1.93.3-.69.94-1.15 1.47-1.69.52-.53.97-1.29.73-2h4.02c-.23.71.22 1.47.73 2 .52.54 1.16 1 1.47 1.69.27.61.23 1.36-.12 1.93h1.77l-.45.44c-.84.85-.84 2.22 0 3.06l.3.29v1.56c6.87 2.14 12.12 7.96 13.44 15.15.22 1.15.33 2.34.33 3.56 0 2.57-.49 5.02-1.4 7.26a19.568 19.568 0 0 1-5.66 7.78v2.4l-1.8 1.8v1.89h2.12l1.49 2.28v.8h13.67v7.02h-3.79v5.6h-7.28v81.88h2.65v4.49h-2.65v18.32h11.07v6.36h-2.78v4.11h-2.17v2.99H475.9v.48h136.01v16.92h2.64v4.49h-2.64v39.97l-38.34.48h40.98v4.49h-2.64v50.79h-38.43v.48h41.08v4.49h-2.64v29.14h-38.43v.48h41.29v4.49h-2.64v94.1h2.64v5.4h-2.86l.22 40.45h2.64v4.49h-2.86v26.01l-10.43-2.8h-.17l14.4 4.53 86.34 27.13h7.3v3.31h-3.1z" fill="#fff9e1"/><path d="M340.12 282.98h-36.38a.29.29 0 0 1 0-.58h36.38a.29.29 0 0 1 0 .58zM340.12 272.16h-36.38a.29.29 0 0 1 0-.58h36.38a.29.29 0 0 1 0 .58zM612.94 282.98h-36.38a.29.29 0 0 1 0-.58h36.38a.29.29 0 0 1 0 .58zM614.01 272.16h-38.53a.29.29 0 0 1 0-.58h38.53a.29.29 0 0 1 0 .58z" fill="#b69994"/><path d="M407.38 958.53h99.12V852.87H401.86v70.32l2.24-.01.62 3.28-1.4.02 1.4 8.14-.42 3.29 3.08.21zM382.99 852.87h-10.52v105.66h4.15v-20.41h2.49l-.1-3.64 1.68-8-.7.38-.38-3.67 3.05-.01z" fill="#b0d3f1"/><path d="M516.21 544.97v-2.79c0 .93-.03 1.86-.07 2.79zM509.56 452.56h.19-.19z" fill="#e87934"/><path d="M509.75 461.92s-3.24.07-3.24-4.78c0-4.16 2.37-4.55 3.05-4.57H408.27s3.25 1.55 3.25 4.58-4.85 4.85-4.85 4.85l-3.21-1.22-1.64-2.46.21 3.61c-.13-.28-.21-.64-.21-1.1H389v-1.58l-2.55 2.35-2.55.34-.84 86.58 2.14-.04v4.53h-2.14v34.11H299.55v94.1h77.03v-22.51h1.4v-6.45h-2.17v-2.94h3.26v-2.94l1.58-8.69-.7-3.36 3.1.08 5.95-.46h12.82V527.24c5.37-22.19 22.43-39.52 43.93-44.39v.05l2.66-.55 1.9 6.44.83 1.99h14.69l2.77-8.32c27.08 5.15 47.62 29.92 47.62 59.72v-80.26z" fill="#e87934"/><path d="M299.55 552.98h38.65v29.48h-38.65zM299.55 686.59h38.65v39.97h-38.65zM338.2 497.37h-38.65v50.65h83.5v-85.37h-6s-3.71-1.71-3.71-5.51 2.26-4.58 2.26-4.58h-76.05v39.69h41.5v5.12zm12.26-36.56l19.1.53 2.99 6.89.06 2.18h-2.56v64.02h-19.59zM573.26 552.98h38.65v29.15h-38.65zM573.26 686.59l.22 40.45h38.65l-.22-40.45zM611.64 824.9h-2.17v-4.48l-38.41-.06v118.99h41.47V829.38l-.89-.41zM306.71 786.39v-31.65h294.76l10.43 2.8v-26.02h-1.63c0 10.16-17.38 11.1-17.38 11.1-15.56 0-17.39-11.1-17.39-11.1h-55.34c-3.52 9.62-50.05 11.16-59.61 11.16v-.05s-60.56 0-63.79-11.1h-60.51s-1 11.1-17.55 11.1-17.22-11.1-17.22-11.1h-1.94v207.82h41.29V820.36h-25.29v4.53h-2.22s.25 4.23 0 4.48-3.74 0-3.74 0v-4.48h-2.45v-4.48h-3.12v-3.58h3.12V789.7h-3.08v-3.31zM516.21 633.91h5.11V459.23l-2.56 2.35-2.55.34zM299.55 312.26h38.65v81.87h-38.65zM573.91 312.26h37.78v81.88h-37.78zM573.91 398.62h37.78v18.32h-37.78zM299.55 398.62h38.65v18.32h-38.65z" fill="#e87934"/><path d="M475.9 430.27h-30.53v.61H299.55v16.92h41.29v4.49H561.6v.28h-20.15l3.24 1.91v3.57c-1.4 3.52-5.28 5.43-8.76 1.3l-.94-.53-.56 2.99v-1H521.33v173.1h13.1l.19-28.66v29.12l3.1-.08-.7 3.36.83 8.69v2.94h2.81v2.94h-.98v6.45h1.4v22.51h70.85v-94.1h-77.19l.25-38.6h38.5V548h38.44v-50.65h-38.65l-2.42-.15v-4.49h2.73l38.34-.48v-39.69h-33.86v-.28h-7.21v-4.49h41.07v-16.92H475.9v-.58zm93.21 40.15l-2.63.19.13 63.83h-19.7v-68.27l.1-5.35 14.58.32 4.56-.11 1.53 3.7 1.48 3.63z" fill="#e87934"/><path d="M412.64 707.31h2.95v.78h-2.95zM422.34 707.31h2.95v.78h-2.95zM431.96 707.31h2.95v.78h-2.95zM441.76 707.31h3.77v.78h-3.77zM452.37 707.31h3.7v.78h-3.7zM462.91 707.31h2.69v.78h-2.69zM482.13 707.31h2.69v.78h-2.69zM492.27 707.31h2.69v.78h-2.69zM472.44 707.31h2.78v.78h-2.78zM501.75 707.31h3.24v.78h-3.24z" fill="#ab8e62"/><path d="M340.84 820.36h64.02v4.54h2.16v.58h3.8v-.58h2.17v-4.48h81.73v4.48h2.16v.58h3.8v-.58h2.17v-4.48h68.21v4.75H340.84z" fill="#d0b68a"/><path d="M311.49 761.54v15.13l11.91-11.66zM333.33 767.91l-21.84 18.48 83.48-.52z" fill="#e87934"/><path d="M401.82 612.09h91.16v69.1h-85.64v-22.5h-1.33l-.13-6.17 2.3-.28-.84-3.8-2.66.85-1.4-11.63h1.1l-.5-3.33-2.06-.42zM490.1 698.18c0-1.4 1.84-1.92 1.84-1.92v-4.37l-6.84.26v4.1c.72 0 1.84 1.92 1.84 1.92v7.6s.11 1.66-.8 1.58-1.04.34-1.04.34l.17 2.77 1.67 5.97h3.15l1.52-5.44.32-3.3s-.98 0-1.71-1.21c-.58-.97-.13-4.52-.13-4.52s.01-2.38.01-3.78zM480.21 698.18c0-1.4 1.84-1.92 1.84-1.92v-4.37l-6.84.26v4.1c.72 0 1.84 1.92 1.84 1.92v7.6s.11 1.66-.8 1.58-1.04.34-1.04.34l.17 2.77 1.67 5.97h3.15l1.52-5.44.32-3.3s-.98 0-1.71-1.21c-.58-.97-.13-4.52-.13-4.52s.01-2.38.01-3.78zM470.59 698.18c0-1.4 1.84-1.92 1.84-1.92v-4.37l-6.84.26v4.1c.72 0 1.84 1.92 1.84 1.92v7.6s.11 1.66-.8 1.58-1.04.34-1.04.34l.17 2.77 1.67 5.97h3.15l1.52-5.44.32-3.3s-.98 0-1.71-1.21c-.58-.97-.13-4.52-.13-4.52s.01-2.38.01-3.78zM461.07 698.18c0-1.4 1.84-1.92 1.84-1.92v-4.37l-6.84.26v4.1c.72 0 1.84 1.92 1.84 1.92v7.6s.11 1.66-.8 1.58-1.04.34-1.04.34l.17 2.77 1.67 5.97h3.15l1.52-5.44.32-3.3s-.98 0-1.71-1.21c-.58-.97-.13-4.52-.13-4.52s.01-2.38.01-3.78zM450.18 698.18c0-1.4 1.84-1.92 1.84-1.92v-4.37l-6.84.26v4.1c.72 0 1.84 1.92 1.84 1.92v7.6s.11 1.66-.8 1.58-1.04.34-1.04.34l.17 2.77 1.67 5.97h3.15l1.52-5.44.32-3.3s-.98 0-1.71-1.21c-.58-.97-.13-4.52-.13-4.52s.01-2.38.01-3.78zM439.61 698.18c0-1.4 1.84-1.92 1.84-1.92v-4.37l-6.84.26v4.1c.72 0 1.84 1.92 1.84 1.92v7.6s.11 1.66-.8 1.58-1.04.34-1.04.34l.17 2.77 1.67 5.97h3.15l1.52-5.44.32-3.3s-.98 0-1.71-1.21c-.58-.97-.13-4.52-.13-4.52s.01-2.38.01-3.78zM430.12 698.13c0-1.4 1.84-1.92 1.84-1.92v-4.37l-6.84.26v4.1c.72 0 1.84 1.92 1.84 1.92v7.6s.11 1.66-.8 1.58-1.04.34-1.04.34l.17 2.77 1.67 5.97h3.15l1.52-5.44.32-3.3s-.98 0-1.71-1.21c-.58-.97-.13-4.52-.13-4.52s.01-2.38.01-3.78zM420.58 698.13c0-1.4 1.84-1.92 1.84-1.92v-4.37l-6.84.26v4.1c.72 0 1.84 1.92 1.84 1.92v7.6s.11 1.66-.8 1.58-1.04.34-1.04.34l.17 2.77 1.67 5.97h3.15l1.52-5.44.32-3.3s-.98 0-1.71-1.21c-.58-.97-.13-4.52-.13-4.52s.01-2.38.01-3.78zM411 698.13c0-1.4 1.84-1.92 1.84-1.92v-4.37l-4.65.18.44 24.37H411l1.52-5.44.32-3.3s-.98 0-1.71-1.21c-.58-.97-.13-4.52-.13-4.52v-3.79zM457.46 490.78h8.36l1.01-2.44s23.39 6.01 33.32 21.45c11.21 17.42 12.02 38.22 12.02 38.22l-19.19-.19s-.88-23.51-10.34-35.77c-12.58-16.3-25.18-21.27-25.18-21.27zM492.98 552.79h23.23v2.94h-23.23z" fill="#d0b68a"/><path d="M307.14 789.7h399.12v27.14H307.14z" fill="#fff"/><path d="M304.02 816.83h405.32v3.53H304.02zM304.02 786.7h405.32v3H304.02z" fill="#4d6ca3"/><path d="M306.71 760.15v26.24h4.78l21.84-18.48-9.93-2.9-11.91 11.66v-15.13z" fill="#d0b68a"/><path d="M306.71 754.74l103.23 31.65h86.28l-91.36-31.26zM404.86 755.13l84.54 22 7.21-2.41v-3l-4.66-.59.09-3.9h4.57v-4.11s1.07-2.19 1.96-1.96c.89.22 1.96 1.96 1.96 1.96v4.11h4.65v4.49l51.23-16.31zM556.41 755.42l51.47 16.31v-4.49h4.65v-4.11s.81-2.35 1.96-1.96c1.16.38 1.96 1.96 1.96 1.96v4.11h4.57v4.49h-4.57v3.08l6.97 2.32-3.59 3.36h-3.24l-1.16 5.89 84.45-.68-98.41-30.98z" fill="#82b1d8"/><path d="M489.4 777.14l3.58 3.36h3.24l60.19-20.35 60.19 20.35h3.24l3.58-3.36-67.01-21.72z" fill="#b0d3f1"/><path d="M611.64 786.39v-7.35l-55.23-18.89L500 779.22l.68 7.17z" fill="#b0d3f1"/><path d="M306.71 808.3h399.55v.78H306.71zM306.71 799.71h399.55v.78H306.71z" fill="#d0b68a"/><path d="M555.64 789.7h.78v27.14h-.78zM662.53 789.7h.78v27.14h-.78zM451.87 789.7h.78v27.14h-.78zM358.24 789.7h.78v27.14h-.78z" fill="#d0b68a"/><path d="M299.55 430.1h312.14v2.95H299.55z" fill="#c35618"/><g fill="#392c28"><path d="M479.46 567.99h6.35v5.39h-6.35z"/><path d="M485.82 573.67h-6.35a.29.29 0 0 1-.29-.29v-5.39c0-.16.13-.29.29-.29h6.35c.16 0 .29.13.29.29v5.39c0 .16-.13.29-.29.29zm-6.07-.59h5.77v-4.8h-5.77zM479.46 576.82h6.35v5.52h-6.35z"/><path d="M485.82 582.64h-6.35a.29.29 0 0 1-.29-.29v-5.52c0-.16.13-.29.29-.29h6.35c.16 0 .29.13.29.29v5.52c0 .16-.13.29-.29.29zm-6.07-.59h5.77v-4.94h-5.77zM479.46 558.08h6.35v6.89h-6.35z"/><path d="M485.82 565.27h-6.35a.29.29 0 0 1-.29-.29v-6.89c0-.16.13-.29.29-.29h6.35c.16 0 .29.13.29.29v6.89c0 .15-.13.29-.29.29zm-6.07-.59h5.77v-6.31h-5.77zM466.05 558.08h6.35v6.89h-6.35z"/><path d="M472.4 565.27h-6.35a.29.29 0 0 1-.29-.29v-6.89c0-.16.13-.29.29-.29h6.35c.16 0 .29.13.29.29v6.89c0 .15-.13.29-.29.29zm-6.06-.59h5.77v-6.31h-5.77zM466.05 567.99h6.35v5.39h-6.35z"/><path d="M472.4 573.67h-6.35a.29.29 0 0 1-.29-.29v-5.39c0-.16.13-.29.29-.29h6.35c.16 0 .29.13.29.29v5.39c0 .16-.13.29-.29.29zm-6.06-.59h5.77v-4.8h-5.77zM466.05 576.82h6.35v5.52h-6.35z"/><path d="M472.4 582.64h-6.35a.29.29 0 0 1-.29-.29v-5.52c0-.16.13-.29.29-.29h6.35c.16 0 .29.13.29.29v5.52c0 .16-.13.29-.29.29zm-6.06-.59h5.77v-4.94h-5.77zM447.44 558.08h6.35v6.89h-6.35z"/><path d="M453.79 565.27h-6.35a.29.29 0 0 1-.29-.29v-6.89c0-.16.13-.29.29-.29h6.35c.16 0 .29.13.29.29v6.89c.01.15-.13.29-.29.29zm-6.06-.59h5.77v-6.31h-5.77zM447.44 567.99h6.35v5.39h-6.35z"/><path d="M453.79 573.67h-6.35a.29.29 0 0 1-.29-.29v-5.39c0-.16.13-.29.29-.29h6.35c.16 0 .29.13.29.29v5.39c.01.16-.13.29-.29.29zm-6.06-.59h5.77v-4.8h-5.77zM447.44 576.82h6.35v5.52h-6.35z"/><path d="M453.79 582.64h-6.35a.29.29 0 0 1-.29-.29v-5.52c0-.16.13-.29.29-.29h6.35c.16 0 .29.13.29.29v5.52c.01.16-.13.29-.29.29zm-6.06-.59h5.77v-4.94h-5.77zM434.02 558.08h6.35v6.89h-6.35z"/><path d="M440.38 565.27h-6.35a.29.29 0 0 1-.29-.29v-6.89c0-.16.13-.29.29-.29h6.35c.16 0 .29.13.29.29v6.89c0 .15-.13.29-.29.29zm-6.06-.59h5.77v-6.31h-5.77zM434.02 567.99h6.35v5.39h-6.35z"/><path d="M440.38 573.67h-6.35a.29.29 0 0 1-.29-.29v-5.39c0-.16.13-.29.29-.29h6.35c.16 0 .29.13.29.29v5.39c0 .16-.13.29-.29.29zm-6.06-.59h5.77v-4.8h-5.77zM434.02 576.82h6.35v5.52h-6.35z"/><path d="M440.38 582.64h-6.35a.29.29 0 0 1-.29-.29v-5.52c0-.16.13-.29.29-.29h6.35c.16 0 .29.13.29.29v5.52c0 .16-.13.29-.29.29zm-6.06-.59h5.77v-4.94h-5.77zM415.33 558.08h6.35v6.89h-6.35z"/><path d="M421.69 565.27h-6.35a.29.29 0 0 1-.29-.29v-6.89c0-.16.13-.29.29-.29h6.35c.16 0 .29.13.29.29v6.89c0 .15-.13.29-.29.29zm-6.06-.59h5.77v-6.31h-5.77zM415.33 567.99h6.35v5.39h-6.35z"/><path d="M421.69 573.67h-6.35a.29.29 0 0 1-.29-.29v-5.39c0-.16.13-.29.29-.29h6.35c.16 0 .29.13.29.29v5.39c0 .16-.13.29-.29.29zm-6.06-.59h5.77v-4.8h-5.77zM415.33 576.82h6.35v5.52h-6.35z"/><path d="M421.69 582.64h-6.35a.29.29 0 0 1-.29-.29v-5.52c0-.16.13-.29.29-.29h6.35c.16 0 .29.13.29.29v5.52c0 .16-.13.29-.29.29zm-6.06-.59h5.77v-4.94h-5.77zM408.27 564.97v-6.89h-6.35l-.03 6.89z"/><path d="M408.27 565.27h-6.39c-.08 0-.15-.03-.21-.09a.333.333 0 0 1-.09-.21l.03-6.89c0-.16.13-.29.29-.29h6.35c.16 0 .29.13.29.29v6.89c.03.16-.1.3-.27.3zm-6.09-.59h5.8v-6.31h-5.77zM401.84 576.82l-.02 5.53h6.45v-5.53z"/><path d="M408.27 582.64h-6.46c-.08 0-.15-.03-.21-.09a.333.333 0 0 1-.09-.21l.02-5.52c0-.16.13-.29.29-.29h6.44c.16 0 .29.13.29.29v5.52c.02.17-.11.3-.28.3zm-6.16-.59h5.87v-4.94h-5.85zM408.27 573.38v-5.39h-6.39l-.03 5.39z"/><path d="M408.27 573.67h-6.42c-.08 0-.15-.03-.21-.09a.333.333 0 0 1-.09-.21l.02-5.39c0-.16.13-.29.29-.29h6.4c.16 0 .29.13.29.29v5.39c.02.17-.11.3-.28.3zm-6.12-.59h5.83v-4.8h-5.81zM547.02 504.78h4.87v26.44h-4.87z"/><path d="M551.89 531.51h-4.87a.29.29 0 0 1-.29-.29v-26.44c0-.16.13-.29.29-.29h4.87c.16 0 .29.13.29.29v26.44c.01.16-.12.29-.29.29zm-4.58-.58h4.29v-25.86h-4.29zM547.02 473.52h4.87v26.89h-4.87z"/><path d="M551.89 500.7h-4.87a.29.29 0 0 1-.29-.29v-26.89c0-.16.13-.29.29-.29h4.87c.16 0 .29.13.29.29v26.89c.01.16-.12.29-.29.29zm-4.58-.59h4.29v-26.3h-4.29zM555.33 504.78h7.71v26.44h-7.71z"/><path d="M563.03 531.51h-7.71a.29.29 0 0 1-.29-.29v-26.44c0-.16.13-.29.29-.29h7.71c.16 0 .29.13.29.29v26.44c.01.16-.13.29-.29.29zm-7.41-.58h7.12v-25.86h-7.12zM555.33 473.52h7.71v26.89h-7.71z"/><path d="M563.03 500.7h-7.71a.29.29 0 0 1-.29-.29v-26.89c0-.16.13-.29.29-.29h7.71c.16 0 .29.13.29.29v26.89c.01.16-.13.29-.29.29zm-7.41-.59h7.12v-26.3h-7.12zM423.17 502.42c-1.2 1.41-9.59 9.7-13.58 20.62l16.42 8.54c1.54-2.63 3.59-4.85 5.98-6.51z"/><path d="M426.02 531.87c-.05 0-.09-.01-.13-.03l-16.42-8.54a.294.294 0 0 1-.14-.36c3.56-9.75 10.65-17.45 12.98-19.99.3-.32.52-.57.65-.72.07-.08.17-.12.27-.1s.19.09.22.18l8.82 22.64c.05.13.01.27-.11.35-2.34 1.62-4.38 3.84-5.89 6.42-.06.09-.15.15-.25.15zm-16.06-8.97l15.95 8.29c1.5-2.48 3.47-4.62 5.73-6.23l-8.56-21.98-.35.38c-2.29 2.48-9.23 10.01-12.77 19.54zM442.2 528.5c-7.38 0-13.37 6.69-13.37 14.93h26.74c-.01-8.24-5.99-14.93-13.37-14.93z"/><path d="M455.57 543.73h-26.74a.29.29 0 0 1-.29-.29c0-8.4 6.13-15.23 13.66-15.23s13.66 6.83 13.66 15.23c0 .16-.13.29-.29.29zm-26.45-.59h26.15c-.14-7.94-5.95-14.35-13.07-14.35s-12.94 6.41-13.08 14.35zM442.2 492.73c-2.38 0-4.71.22-6.99.61a81.948 81.948 0 0 1-7.5 5.05l9.41 24.17c1.62-.49 3.32-.76 5.07-.76 1.48 0 2.92.19 4.31.54l10.21-26.96c-4.55-1.7-9.43-2.65-14.51-2.65z"/><path d="M437.12 522.86c-.12 0-.23-.07-.27-.19l-9.41-24.17c-.05-.13 0-.28.12-.36 2.56-1.53 5.07-3.22 7.47-5.03a.21.21 0 0 1 .13-.05c7.48-1.3 14.75-.54 21.66 2.07.07.03.13.08.16.15s.03.15.01.22l-10.21 26.96a.29.29 0 0 1-.35.18c-3.06-.78-6.23-.7-9.23.21-.02 0-.05.01-.08.01zm-9.05-24.34l9.22 23.69c2.94-.84 6.03-.92 9.03-.2l10.01-26.44c-6.71-2.48-13.76-3.19-21.01-1.95a80.1 80.1 0 0 1-7.25 4.9zM461.9 497.75l-10.17 26.87c2.59 1.64 4.8 3.92 6.47 6.65l23.73-12.34c-4.54-9.17-11.55-16.61-20.03-21.18z"/><path d="M458.2 531.56c-.1 0-.2-.05-.25-.14-1.64-2.69-3.84-4.95-6.38-6.56a.287.287 0 0 1-.12-.35l10.17-26.87a.286.286 0 0 1 .41-.15c8.57 4.62 15.54 11.99 20.15 21.31.07.14.01.32-.13.39l-23.73 12.34c-.03.02-.07.03-.12.03zm-6.12-7.06c2.45 1.6 4.6 3.8 6.22 6.39l23.23-12.08c-4.51-8.98-11.24-16.11-19.48-20.64zM484.33 524.58l-23.68 12.31c.59 2.06.9 4.26.9 6.54h26.03c0-6.66-1.16-13.02-3.25-18.85z"/><path d="M487.58 543.73h-26.03a.29.29 0 0 1-.29-.29c0-2.2-.3-4.37-.89-6.46-.04-.13.02-.28.15-.34l23.68-12.31c.07-.04.16-.04.24-.01s.14.09.17.17c2.17 6.05 3.27 12.43 3.27 18.95-.01.16-.14.29-.3.29zm-25.74-.59h25.44a55.326 55.326 0 0 0-3.12-18.14l-23.17 12.05c.54 1.97.83 4.02.85 6.09zM407.59 528.89s-1.68 5.49-2.58 14.54h17.83c0-2.15.29-4.23.81-6.19z"/><path d="M422.84 543.73h-17.83c-.08 0-.16-.04-.22-.1a.303.303 0 0 1-.07-.23c.89-8.98 2.57-14.55 2.59-14.6.03-.08.09-.15.17-.18s.17-.03.25.01l16.06 8.35c.12.06.18.2.15.33-.53 1.99-.8 4.05-.8 6.12-.01.17-.14.3-.3.3zm-17.5-.59h17.21c.02-1.95.28-3.88.76-5.75l-15.54-8.08c-.36 1.31-1.66 6.34-2.43 13.83zM566.61 470.71h-19.7a.29.29 0 0 1 0-.58h19.7c.16 0 .29.13.29.29s-.12.29-.29.29zM350.46 504.78h4.87v26.44h-4.87z"/><path d="M355.33 531.51h-4.87a.29.29 0 0 1-.29-.29v-26.44c0-.16.13-.29.29-.29h4.87c.16 0 .29.13.29.29v26.44c0 .16-.13.29-.29.29zm-4.58-.58h4.29v-25.86h-4.29zM350.46 473.52h4.87v26.89h-4.87z"/><path d="M355.33 500.7h-4.87a.29.29 0 0 1-.29-.29v-26.89c0-.16.13-.29.29-.29h4.87c.16 0 .29.13.29.29v26.89c0 .16-.13.29-.29.29zm-4.58-.59h4.29v-26.3h-4.29zM358.76 504.78h7.71v26.44h-7.71z"/><path d="M366.47 531.51h-7.71a.29.29 0 0 1-.29-.29v-26.44c0-.16.13-.29.29-.29h7.71c.16 0 .29.13.29.29v26.44c0 .16-.13.29-.29.29zm-7.42-.58h7.12v-25.86h-7.12zM358.76 473.52h7.71v26.89h-7.71z"/><path d="M366.47 500.7h-7.71a.29.29 0 0 1-.29-.29v-26.89c0-.16.13-.29.29-.29h7.71c.16 0 .29.13.29.29v26.89c0 .16-.13.29-.29.29zm-7.42-.59h7.12v-26.3h-7.12zM370.05 470.71h-19.7a.29.29 0 0 1 0-.58h19.7a.29.29 0 0 1 0 .58zM478.97 902.68h9.82v18.52h-9.82z"/><path d="M488.8 921.49h-9.82a.29.29 0 0 1-.29-.29v-18.52c0-.16.13-.29.29-.29h9.82c.16 0 .29.13.29.29v18.52c0 .16-.13.29-.29.29zm-9.53-.58h9.24v-17.94h-9.24zM478.97 881.21h9.82v17.92h-9.82z"/><path d="M488.8 899.43h-9.82a.29.29 0 0 1-.29-.29v-17.92c0-.16.13-.29.29-.29h9.82c.16 0 .29.13.29.29v17.92c0 .15-.13.29-.29.29zm-9.53-.59h9.24V881.5h-9.24zM492.19 902.68h9.82v18.52h-9.82z"/><path d="M502.02 921.49h-9.82a.29.29 0 0 1-.29-.29v-18.52c0-.16.13-.29.29-.29h9.82c.16 0 .29.13.29.29v18.52c0 .16-.13.29-.29.29zm-9.53-.58h9.24v-17.94h-9.24zM492.19 881.21h9.82v17.92h-9.82z"/><path d="M502.02 899.43h-9.82a.29.29 0 0 1-.29-.29v-17.92c0-.16.13-.29.29-.29h9.82c.16 0 .29.13.29.29v17.92c0 .15-.13.29-.29.29zm-9.53-.59h9.24V881.5h-9.24zM478.97 859.76h9.82v17.92h-9.82z"/><path d="M488.8 877.98h-9.82a.29.29 0 0 1-.29-.29v-17.92c0-.16.13-.29.29-.29h9.82c.16 0 .29.13.29.29v17.92c0 .16-.13.29-.29.29zm-9.53-.59h9.24v-17.34h-9.24zM492.19 859.76h9.82v17.92h-9.82z"/><path d="M502.02 877.98h-9.82a.29.29 0 0 1-.29-.29v-17.92c0-.16.13-.29.29-.29h9.82c.16 0 .29.13.29.29v17.92c0 .16-.13.29-.29.29zm-9.53-.59h9.24v-17.34h-9.24zM444.21 902.68h9.82v18.52h-9.82z"/><path d="M454.03 921.49h-9.82a.29.29 0 0 1-.29-.29v-18.52c0-.16.13-.29.29-.29h9.82c.16 0 .29.13.29.29v18.52c.01.16-.13.29-.29.29zm-9.53-.58h9.24v-17.94h-9.24zM444.21 881.21h9.82v17.92h-9.82z"/><path d="M454.03 899.43h-9.82a.29.29 0 0 1-.29-.29v-17.92c0-.16.13-.29.29-.29h9.82c.16 0 .29.13.29.29v17.92c.01.15-.13.29-.29.29zm-9.53-.59h9.24V881.5h-9.24zM457.43 902.68h9.82v18.52h-9.82z"/><path d="M467.25 921.49h-9.82a.29.29 0 0 1-.29-.29v-18.52c0-.16.13-.29.29-.29h9.82c.16 0 .29.13.29.29v18.52c.01.16-.13.29-.29.29zm-9.53-.58h9.24v-17.94h-9.24zM457.43 881.21h9.82v17.92h-9.82z"/><path d="M467.25 899.43h-9.82a.29.29 0 0 1-.29-.29v-17.92c0-.16.13-.29.29-.29h9.82c.16 0 .29.13.29.29v17.92c.01.15-.13.29-.29.29zm-9.53-.59h9.24V881.5h-9.24zM444.21 859.76h9.82v17.92h-9.82z"/><path d="M454.03 877.98h-9.82a.29.29 0 0 1-.29-.29v-17.92c0-.16.13-.29.29-.29h9.82c.16 0 .29.13.29.29v17.92c.01.16-.13.29-.29.29zm-9.53-.59h9.24v-17.34h-9.24zM457.43 859.76h9.82v17.92h-9.82z"/><path d="M467.25 877.98h-9.82a.29.29 0 0 1-.29-.29v-17.92c0-.16.13-.29.29-.29h9.82c.16 0 .29.13.29.29v17.92c.01.16-.13.29-.29.29zm-9.53-.59h9.24v-17.34h-9.24zM410.82 902.68h9.82v18.52h-9.82z"/><path d="M420.65 921.49h-9.82a.29.29 0 0 1-.29-.29v-18.52c0-.16.13-.29.29-.29h9.82c.16 0 .29.13.29.29v18.52c0 .16-.13.29-.29.29zm-9.54-.58h9.24v-17.94h-9.24zM410.82 881.21h9.82v17.92h-9.82z"/><path d="M420.65 899.43h-9.82a.29.29 0 0 1-.29-.29v-17.92c0-.16.13-.29.29-.29h9.82c.16 0 .29.13.29.29v17.92c0 .15-.13.29-.29.29zm-9.54-.59h9.24V881.5h-9.24zM424.04 902.68h9.82v18.52h-9.82z"/><path d="M433.86 921.49h-9.82a.29.29 0 0 1-.29-.29v-18.52c0-.16.13-.29.29-.29h9.82c.16 0 .29.13.29.29v18.52c.01.16-.12.29-.29.29zm-9.52-.58h9.24v-17.94h-9.24zM424.04 881.21h9.82v17.92h-9.82z"/><path d="M433.86 899.43h-9.82a.29.29 0 0 1-.29-.29v-17.92c0-.16.13-.29.29-.29h9.82c.16 0 .29.13.29.29v17.92c.01.15-.12.29-.29.29zm-9.52-.59h9.24V881.5h-9.24zM410.82 859.76h9.82v17.92h-9.82z"/><path d="M420.65 877.98h-9.82a.29.29 0 0 1-.29-.29v-17.92c0-.16.13-.29.29-.29h9.82c.16 0 .29.13.29.29v17.92c0 .16-.13.29-.29.29zm-9.54-.59h9.24v-17.34h-9.24zM424.04 859.76h9.82v17.92h-9.82z"/><path d="M433.86 877.98h-9.82a.29.29 0 0 1-.29-.29v-17.92c0-.16.13-.29.29-.29h9.82c.16 0 .29.13.29.29v17.92c.01.16-.12.29-.29.29zm-9.52-.59h9.24v-17.34h-9.24zM377.32 902.68h5.66v18.52h-5.66z"/><path d="M382.99 921.49h-5.66a.29.29 0 0 1-.29-.29v-18.52c0-.16.13-.29.29-.29h5.66c.16 0 .29.13.29.29v18.52c0 .16-.13.29-.29.29zm-5.37-.58h5.08v-17.94h-5.08zM377.32 881.21h5.76v17.92h-5.76z"/><path d="M383.09 899.43h-5.76a.29.29 0 0 1-.29-.29v-17.92c0-.16.13-.29.29-.29h5.76c.16 0 .29.13.29.29v17.92c0 .15-.13.29-.29.29zm-5.47-.59h5.18V881.5h-5.18zM377.32 859.76h5.33v17.92h-5.33z"/><path d="M382.66 877.98h-5.33a.29.29 0 0 1-.29-.29v-17.92c0-.16.13-.29.29-.29h5.33c.16 0 .29.13.29.29v17.92c0 .16-.13.29-.29.29zm-5.04-.59h4.75v-17.34h-4.75zM558.73 300.02H494c-.22 0-.39-.17-.39-.39v-10.21l-3.15-3.44a.37.37 0 0 1-.1-.26v-54.48c0-.22.17-.39.39-.39s.39.17.39.39v54.33l3.15 3.44c.07.07.1.17.1.26v9.97h63.95v-7.31c-8.74-.21-15.78-7.38-15.78-16.16v-5.1c0-.22.17-.39.39-.39s.39.17.39.39v5.1c0 8.49 6.9 15.39 15.39 15.39.22 0 .39.17.39.39v8.09c0 .21-.18.38-.39.38z"/><path d="M493.23 272.44c-1.55 0-2.48-.11-2.53-.11a.382.382 0 0 1-.34-.39v-4.68c0-.22.17-.39.39-.39 22.94 0 28.75-14.95 29.68-17.94.04-.12.07-.24.11-.35.26-.89.4-1.62.47-2.02a19.134 19.134 0 0 1-11.48 3.85c-10.57 0-19.16-8.6-19.16-19.16 0-5.35 2.26-10.5 6.21-14.12a.39.39 0 0 1 .54.01l3.1 3.1c.08.08.12.18.11.29 0 .11-.05.21-.13.28a14.009 14.009 0 0 0-4.67 10.44c0 7.72 6.28 14 14 14s14-6.28 14-14c0-.17 0-.34-.01-.51 0-.11.04-.22.13-.3.08-.08.2-.12.31-.1l4.39.52c.2.02.34.19.34.39 0 .33-.01.65-.03.98-.05 1.05-.2 2.12-.45 3.2l.48-.36.21-.12c1.69-1.19 3.8-1.61 5.91-1.14 2.75.6 4.99 2.86 5.57 5.62.47 2.24-.07 4.53-1.48 6.28a7.39 7.39 0 0 1-5.76 2.75c-.83 0-1.64-.14-2.41-.4a.38.38 0 0 1-.26-.4l.4-5.07c.01-.12.08-.23.18-.3l2.12-1.34c.45-.28.61-.85.37-1.33-.25-.49-.83-.7-1.34-.48l-1.4.63c-4.07 3.4-6.01 8.59-5.19 13.89 1 6.43 6.22 11.53 12.69 12.4 3.43.46 6.79-.22 9.72-1.96.58-.34 1.27-.41 1.91-.2.65.22 1.16.72 1.41 1.36l.11.27c.43 1.11.02 2.33-.97 2.92-3.64 2.14-7.82 3.06-12.08 2.65-7.3-.7-13.69-5.52-16.49-12.34-9.43 12.31-23.09 13.68-28.68 13.68zm-2.09-.86c2.63.21 19.7.94 30.53-13.88.08-.12.23-.18.37-.16s.26.12.31.25c2.54 6.89 8.86 11.79 16.09 12.49 4.09.39 8.11-.48 11.61-2.54.68-.4.94-1.2.64-1.96l-.11-.27c-.17-.43-.51-.76-.94-.9-.42-.14-.88-.1-1.26.13-3.08 1.83-6.61 2.55-10.22 2.06-6.81-.91-12.3-6.28-13.36-13.05-.87-5.59 1.18-11.07 5.5-14.64l.09-.06 1.45-.65a1.808 1.808 0 0 1 1.7 3.18l-1.95 1.23-.36 4.56c.61.18 1.23.27 1.87.27 2.01 0 3.89-.9 5.15-2.46 1.27-1.56 1.75-3.61 1.33-5.62-.52-2.46-2.52-4.48-4.97-5.02-1.89-.41-3.78-.05-5.33 1.04l-.21.12c-.41.3-.86.66-1.32 1.06a.39.39 0 0 1-.47.03.38.38 0 0 1-.16-.44c.41-1.41.66-2.83.72-4.19.01-.2.02-.39.02-.59l-3.6-.43v.08c0 8.15-6.63 14.78-14.78 14.78s-14.78-6.63-14.78-14.78c0-4.06 1.68-7.96 4.63-10.74l-2.55-2.55a18.46 18.46 0 0 0-5.68 13.29c0 10.13 8.24 18.38 18.38 18.38 4.34 0 8.57-1.56 11.9-4.4.13-.11.32-.12.47-.03.14.1.21.27.16.44l-.08.26c-.05.15-.1.3-.14.46s-.12 1.02-.53 2.44c-.03.12-.07.24-.11.37-.96 3.07-6.88 18.32-30.04 18.49v3.95zM428.08 300.02H360.1c-.22 0-.39-.17-.39-.39v-8.09c0-.22.17-.39.39-.39 8.48 0 15.39-6.9 15.39-15.39v-5.1c0-.22.17-.39.39-.39s.39.17.39.39v5.1c0 8.78-7.04 15.96-15.78 16.16v7.31h67.2v-68.01c0-.22.17-.39.39-.39s.39.17.39.39v68.4c0 .23-.17.4-.39.4z"/><path d="M425.6 272.44c-5.59 0-19.26-1.37-28.66-13.7-2.79 6.82-9.19 11.63-16.49 12.34-4.26.41-8.44-.5-12.08-2.65-1-.59-1.41-1.81-.97-2.92l.11-.27c.25-.64.77-1.14 1.42-1.36.64-.22 1.33-.15 1.91.2 2.92 1.74 6.29 2.42 9.72 1.96 6.47-.87 11.69-5.97 12.69-12.4.83-5.3-1.11-10.49-5.19-13.89l-1.4-.63c-.5-.22-1.09-.01-1.34.48-.24.47-.08 1.04.37 1.33l2.12 1.34c.1.07.17.18.18.3l.4 5.07c.01.18-.09.34-.26.4-.77.27-1.59.4-2.41.4-2.24 0-4.34-1-5.76-2.75s-1.96-4.03-1.48-6.28c.58-2.76 2.82-5.02 5.57-5.62 2.11-.46 4.22-.05 5.94 1.17l.14.07c.18.13.35.25.52.38-.25-1.08-.4-2.15-.45-3.2-.02-.32-.03-.65-.03-.98 0-.2.15-.36.34-.39l4.39-.52c.11-.02.22.02.31.1.08.08.13.19.13.3-.01.17-.01.34-.01.51 0 7.72 6.28 14 14 14s14-6.28 14-14c0-3.98-1.7-7.78-4.67-10.44-.08-.07-.13-.17-.13-.28s.04-.21.11-.29l3.1-3.1a.39.39 0 0 1 .54-.01c3.94 3.62 6.21 8.77 6.21 14.12 0 10.57-8.6 19.16-19.16 19.16-4.14 0-8.17-1.36-11.48-3.85.07.42.21 1.15.47 2.02l.11.35c.93 3 6.75 17.94 29.68 17.94.22 0 .39.17.39.39v4.68c0 .2-.15.36-.34.39-.07.02-1 .13-2.56.13zm-28.76-14.89c.12 0 .24.06.31.16 10.84 14.82 27.91 14.09 30.54 13.88v-3.94c-23.16-.17-29.08-15.42-30.04-18.49l-.11-.37c-.41-1.42-.54-2.45-.54-2.49-.03-.1-.08-.24-.12-.39l-.09-.28c-.05-.17.01-.34.16-.44s.34-.08.47.03c3.33 2.83 7.55 4.4 11.9 4.4 10.13 0 18.38-8.25 18.38-18.38 0-5.01-2.07-9.83-5.68-13.29l-2.55 2.55c2.95 2.79 4.63 6.68 4.63 10.74 0 8.15-6.63 14.78-14.78 14.78s-14.78-6.63-14.78-14.78v-.08l-3.6.43c0 .2.01.4.02.59.07 1.37.31 2.78.72 4.19.05.17-.02.34-.16.44-.15.09-.34.08-.47-.03-.45-.4-.91-.76-1.36-1.08l-.13-.07c-1.58-1.11-3.47-1.48-5.36-1.06-2.45.54-4.45 2.56-4.97 5.02-.42 2.01.06 4.06 1.33 5.62a6.627 6.627 0 0 0 7.02 2.19l-.36-4.56-1.95-1.23a1.8 1.8 0 0 1-.65-2.34c.44-.87 1.47-1.24 2.35-.84l1.45.65c.03.01.06.03.09.06 4.32 3.58 6.37 9.05 5.5 14.64-1.06 6.77-6.55 12.14-13.36 13.05-3.61.48-7.14-.23-10.22-2.06-.38-.23-.84-.27-1.26-.13-.43.15-.78.48-.94.9l-.11.27c-.3.76-.03 1.57.64 1.96 3.5 2.06 7.51 2.94 11.61 2.54 7.23-.7 13.55-5.6 16.09-12.49.05-.13.17-.23.31-.25.03-.02.05-.02.07-.02zM490.75 231.62c-.22 0-.39-.17-.39-.39v-39.32c0-.22.17-.39.39-.39h2.98v-2.13c0-.22.17-.39.39-.39h1.85v-8.72c0-.22.17-.39.39-.39h4.33c.22 0 .39.17.39.39s-.17.39-.39.39h-3.94v8.72c0 .22-.17.39-.39.39h-1.85v2.13c0 .22-.17.39-.39.39h-2.98v38.93c0 .22-.17.39-.39.39z"/><path d="M428.61 192.3h-3.47c-.22 0-.39-.17-.39-.39v-2.13h-1.85c-.22 0-.39-.17-.39-.39v-8.72h-2.27c-.22 0-.39-.17-.39-.39v-3.36c0-.22.17-.39.39-.39h80.46c.22 0 .39.17.39.39v3.36c0 .22-.17.39-.39.39h-77.4V189h1.85c.22 0 .39.17.39.39v2.13h3.08c.22 0 .39.17.39.39a.4.4 0 0 1-.4.39zm-5.71-12.42h77.4v-2.58h-79.68v2.58z"/><path d="M486.46 180.66c-.22 0-.39-.17-.39-.39v-3.36c0-.22.17-.39.39-.39s.39.17.39.39v3.36c0 .22-.17.39-.39.39zM480.71 180.66c-.22 0-.39-.17-.39-.39v-3.36c0-.22.17-.39.39-.39s.39.17.39.39v3.36c0 .22-.17.39-.39.39z"/><path d="M490.75 192.3h-6.88c-.22 0-.39-.17-.39-.39v-2.52c0-.22.17-.39.39-.39h1.85v-8.72c0-.22.17-.39.39-.39s.39.17.39.39v9.11c0 .22-.17.39-.39.39h-1.85v1.74h6.49c.22 0 .39.17.39.39s-.17.39-.39.39z"/><path d="M558.73 300.02h-71.62c-.22 0-.39-.17-.39-.39v-10.21l-3.15-3.44a.37.37 0 0 1-.1-.26v-93.81c0-.22.17-.39.39-.39s.39.17.39.39v93.66l3.15 3.44c.07.07.1.17.1.26v9.97h71.23c.22 0 .39.17.39.39s-.18.39-.39.39zM431.46 300.02c-.22 0-.39-.17-.39-.39v-10.21l-3.15-3.44a.37.37 0 0 1-.1-.26l.4-93.81c0-.21.18-.39.39-.39h11.56v-2.13c0-.22.17-.39.39-.39h1.85v-8.72c0-.22.17-.39.39-.39s.39.17.39.39v9.11c0 .22-.17.39-.39.39h-1.85v2.13c0 .22-.17.39-.39.39H429l-.4 93.27 3.15 3.44c.07.07.1.17.1.26v10.37c0 .21-.17.38-.39.38z"/><path d="M439.48 300.02c-.22 0-.39-.17-.39-.39v-10.21l-3.15-3.44a.37.37 0 0 1-.1-.26v-93.81c0-.22.17-.39.39-.39s.39.17.39.39v93.66l3.15 3.44c.07.07.1.17.1.26v10.37c0 .21-.18.38-.39.38zM428.61 192.3c-.22 0-.39-.17-.39-.39v-2.52c0-.22.17-.39.39-.39h1.85v-8.72c0-.22.17-.39.39-.39s.39.17.39.39v9.11c0 .22-.17.39-.39.39H429v2.13c0 .22-.17.39-.39.39zM478.27 300.02c-.22 0-.39-.17-.39-.39V180.27c0-.22.17-.39.39-.39s.39.17.39.39v119.36c0 .22-.17.39-.39.39z"/><path d="M478.27 189.78h-47.42c-.22 0-.39-.17-.39-.39s.17-.39.39-.39h47.42c.22 0 .39.17.39.39 0 .21-.17.39-.39.39zM494.12 189.78h-8.01c-.22 0-.39-.17-.39-.39s.17-.39.39-.39h8.01c.22 0 .39.17.39.39 0 .21-.17.39-.39.39zM487.11 300.02h-59.03c-.22 0-.39-.17-.39-.39s.17-.39.39-.39h59.03c.22 0 .39.17.39.39s-.17.39-.39.39zM428.08 180.66c-.22 0-.39-.17-.39-.39v-3.36c0-.22.17-.39.39-.39s.39.17.39.39v3.36c0 .22-.17.39-.39.39zM436.69 174.05c-.22 0-.39-.17-.39-.39 0-11.51 7.57-21.25 17.32-22.43l-1.37-3.99c-11.08 1.93-19.39 13.23-19.39 26.42 0 .22-.17.39-.39.39s-.39-.17-.39-.39c0-13.7 8.76-25.42 20.37-27.25.19-.03.37.08.43.26l1.64 4.77c.04.11.02.24-.04.34-.07.1-.17.17-.29.18-9.59.87-17.1 10.4-17.1 21.71-.01.2-.18.38-.4.38z"/><path d="M428.14 174.05c-.22 0-.39-.17-.39-.39 0-13.7 8.76-25.42 20.37-27.25h4.39c.22 0 .39.17.39.39s-.17.39-.39.39h-4.33c-11.18 1.77-19.65 13.15-19.65 26.47 0 .21-.18.39-.39.39zM488.2 174.05c-.22 0-.39-.17-.39-.39 0-13.2-8.31-24.49-19.39-26.42l-1.37 3.99c9.75 1.18 17.32 10.92 17.32 22.43 0 .22-.17.39-.39.39s-.39-.17-.39-.39c0-11.3-7.51-20.84-17.1-21.71-.12-.01-.23-.08-.29-.18s-.08-.23-.04-.34l1.64-4.77c.06-.18.24-.29.43-.26 11.61 1.83 20.37 13.54 20.37 27.25-.01.22-.19.4-.4.4z"/><path d="M468.56 157.34h-16.52c-.22 0-.39-.17-.39-.39V152c0-.22.17-.39.39-.39s.39.17.39.39v4.56h15.74v-4.68c0-.22.17-.39.39-.39s.39.17.39.39v5.07c0 .21-.18.39-.39.39z"/><path d="M468.56 162.1c-.22 0-.39-.17-.39-.39v-4.77c0-.22.17-.39.39-.39s.39.17.39.39v4.77c0 .22-.18.39-.39.39zM452.04 162.1c-.22 0-.39-.17-.39-.39v-4.77c0-.22.17-.39.39-.39s.39.17.39.39v4.77c0 .22-.17.39-.39.39zM465.58 117.12c-.04 0-.08-.01-.12-.02-.2-.07-.32-.29-.25-.49.52-1.61 1.88-6 1.88-7.01 0-2.55-1.1-5.4-1.86-6.23-.14-.16-.13-.41.03-.55s.41-.13.55.03c.98 1.07 2.07 4.19 2.07 6.76 0 1.32-1.72 6.65-1.92 7.26-.06.15-.22.25-.38.25zM467 157.34c-.12 0-.25-.06-.32-.17-.62-.9-1.38-1.73-1.63-1.77-.11 0-.2-.04-.27-.12s-.11-.18-.11-.28l.38-16.26c.02-.15 1.57-8.11 1.57-11.79 0-1.82-.37-2.99-.77-4.24-.16-.49-.31-.98-.44-1.52-.09-.35-.16-.71-.22-1.1-.03-.21.11-.41.33-.44s.41.11.44.33c.06.36.13.7.21 1.03.13.52.28.99.43 1.47.4 1.25.8 2.54.8 4.48 0 3.76-1.51 11.54-1.57 11.87l-.36 15.91c.65.34 1.42 1.35 1.87 2 .12.18.08.42-.1.54-.09.04-.17.06-.24.06zM456.48 157.34a.4.4 0 0 1-.39-.36l-.98-15.04c-.07-.35-1.8-9.7-1.8-14.13 0-4.58.47-5.96 1.41-8.72.88-2.58-1.21-11.79-1.39-12.56l-4.72-8.8c-.02-.02-1.33-1.74-1.33-3.26 0-1.41 3.88-14.57 4.4-16.34v-3.28c0-.22.17-.39.39-.39h3.23c.22 0 .39.17.39.39v5a.4.4 0 0 1-.08.23l-1.18 1.61-3.27 12.07 4.85 7.6 2.03.2v-1.37c-.68-.47-2.95-2.23-3.07-5.21-.41-.2-1.2-.7-1.57-1.63-.35-.88-.22-1.9.37-3.04 1.56-3 3.98-2.5 4.64-2.29.83-.36 4.9-1.99 7.01-.63.84.54 1.26 1.45 1.26 2.72 0 .22-.17.39-.39.39s-.39-.17-.39-.39c0-1-.3-1.67-.9-2.06-1.95-1.25-6.36.73-6.41.75a.36.36 0 0 1-.32 0c-.09-.04-2.34-.95-3.82 1.87-.48.93-.6 1.73-.33 2.4.37.93 1.35 1.28 1.36 1.29.16.06.26.2.26.37 0 3.16 2.86 4.9 2.89 4.92.12.07.19.2.19.33v2.01c0 .11-.05.21-.13.29s-.19.11-.3.1l-2.65-.26a.38.38 0 0 1-.29-.18l-5.04-7.91a.38.38 0 0 1-.05-.31l3.33-12.31a.31.31 0 0 1 .06-.13l1.15-1.56v-4.48h-2.45v2.94c0 .04-.01.07-.02.11-1.76 5.96-4.38 15.18-4.38 16.17 0 1.26 1.19 2.82 1.2 2.84l4.78 8.9a.3.3 0 0 1 .04.1c.1.41 2.36 10.14 1.38 13.04-.94 2.76-1.37 4.02-1.37 8.46 0 4.36 1.77 13.94 1.79 14.03l.98 15.09c.01.21-.15.4-.36.41.01.01 0 .01-.01.01zM463.2 157.34c-.21 0-.38-.16-.39-.37 0-.02-.13-1.95-1.28-1.95-.03 0-.06 0-.09-.01l-2.44-.55a.382.382 0 0 1-.3-.41l.66-7.6c.02-.21.2-.37.42-.35.21.02.37.21.35.42l-.63 7.26 2.06.46c1.84.04 2 2.58 2.01 2.69.01.21-.15.4-.37.41z"/><path d="M467.77 119.47c-.06 0-.12-.01-.17-.04a.398.398 0 0 1-.18-.52l4.36-8.76c-.06-.96-1.05-1.48-1.07-1.49-.03-.02-.07-.04-.1-.07l-5.38-5.21c-.33-.33-1.33-1.22-1.98-1.39a.387.387 0 0 1-.29-.38v-1.88c0-.19.14-.36.33-.39.55-.09 1.5-.37 1.83-.77l.06-1.89c0-.1.04-.19.12-.26a12 12 0 0 1 .84-.76c-.26-.52-.8-1.6-.88-1.78-.11-.24-.13-.49-.14-.68-.04-.52-.11-.83-.18-1.16-.07-.35-.15-.7-.19-1.28-.02-.21.15-.4.36-.42.2-.01.4.15.42.36.04.52.11.83.18 1.17.07.35.15.7.19 1.28.01.15.02.3.07.4.11.23 1.02 2.04 1.02 2.04.08.16.04.36-.11.48-.31.25-.62.52-.91.8l-.06 1.85c0 .07-.02.13-.06.19-.42.69-1.53 1.02-2.1 1.15v1.28c.91.38 1.91 1.37 2.03 1.49l5.34 5.17c.28.16 1.44.89 1.44 2.24 0 .06-.01.12-.04.17l-4.41 8.85c-.06.13-.2.21-.34.21z"/><path d="M459.37 95.39c-.35 0-.7-.02-1.02-.05-.21-.01-.38-.2-.36-.42s.22-.38.42-.36c.75.05 1.59.11 2.3-.16.93-.36 1.57-1.25 2.2-2.12l.16-.22c.7-.97 1.69-2.09 3.06-2.25.22-.02.41.13.43.34s-.13.41-.34.43c-1.07.12-1.9 1.09-2.51 1.93l-.16.21c-.66.91-1.41 1.94-2.55 2.39-.54.22-1.09.28-1.63.28zM463.36 95.69c-.22 0-.39-.17-.39-.39v-.61c0-.22.17-.39.39-.39s.39.17.39.39v.61c0 .22-.17.39-.39.39zM458.67 100.12c-.1 0-.19-.04-.27-.1a.403.403 0 0 1-.12-.36l.04-.18a.39.39 0 0 1 .46-.3c.01 0 .02 0 .03.01l.02-.02a5.27 5.27 0 0 0 1.54-3.15c.02-.21.21-.37.43-.35a.4.4 0 0 1 .35.43 6.018 6.018 0 0 1-1.77 3.63c-.16.16-.35.31-.6.39-.04-.01-.08 0-.11 0zM463.66 122.43c-.12 0-.24-.06-.31-.15l-.16-.21c-.38-.49-.77-1-.95-1.62-.06-.22-.12-.49-.09-.78s.16-.54.27-.76c.32-.63.72-1.42 1.43-1.89.42-.28.88-.42 1.37-.55.21-.06.42.07.48.28s-.07.42-.28.48c-.43.12-.82.23-1.13.44-.54.36-.88 1.02-1.17 1.6-.09.17-.17.34-.19.49s.02.32.06.47c.11.39.35.75.62 1.11.84-1.31 2.3-2.18 3.86-2.28.23-.01.4.15.41.36s-.15.4-.36.41c-1.47.09-2.88 1.05-3.51 2.37-.06.12-.18.21-.31.22-.01.01-.02.01-.04.01zM467.07 107.97c-.03 0-.07 0-.1-.01-1.56-.41-3.38-.96-5.02-1.9-1.75-1-3.08-2.34-3.83-3.86-.1-.19-.02-.43.18-.52.19-.09.43-.02.52.18.68 1.38 1.9 2.6 3.52 3.53 1.57.9 3.32 1.43 4.84 1.82.21.05.33.27.28.48-.06.17-.22.28-.39.28zM455.3 119.11c-.11 0-.22-.05-.3-.14a.385.385 0 0 1 .05-.55c1.39-1.16 2.21-3.13 2.43-5.84.29-3.58-.36-7.19-1.87-10.45-.09-.2-.01-.43.19-.52s.43-.01.52.19c1.57 3.38 2.24 7.13 1.94 10.84-.24 2.93-1.15 5.07-2.71 6.38-.07.06-.16.09-.25.09zM465.24 147.18h-.02c-.29-.01-7.24-.32-9.86-2.95-.15-.15-.15-.4 0-.55s.4-.15.55 0c2.41 2.41 9.27 2.72 9.34 2.72.21.01.38.19.37.41 0 .21-.17.37-.38.37zM503.84 177.3h-3.14c-.22 0-.39-.17-.39-.39s.17-.39.39-.39h2.75v-2.47h-86.56v2.47h3.36c.22 0 .39.17.39.39s-.17.39-.39.39h-3.75c-.22 0-.39-.17-.39-.39v-3.26c0-.22.17-.39.39-.39h87.34c.22 0 .39.17.39.39v3.26c0 .22-.18.39-.39.39z"/><path d="M425.47 177.3c-.22 0-.39-.17-.39-.39v-3.26c0-.22.17-.39.39-.39s.39.17.39.39v3.26c0 .22-.18.39-.39.39zM467.61 278.68h-15.72c-.22 0-.39-.17-.39-.39v-78.77c0-.22.17-.39.39-.39h15.72c.22 0 .39.17.39.39v78.77c0 .22-.18.39-.39.39zm-15.34-.78h14.94v-77.99h-14.94z"/><path d="M462.49 271.12H457c-.22 0-.39-.17-.39-.39v-63.65c0-.22.17-.39.39-.39h5.48c.22 0 .39.17.39.39v63.65c.01.22-.17.39-.38.39zm-5.1-.78h4.7v-62.87h-4.7zM451.88 278.68h-4.2c-.22 0-.39-.17-.39-.39v-78.77c0-.22.17-.39.39-.39h4.2c.22 0 .39.17.39.39s-.17.39-.39.39h-3.81v77.99h3.81c.22 0 .39.17.39.39s-.17.39-.39.39zM439.48 289.66h-8.02c-.22 0-.39-.17-.39-.39s.17-.39.39-.39h8.02c.22 0 .39.17.39.39s-.18.39-.39.39zM494 289.66h-6.88c-.22 0-.39-.17-.39-.39s.17-.39.39-.39H494c.22 0 .39.17.39.39s-.18.39-.39.39zM622.77 307.04H290.65c-.22 0-.39-.17-.39-.39v-7.02c0-.22.17-.39.39-.39h69.45c.22 0 .39.17.39.39s-.17.39-.39.39h-69.06v6.24h331.33v-6.24h-72.31c-.22 0-.39-.17-.39-.39s.17-.39.39-.39h72.7c.22 0 .39.17.39.39v7.02c.01.22-.17.39-.38.39zM321.95 295.4c-.76 0-1.53-.04-2.3-.13-9.39-1.04-16.98-8.95-17.65-18.4-.67-9.4 5.1-17.81 14.04-20.55l.08-1.19c.01-.09.05-.18.11-.25l.29-.29c.33-.33.52-.78.52-1.25s-.18-.92-.52-1.25l-.44-.44c-.11-.11-.14-.28-.08-.43s.2-.24.36-.24h11.54c.16 0 .3.09.36.24s.03.31-.08.43l-.44.44c-.33.33-.52.78-.52 1.25s.18.92.52 1.25l.29.29c.07.07.11.17.11.28v1.27c8.24 2.69 13.76 10.29 13.76 18.99 0 5.67-2.43 11.1-6.65 14.89-3.71 3.32-8.37 5.09-13.3 5.09zm-5.06-40.07l-.08 1.32c-.01.16-.12.3-.28.35-8.74 2.56-14.39 10.71-13.75 19.83.64 9.08 7.94 16.68 16.96 17.68 5.55.61 10.87-1.08 14.99-4.77 4.06-3.64 6.39-8.85 6.39-14.31 0-8.46-5.42-15.83-13.49-18.34a.387.387 0 0 1-.27-.37v-1.4l-.18-.18c-.48-.48-.75-1.12-.75-1.8 0-.58.19-1.13.55-1.58h-9.71a2.535 2.535 0 0 1-.2 3.38z"/><path d="M336.27 299.23c-.13 0-.25-.06-.33-.18l-1.38-2.1h-1.91c-.22 0-.39-.17-.39-.39v-1.89c0-.1.04-.2.11-.28l1.69-1.69v-2.24c0-.22.17-.39.39-.39s.39.17.39.39v2.4c0 .1-.04.2-.11.28l-1.69 1.69v1.34h1.73c.13 0 .25.07.33.18l1.49 2.27c.12.18.07.42-.11.54-.06.05-.13.07-.21.07zM307.04 299.23c-.07 0-.15-.02-.21-.06a.388.388 0 0 1-.11-.54l1.49-2.27a.4.4 0 0 1 .33-.18h1.73v-1.34l-1.7-1.69a.393.393 0 0 1-.11-.28v-2.4c0-.22.17-.39.39-.39s.39.17.39.39v2.24l1.7 1.69c.07.07.11.17.11.28v1.89c0 .22-.17.39-.39.39h-1.91l-1.38 2.1c-.08.1-.2.17-.33.17zM327.75 257.1h-11.34c-.22 0-.39-.17-.39-.39s.17-.39.39-.39h11.34c.22 0 .39.17.39.39s-.18.39-.39.39zM326.13 251.76a.398.398 0 0 1-.33-.6c.28-.46.32-1.08.1-1.57-.2-.44-.57-.79-.96-1.16-.14-.13-.29-.27-.42-.41-.6-.61-.91-1.27-.91-1.88h-3.12c0 .61-.31 1.27-.91 1.88-.14.14-.28.27-.42.41-.39.37-.77.72-.96 1.16-.22.49-.18 1.11.1 1.57.11.18.05.42-.13.54-.18.11-.42.05-.54-.13-.42-.68-.47-1.56-.15-2.29.26-.58.71-1 1.14-1.41.14-.13.27-.25.4-.39.26-.27.85-.96.64-1.61a.368.368 0 0 1 .06-.35c.07-.1.19-.16.32-.16h4.02c.12 0 .24.06.32.16.07.1.09.23.06.35-.21.64.38 1.34.64 1.61.13.13.26.26.4.38.43.41.88.83 1.14 1.41.33.73.27 1.61-.15 2.29-.08.13-.21.2-.34.2zM322.08 244.1c-2.07 0-3.75-1.68-3.75-3.75s1.68-3.75 3.75-3.75 3.75 1.68 3.75 3.75c.01 2.06-1.68 3.75-3.75 3.75zm0-6.73a2.97 2.97 0 1 0 0 5.94 2.97 2.97 0 0 0 0-5.94z"/><path d="M323.36 246.15c-.22 0-.39-.17-.39-.39v-2.05c0-.22.17-.39.39-.39s.39.17.39.39v2.05c0 .22-.17.39-.39.39zM320.7 246.15c-.22 0-.39-.17-.39-.39v-2.35c0-.22.17-.39.39-.39s.39.17.39.39v2.35c.01.22-.17.39-.39.39zM594.78 295.4c-.76 0-1.53-.04-2.3-.13-9.39-1.04-16.98-8.95-17.65-18.4-.67-9.4 5.1-17.81 14.04-20.55l.08-1.19c.01-.09.05-.18.11-.25l.29-.29c.69-.69.69-1.81 0-2.5l-.44-.44c-.11-.11-.14-.28-.08-.43s.2-.24.36-.24h11.54c.16 0 .3.09.36.24s.03.31-.08.43l-.44.44c-.69.69-.69 1.81 0 2.5l.29.29c.07.07.11.17.11.28v1.27c8.24 2.69 13.76 10.29 13.76 18.99 0 5.67-2.43 11.1-6.65 14.89-3.72 3.32-8.38 5.09-13.3 5.09zm-5.07-40.07l-.08 1.32c-.01.16-.12.3-.28.35-8.74 2.56-14.39 10.71-13.75 19.83.64 9.08 7.94 16.68 16.96 17.68 5.55.61 10.87-1.08 14.99-4.77 4.06-3.64 6.4-8.85 6.4-14.31 0-8.46-5.42-15.83-13.49-18.34a.387.387 0 0 1-.27-.37v-1.4l-.18-.18c-.92-.92-.99-2.38-.2-3.38h-9.71c.79 1 .72 2.46-.2 3.38z"/><path d="M609.1 299.23c-.13 0-.25-.06-.33-.18l-1.38-2.1h-1.91c-.22 0-.39-.17-.39-.39v-1.89c0-.1.04-.2.11-.28l1.7-1.69v-2.24c0-.22.17-.39.39-.39s.39.17.39.39v2.4c0 .1-.04.2-.11.28l-1.7 1.69v1.34h1.73c.13 0 .25.07.33.18l1.49 2.27c.12.18.07.42-.11.54-.07.05-.14.07-.21.07zM579.87 299.23c-.07 0-.15-.02-.21-.06a.388.388 0 0 1-.11-.54l1.49-2.27a.4.4 0 0 1 .33-.18h1.73v-1.34l-1.69-1.69a.393.393 0 0 1-.11-.28v-2.4c0-.22.17-.39.39-.39s.39.17.39.39v2.24l1.69 1.69c.07.07.11.17.11.28v1.89c0 .22-.17.39-.39.39h-1.91l-1.38 2.1c-.08.1-.21.17-.33.17zM600.57 257.1h-11.34c-.22 0-.39-.17-.39-.39s.17-.39.39-.39h11.34c.22 0 .39.17.39.39s-.17.39-.39.39zM598.95 251.76a.398.398 0 0 1-.33-.6c.28-.46.32-1.08.1-1.57-.19-.44-.57-.79-.96-1.16-.14-.13-.29-.27-.42-.41-.6-.61-.91-1.27-.91-1.88h-3.12c0 .61-.31 1.27-.91 1.88-.14.14-.28.27-.42.41-.39.37-.77.72-.96 1.16-.22.49-.18 1.11.1 1.57.11.18.05.42-.13.54-.18.11-.42.05-.54-.13-.42-.68-.47-1.56-.15-2.29.26-.58.71-1 1.14-1.41.14-.13.27-.25.4-.39.26-.27.85-.96.64-1.61a.368.368 0 0 1 .06-.35c.07-.1.19-.16.32-.16h4.02c.12 0 .24.06.32.16.07.1.09.23.06.35-.21.64.38 1.34.64 1.61.13.13.26.26.4.39.43.41.88.83 1.14 1.41.33.73.27 1.61-.15 2.29-.08.12-.21.19-.34.19zM594.9 244.1c-2.07 0-3.75-1.68-3.75-3.75s1.68-3.75 3.75-3.75 3.75 1.68 3.75 3.75c.01 2.06-1.68 3.75-3.75 3.75zm0-6.73a2.97 2.97 0 1 0 2.97 2.97c.01-1.64-1.33-2.97-2.97-2.97z"/><path d="M596.19 246.15c-.22 0-.39-.17-.39-.39v-2.05c0-.22.17-.39.39-.39s.39.17.39.39v2.05c0 .22-.18.39-.39.39zM593.53 246.15c-.22 0-.39-.17-.39-.39v-2.35c0-.22.17-.39.39-.39s.39.17.39.39v2.35c0 .22-.18.39-.39.39zM618.97 312.65H295.18c-.22 0-.39-.17-.39-.39v-5.22h-4.14c-.22 0-.39-.17-.39-.39s.17-.39.39-.39h4.53c.22 0 .39.17.39.39v5.22h323.01v-5.22c0-.22.17-.39.39-.39s.39.17.39.39v5.61c0 .22-.18.39-.39.39z"/><path d="M568.63 307.04c-.22 0-.39-.17-.39-.39v-7.02c0-.22.17-.39.39-.39s.39.17.39.39v7.02c0 .22-.17.39-.39.39zM564.84 312.65c-.22 0-.39-.17-.39-.39v-5.61c0-.22.17-.39.39-.39s.39.17.39.39v5.61c0 .22-.18.39-.39.39zM346.69 307.04c-.22 0-.39-.17-.39-.39v-7.02c0-.22.17-.39.39-.39s.39.17.39.39v7.02c0 .22-.17.39-.39.39zM342.9 312.65c-.22 0-.39-.17-.39-.39v-5.61c0-.22.17-.39.39-.39s.39.17.39.39v5.61c0 .22-.18.39-.39.39zM611.69 417.33c-.22 0-.39-.17-.39-.39v-18.32c0-.22.17-.39.39-.39h2.25v-3.71h-2.25c-.22 0-.39-.17-.39-.39v-81.87c0-.22.17-.39.39-.39s.39.17.39.39v81.48h2.25c.22 0 .39.17.39.39v4.49c0 .22-.17.39-.39.39h-2.25v17.93c0 .22-.17.39-.39.39zM299.55 417.33c-.22 0-.39-.17-.39-.39v-17.93h-2.25c-.22 0-.39-.17-.39-.39v-4.49c0-.22.17-.39.39-.39h2.25v-81.48c0-.22.17-.39.39-.39s.39.17.39.39v81.87c0 .22-.17.39-.39.39h-2.25v3.71h2.25c.22 0 .39.17.39.39v18.32c0 .22-.17.39-.39.39zM573.91 417.33c-.22 0-.39-.17-.39-.39v-17.93h-2.25c-.22 0-.39-.17-.39-.39v-4.49c0-.22.17-.39.39-.39h2.25v-81.48c0-.22.17-.39.39-.39s.39.17.39.39v81.87c0 .22-.17.39-.39.39h-2.25v3.71h2.25c.22 0 .39.17.39.39v18.32c0 .22-.17.39-.39.39zM338.2 417.33c-.22 0-.39-.17-.39-.39v-18.32c0-.22.17-.39.39-.39h2.25v-3.71h-2.25c-.22 0-.39-.17-.39-.39v-81.87c0-.22.17-.39.39-.39s.39.17.39.39v81.48h2.25c.22 0 .39.17.39.39v4.49c0 .22-.17.39-.39.39h-2.25v17.93c0 .22-.17.39-.39.39z"/><path d="M614.33 399.01h-43.06c-.22 0-.39-.17-.39-.39s.17-.39.39-.39h43.06c.22 0 .39.17.39.39s-.17.39-.39.39zM338.2 399.01h-38.65c-.22 0-.39-.17-.39-.39s.17-.39.39-.39h38.65c.22 0 .39.17.39.39s-.17.39-.39.39zM611.91 492.64c-.22 0-.39-.17-.39-.39v-39.97c0-.22.17-.39.39-.39h2.25v-3.71h-2.25c-.22 0-.39-.17-.39-.39v-16.92c0-.22.17-.39.39-.39s.39.17.39.39v16.53h2.25c.22 0 .39.17.39.39v4.49c0 .22-.17.39-.39.39h-2.25v39.58c0 .22-.17.39-.39.39zM299.55 492.64c-.22 0-.39-.17-.39-.39v-39.58h-2.25c-.22 0-.39-.17-.39-.39v-4.49c0-.22.17-.39.39-.39h2.25v-16.53c0-.22.17-.39.39-.39s.39.17.39.39v16.92c0 .22-.17.39-.39.39h-2.25v3.71h2.25c.22 0 .39.17.39.39v39.97c0 .22-.17.39-.39.39zM573.48 492.64c-.22 0-.39-.17-.39-.39v-39.58h-2.25c-.22 0-.39-.17-.39-.39v-4.49c0-.22.17-.39.39-.39h2.25v-16.53c0-.22.17-.39.39-.39s.39.17.39.39v16.92c0 .22-.17.39-.39.39h-2.25v3.71h2.25c.22 0 .39.17.39.39v39.97c0 .22-.18.39-.39.39zM338.2 492.64c-.22 0-.39-.17-.39-.39v-39.97c0-.22.17-.39.39-.39h2.25v-3.71h-2.25c-.22 0-.39-.17-.39-.39v-16.92c0-.22.17-.39.39-.39s.39.17.39.39v16.53h2.25c.22 0 .39.17.39.39v4.49c0 .22-.17.39-.39.39h-2.25v39.58c0 .22-.17.39-.39.39z"/><path d="M611.91 452.67h-38.43c-.22 0-.39-.17-.39-.39s.17-.39.39-.39h38.43c.22 0 .39.17.39.39s-.17.39-.39.39zM338.2 452.67h-38.65c-.22 0-.39-.17-.39-.39s.17-.39.39-.39h38.65c.22 0 .39.17.39.39s-.17.39-.39.39zM611.91 548.41c-.22 0-.39-.17-.39-.39v-50.8c0-.22.17-.39.39-.39h2.25v-3.71h-42.93v3.71h2.25c.22 0 .39.17.39.39v50.8c0 .22-.17.39-.39.39s-.39-.17-.39-.39v-50.41h-2.25c-.22 0-.39-.17-.39-.39v-4.49c0-.22.17-.39.39-.39h43.71c.22 0 .39.17.39.39v4.49c0 .22-.17.39-.39.39h-2.25v50.41c0 .21-.17.39-.39.39zM299.55 548.41c-.22 0-.39-.17-.39-.39v-50.41h-2.25c-.22 0-.39-.17-.39-.39v-4.49c0-.22.17-.39.39-.39h2.64c.22 0 .39.17.39.39s-.17.39-.39.39h-2.25v3.71h2.25c.22 0 .39.17.39.39v50.8c0 .21-.17.39-.39.39zM338.2 548.41c-.22 0-.39-.17-.39-.39v-50.8c0-.22.17-.39.39-.39h2.25v-3.71h-2.25c-.22 0-.39-.17-.39-.39s.17-.39.39-.39h2.64c.22 0 .39.17.39.39v4.49c0 .22-.17.39-.39.39h-2.25v50.41c0 .21-.17.39-.39.39z"/><path d="M614.12 497.61h-43.06c-.22 0-.39-.17-.39-.39s.17-.39.39-.39h43.06c.22 0 .39.17.39.39s-.18.39-.39.39zM338.2 497.61h-38.65c-.22 0-.39-.17-.39-.39s.17-.39.39-.39h38.65c.22 0 .39.17.39.39s-.17.39-.39.39zM611.91 582.52c-.22 0-.39-.17-.39-.39v-29.15c0-.22.17-.39.39-.39h2.25v-3.71h-42.93v3.71h2.25c.22 0 .39.17.39.39v29.15c0 .22-.17.39-.39.39s-.39-.17-.39-.39v-28.75h-2.25c-.22 0-.39-.17-.39-.39v-4.49c0-.22.17-.39.39-.39h43.71c.22 0 .39.17.39.39v4.49c0 .22-.17.39-.39.39h-2.25v28.75c0 .21-.17.39-.39.39zM338.2 582.52c-.22 0-.39-.17-.39-.39v-29.15c0-.22.17-.39.39-.39h2.25v-3.71H297.3v3.71h2.25c.22 0 .39.17.39.39v29.15c0 .22-.17.39-.39.39s-.39-.17-.39-.39v-28.75h-2.25c-.22 0-.39-.17-.39-.39v-4.49c0-.22.17-.39.39-.39h43.93c.22 0 .39.17.39.39v4.49c0 .22-.17.39-.39.39h-2.25v28.75c0 .21-.17.39-.39.39z"/><path d="M340.84 686.98h-43.93c-.22 0-.39-.17-.39-.39v-5.39c0-.22.17-.39.39-.39h2.25v-93.32h-2.25c-.22 0-.39-.17-.39-.39v-4.49c0-.22.17-.39.39-.39h43.93c.22 0 .39.17.39.39v4.49c0 .22-.17.39-.39.39h-2.25v93.32h2.25c.22 0 .39.17.39.39v5.39c0 .21-.17.39-.39.39zm-43.54-.78h43.15v-4.61h-2.25c-.22 0-.39-.17-.39-.39v-94.1c0-.22.17-.39.39-.39h2.25V583H297.3v3.71h2.25c.22 0 .39.17.39.39v94.1c0 .22-.17.39-.39.39h-2.25zM614.77 686.98h-43.93c-.22 0-.39-.17-.39-.39v-5.39c0-.22.17-.39.39-.39h2.25v-93.32h-2.25c-.22 0-.39-.17-.39-.39v-4.49c0-.22.17-.39.39-.39h43.93c.22 0 .39.17.39.39v4.49c0 .22-.17.39-.39.39h-2.25v93.32h2.25c.22 0 .39.17.39.39v5.39c0 .21-.18.39-.39.39zm-43.54-.78h43.15v-4.61h-2.25c-.22 0-.39-.17-.39-.39v-94.1c0-.22.17-.39.39-.39h2.25V583h-43.15v3.71h2.25c.22 0 .39.17.39.39v94.1c0 .22-.17.39-.39.39h-2.25z"/><path d="M611.91 726.95c-.22 0-.39-.17-.39-.39v-39.97c0-.22.17-.39.39-.39s.39.17.39.39v39.97c0 .21-.17.39-.39.39zM299.55 726.95c-.22 0-.39-.17-.39-.39v-39.97c0-.22.17-.39.39-.39s.39.17.39.39v39.97c0 .21-.17.39-.39.39zM573.48 726.95c-.22 0-.39-.17-.39-.39v-39.97c0-.22.17-.39.39-.39s.39.17.39.39v39.97c0 .21-.18.39-.39.39zM338.2 726.95c-.22 0-.39-.17-.39-.39v-39.97c0-.22.17-.39.39-.39s.39.17.39.39v39.97c0 .21-.17.39-.39.39z"/><path d="M614.77 731.91H296.91c-.22 0-.39-.17-.39-.39v-4.49c0-.22.17-.39.39-.39h43.93c.22 0 .39.17.39.39v4.1h229.22v-4.1c0-.22.17-.39.39-.39h43.93c.22 0 .39.17.39.39v4.49c0 .22-.18.39-.39.39zm-43.54-.78h43.15v-3.71h-43.15zm-233.03 0h2.25v-3.71H297.3v3.71zM614.33 587.48h-79.35c-.22 0-.39-.17-.39-.39s.17-.39.39-.39h79.35c.22 0 .39.17.39.39s-.17.39-.39.39zM338.2 587.48h-38.65c-.22 0-.39-.17-.39-.39s.17-.39.39-.39h38.65c.22 0 .39.17.39.39s-.17.39-.39.39zM617.82 430.79H295.6c-.22 0-.39-.17-.39-.39v-2.6h-1.78c-.22 0-.39-.17-.39-.39v-3.72h-2.39c-.22 0-.39-.17-.39-.39v-6.36c0-.22.17-.39.39-.39h332.11c.22 0 .39.17.39.39v6.36c0 .22-.17.39-.39.39h-2.39v3.72c0 .22-.17.39-.39.39h-1.78v2.6c.01.22-.17.39-.38.39zm-321.83-.78h321.43v-2.6c0-.22.17-.39.39-.39h1.78v-3.72c0-.22.17-.39.39-.39h2.39v-5.58H291.04v5.58h2.39c.22 0 .39.17.39.39v3.72h1.78c.22 0 .39.17.39.39zM570.84 681.58h-230c-.22 0-.39-.17-.39-.39s.17-.39.39-.39h230c.22 0 .39.17.39.39s-.18.39-.39.39zM570.84 686.98h-230c-.22 0-.39-.17-.39-.39s.17-.39.39-.39h230c.22 0 .39.17.39.39s-.18.39-.39.39z"/><path d="M619.98 423.69H293.43c-.22 0-.39-.17-.39-.39s.17-.39.39-.39h326.55c.22 0 .39.17.39.39s-.17.39-.39.39zM548.19 406.68H363.15c-.22 0-.39-.17-.39-.39v-4.26l-12.11-5.5a.386.386 0 0 1-.23-.36v-4.09l-7.15-4.47h-5.07c-.22 0-.39-.17-.39-.39s.17-.39.39-.39h5.19c.07 0 .14.02.21.06l7.43 4.64c.11.07.18.2.18.33v4.06l12.11 5.5c.14.06.23.2.23.36v4.12H547.8v-4.12c0-.15.09-.29.23-.36l12.11-5.5v-4.06a.4.4 0 0 1 .18-.33l7.43-4.64a.37.37 0 0 1 .21-.06h5.64v-45.87h-5.64a.42.42 0 0 1-.21-.06l-7.43-4.64a.4.4 0 0 1-.18-.33v-4.06l-12.11-5.5a.386.386 0 0 1-.23-.36v-4.12H363.54v4.12c0 .15-.09.29-.23.36l-12.11 5.5v4.06a.4.4 0 0 1-.18.33l-7.43 4.64a.37.37 0 0 1-.21.06h-5.19c-.22 0-.39-.17-.39-.39s.17-.39.39-.39h5.07l7.15-4.47v-4.09c0-.15.09-.29.23-.36l12.11-5.5v-4.26c0-.22.17-.39.39-.39h185.04c.22 0 .39.17.39.39v4.26l12.11 5.5c.14.06.23.2.23.36v4.09l7.15 4.47h5.92c.22 0 .39.17.39.39v46.65c0 .22-.17.39-.39.39h-5.92l-7.15 4.47v4.09c0 .15-.09.29-.23.36l-12.11 5.5v4.26c.01.21-.16.39-.38.39z"/><path d="M543.86 402.35H367.48c-.22 0-.39-.17-.39-.39v-2.72l-12.11-5.5a.386.386 0 0 1-.23-.36v-3.7l-10.24-6.4h-2.83c-.22 0-.39-.17-.39-.39V344.9c0-.22.17-.39.39-.39h2.83l10.24-6.4v-3.7c0-.15.09-.29.23-.36l12.11-5.5v-2.72c0-.22.17-.39.39-.39h176.38c.22 0 .39.17.39.39v2.72l12.11 5.5c.14.06.23.2.23.36v3.7l10.24 6.4h2.83c.22 0 .39.17.39.39v37.99c0 .22-.17.39-.39.39h-2.83l-10.24 6.4v3.7c0 .15-.09.29-.23.36l-12.11 5.5v2.72c0 .21-.17.39-.39.39zm-175.99-.78h175.6v-2.58c0-.15.09-.29.23-.36l12.11-5.5v-3.67a.4.4 0 0 1 .18-.33l10.52-6.57a.37.37 0 0 1 .21-.06h2.55v-37.2h-2.55a.42.42 0 0 1-.21-.06l-10.52-6.57a.4.4 0 0 1-.18-.33v-3.67l-12.11-5.5a.386.386 0 0 1-.23-.36v-2.58h-175.6v2.58c0 .15-.09.29-.23.36l-12.11 5.5v3.67a.4.4 0 0 1-.18.33l-10.52 6.57a.37.37 0 0 1-.21.06h-2.55v37.2h2.55c.07 0 .14.02.21.06l10.52 6.57c.11.07.18.2.18.33v3.67l12.11 5.5c.14.06.23.2.23.36zM570.84 452.67h-230c-.22 0-.39-.17-.39-.39s.17-.39.39-.39h230c.22 0 .39.17.39.39s-.18.39-.39.39z"/><path d="M537.42 638.05h-18.65c-.22 0-.39-.17-.39-.39v-3.36c0-.11.04-.21.12-.28a.41.41 0 0 1 .28-.11l2.7.07V459.71c-1.02 1.6-2.85 2.67-4.46 2.67-2.89 0-5.24-2.35-5.24-5.24s2.35-5.24 5.24-5.24h22.81c2.89 0 5.24 2.35 5.24 5.24s-2.35 5.24-5.24 5.24c-1.88 0-3.54-1-4.46-2.49v174.1h2.05c.22 0 .39.17.39.39v3.29c0 .2-.17.38-.39.38zm-18.26-.78h17.87v-2.51h-2.05c-.22 0-.39-.17-.39-.39V457.13c0-.22.17-.39.39-.39s.39.17.39.39c0 2.46 2 4.46 4.46 4.46s4.46-2 4.46-4.46-2-4.46-4.46-4.46h-22.81c-2.46 0-4.46 2-4.46 4.46s2 4.46 4.46 4.46c2.02 0 4.46-1.99 4.46-4.46 0-.22.17-.39.39-.39s.39.17.39.39v177.24c0 .11-.04.21-.12.28a.37.37 0 0 1-.28.11l-2.7-.07z"/><path d="M534.98 461.2h-13.11c-.22 0-.39-.17-.39-.39s.17-.39.39-.39h13.11c.22 0 .39.17.39.39 0 .21-.17.39-.39.39zM537.84 649.68h-19.95c-.22 0-.39-.17-.39-.39v-2.94l1.59-8.76c.04-.21.24-.36.45-.31.21.04.35.24.31.45l-1.58 8.69.01 2.48h19.17v-2.55l-1.4-8.63a.4.4 0 0 1 .32-.45c.22-.03.41.11.45.32l1.4 8.69.01 3.01c0 .22-.17.39-.39.39zM538.26 457.52h-3.28c-.22 0-.39-.17-.39-.39s.17-.39.39-.39h3.28c.22 0 .39.17.39.39s-.17.39-.39.39zM521.88 457.52h-3.52c-.22 0-.39-.17-.39-.39s.17-.39.39-.39h3.52c.22 0 .39.17.39.39s-.18.39-.39.39z"/><path d="M540.5 681.58c-.22 0-.39-.17-.39-.39v-22.12h-.94c-.22 0-.39-.17-.39-.39v-6.17c0-.22.17-.39.39-.39h.94v-2.44h-2.27c-.22 0-.39-.17-.39-.39s.17-.39.39-.39h2.66c.22 0 .39.17.39.39v3.22c0 .22-.17.39-.39.39h-.94v5.39h.94c.22 0 .39.17.39.39v22.51c.01.22-.17.39-.39.39zM515.41 681.58c-.22 0-.39-.17-.39-.39v-22.51c0-.22.17-.39.39-.39h1.01v-5.67h-1.01c-.22 0-.39-.17-.39-.39v-2.94c0-.22.17-.39.39-.39h2.48c.22 0 .39.17.39.39s-.17.39-.39.39h-2.09v2.16h1.01c.22 0 .39.17.39.39v6.45c0 .22-.17.39-.39.39h-1.01v22.12c0 .22-.17.39-.39.39z"/><path d="M539.17 659.08h-22.36c-.22 0-.39-.17-.39-.39s.17-.39.39-.39h22.36c.22 0 .39.17.39.39s-.17.39-.39.39zM513.11 638.05c-.22 0-.39-.17-.39-.39v-3.36c0-.11.04-.21.12-.28s.18-.11.28-.11l2.7.07V462.31l-4.46.06c-2.9 0-5.25-2.35-5.25-5.24s2.35-5.24 5.24-5.24c.22 0 .39.17.39.39s-.17.39-.39.39c-2.46 0-4.46 2-4.46 4.46s2 4.46 4.46 4.46l4.85-.07c.1.02.21.04.28.11s.12.17.12.28v172.45c0 .11-.04.21-.12.28a.37.37 0 0 1-.28.11l-2.7-.07v2.96c0 .23-.17.41-.39.41z"/><path d="M512.23 649.68c-.22 0-.39-.17-.39-.39v-2.94l1.59-8.76c.03-.19.2-.32.38-.32h5.52c.22 0 .39.17.39.39s-.17.39-.39.39h-5.19l-1.52 8.37.01 2.87a.4.4 0 0 1-.4.39z"/><path d="M509.75 681.58c-.22 0-.39-.17-.39-.39v-22.51c0-.22.17-.39.39-.39h1.01v-5.67h-1.01c-.22 0-.39-.17-.39-.39v-2.94c0-.22.17-.39.39-.39h5.66c.22 0 .39.17.39.39s-.17.39-.39.39h-5.27v2.16h1.01c.22 0 .39.17.39.39v6.45c0 .22-.17.39-.39.39h-1.01v22.12c0 .22-.18.39-.39.39z"/><path d="M515.41 652.63h-4.26c-.22 0-.39-.17-.39-.39s.17-.39.39-.39h4.26c.22 0 .39.17.39.39s-.17.39-.39.39zM515.41 659.08h-4.26c-.22 0-.39-.17-.39-.39s.17-.39.39-.39h4.26c.22 0 .39.17.39.39s-.17.39-.39.39zM537.42 926.85h-18.65c-.22 0-.39-.17-.39-.39s.17-.39.39-.39h18.26v-2.51h-2.05c-.22 0-.39-.17-.39-.39V820.4c0-.22.17-.39.39-.39s.39.17.39.39v102.39h2.05c.22 0 .39.17.39.39v3.29c0 .21-.17.38-.39.38z"/><path d="M517.89 938.49c-.22 0-.39-.17-.39-.39v-2.94l1.59-8.76c.04-.21.24-.36.45-.31.21.04.35.24.31.45l-1.58 8.69.01 2.87c0 .21-.17.39-.39.39zM537.84 938.49c-.22 0-.39-.17-.39-.39v-2.94l-1.4-8.63a.4.4 0 0 1 .32-.45c.22-.03.41.11.45.32l1.4 8.69.01 3.01c0 .21-.17.39-.39.39zM540.5 958.91c-.22 0-.39-.17-.39-.39v-20.01h-.94c-.22 0-.39-.17-.39-.39s.17-.39.39-.39h1.33c.22 0 .39.17.39.39v20.4c.01.21-.17.39-.39.39zM515.41 958.91c-.22 0-.39-.17-.39-.39v-20.4c0-.22.17-.39.39-.39h1.4c.22 0 .39.17.39.39s-.17.39-.39.39h-1.01v20.01c0 .21-.17.39-.39.39z"/><path d="M539.17 938.51h-22.36c-.22 0-.39-.17-.39-.39s.17-.39.39-.39h22.36c.22 0 .39.17.39.39 0 .21-.17.39-.39.39zM513.11 926.85c-.22 0-.39-.17-.39-.39v-3.36c0-.11.04-.21.12-.28s.18-.1.28-.11l2.7.07V820.33c0-.22.17-.39.39-.39s.39.17.39.39v102.84c0 .11-.04.21-.12.28a.41.41 0 0 1-.28.11l-2.7-.07v2.96c0 .23-.17.4-.39.4z"/><path d="M512.23 938.49c-.22 0-.39-.17-.39-.39v-2.94l1.59-8.76c.03-.19.2-.32.38-.32h5.52c.22 0 .39.17.39.39s-.17.39-.39.39h-5.19l-1.52 8.37.01 2.87c-.01.21-.18.39-.4.39zM509.75 958.91c-.22 0-.39-.17-.39-.39v-20.4c0-.22.17-.39.39-.39h1.4c.22 0 .39.17.39.39s-.17.39-.39.39h-1.01v20.01c0 .21-.18.39-.39.39z"/><path d="M515.41 938.51h-4.26c-.22 0-.39-.17-.39-.39s.17-.39.39-.39h4.26c.22 0 .39.17.39.39 0 .21-.17.39-.39.39zM404.26 638.05h-18.65c-.22 0-.39-.17-.39-.39v-3.36c0-.11.04-.21.12-.28.07-.07.2-.11.28-.11l2.7.07V459.71c-1.02 1.6-2.85 2.67-4.46 2.67-2.89 0-5.24-2.35-5.24-5.24s2.35-5.24 5.24-5.24h22.81c2.89 0 5.24 2.35 5.24 5.24s-2.35 5.24-5.24 5.24c-1.88 0-3.54-1-4.46-2.49v174.1h2.05c.22 0 .39.17.39.39v3.29c0 .2-.18.38-.39.38zm-18.26-.78h17.87v-2.51h-2.05c-.22 0-.39-.17-.39-.39V457.13c0-.22.17-.39.39-.39s.39.17.39.39c0 2.46 2 4.46 4.46 4.46s4.46-2 4.46-4.46-2-4.46-4.46-4.46h-22.81c-2.46 0-4.46 2-4.46 4.46s2 4.46 4.46 4.46c2.02 0 4.46-1.99 4.46-4.46 0-.22.17-.39.39-.39s.39.17.39.39v177.24c0 .11-.04.21-.12.28-.07.07-.16.12-.28.11l-2.7-.07z"/><path d="M401.82 461.2h-13.11c-.22 0-.39-.17-.39-.39s.17-.39.39-.39h13.11c.22 0 .39.17.39.39 0 .21-.18.39-.39.39zM404.68 649.68h-19.95c-.22 0-.39-.17-.39-.39v-2.94l1.59-8.76c.04-.21.24-.36.45-.31.21.04.35.24.31.45l-1.58 8.69.01 2.48h19.17v-2.55l-1.4-8.63a.4.4 0 0 1 .32-.45.4.4 0 0 1 .45.32l1.4 8.69.01 3.01c0 .22-.18.39-.39.39zM405.1 457.52h-3.28c-.22 0-.39-.17-.39-.39s.17-.39.39-.39h3.28c.22 0 .39.17.39.39s-.18.39-.39.39zM388.71 457.52h-3.52c-.22 0-.39-.17-.39-.39s.17-.39.39-.39h3.52c.22 0 .39.17.39.39s-.17.39-.39.39z"/><path d="M407.34 681.58c-.22 0-.39-.17-.39-.39v-22.12h-.94c-.22 0-.39-.17-.39-.39v-6.17c0-.22.17-.39.39-.39h.94v-2.44h-2.27c-.22 0-.39-.17-.39-.39s.17-.39.39-.39h2.66c.22 0 .39.17.39.39v3.22c0 .22-.17.39-.39.39h-.94v5.39h.94c.22 0 .39.17.39.39v22.51c0 .22-.17.39-.39.39zM382.25 681.58c-.22 0-.39-.17-.39-.39v-22.51c0-.22.17-.39.39-.39h1.01v-5.39h-1.01c-.22 0-.39-.17-.39-.39v-3.22c0-.22.17-.39.39-.39h2.48c.22 0 .39.17.39.39s-.17.39-.39.39h-2.09v2.44h1.01c.22 0 .39.17.39.39v6.17c0 .22-.17.39-.39.39h-1.01v22.12c0 .22-.18.39-.39.39z"/><path d="M406.01 659.08h-22.36c-.22 0-.39-.17-.39-.39s.17-.39.39-.39h22.36c.22 0 .39.17.39.39s-.17.39-.39.39zM379.95 638.05c-.22 0-.39-.17-.39-.39v-3.36c0-.11.04-.21.12-.28s.2-.11.28-.11l2.7.07v-80.99c0-.22.17-.39.39-.39s.39.17.39.39v81.39c0 .11-.04.21-.12.28-.07.07-.16.12-.28.11l-2.7-.07v2.96c0 .21-.18.39-.39.39zM383.05 548.88c-.22 0-.39-.17-.39-.39v-86.18l-4.46.06c-2.9 0-5.25-2.35-5.25-5.24s2.35-5.24 5.24-5.24c.22 0 .39.17.39.39s-.17.39-.39.39c-2.46 0-4.46 2-4.46 4.46s2 4.46 4.46 4.46l4.85-.07c.11.02.21.04.28.11s.12.17.12.28v86.58c0 .22-.18.39-.39.39z"/><path d="M379.07 649.68c-.22 0-.39-.17-.39-.39v-2.94l1.59-8.76c.03-.19.2-.32.38-.32h5.52c.22 0 .39.17.39.39s-.17.39-.39.39h-5.19l-1.52 8.37.01 2.87c-.01.22-.19.39-.4.39z"/><path d="M376.58 681.58c-.22 0-.39-.17-.39-.39v-22.51c0-.22.17-.39.39-.39h1.01v-5.39h-1.68c-.22 0-.39-.17-.39-.39v-3.22c0-.22.17-.39.39-.39h6.33c.22 0 .39.17.39.39s-.17.39-.39.39h-5.94v2.44h1.68c.22 0 .39.17.39.39v6.17c0 .22-.17.39-.39.39h-1.01v22.12c0 .22-.17.39-.39.39z"/><path d="M382.25 652.91h-4.26c-.22 0-.39-.17-.39-.39s.17-.39.39-.39h4.26c.22 0 .39.17.39.39s-.18.39-.39.39zM382.25 659.08h-4.26c-.22 0-.39-.17-.39-.39s.17-.39.39-.39h4.26c.22 0 .39.17.39.39s-.18.39-.39.39zM570.84 727.43h-230c-.22 0-.39-.17-.39-.39s.17-.39.39-.39h230c.22 0 .39.17.39.39s-.18.39-.39.39zM385.19 553.37h-44.35c-.22 0-.39-.17-.39-.39s.17-.39.39-.39h43.96v-3.71h-43.96c-.22 0-.39-.17-.39-.39s.17-.39.39-.39h44.35c.22 0 .39.17.39.39v4.49c0 .22-.17.39-.39.39zM570.84 553.37h-35.86c-.22 0-.39-.17-.39-.39s.17-.39.39-.39h35.86c.22 0 .39.17.39.39s-.18.39-.39.39zM570.84 548.88h-35.86c-.22 0-.39-.17-.39-.39s.17-.39.39-.39h35.86c.22 0 .39.17.39.39s-.18.39-.39.39zM611.91 553.37h-38.43c-.22 0-.39-.17-.39-.39s.17-.39.39-.39h38.43c.22 0 .39.17.39.39s-.17.39-.39.39zM338.2 553.37h-38.65c-.22 0-.39-.17-.39-.39s.17-.39.39-.39h38.65c.22 0 .39.17.39.39s-.17.39-.39.39zM516.21 553.37h-6.47c-.22 0-.39-.17-.39-.39v-4.96c0-.22.17-.39.39-.39s.39.17.39.39v4.57h6.07c.22 0 .39.17.39.39a.37.37 0 0 1-.38.39z"/><path d="M407.91 553.37h-6.09c-.22 0-.39-.17-.39-.39s.17-.39.39-.39h5.7v-4.18h-2.66c-.22 0-.39-.17-.39-.39 0-14.6 4.64-28.72 13.07-39.77 8.35-10.94 19.87-18.21 32.44-20.46.18-.03.36.07.43.23l.98 2.37h14.17l.98-2.39c.07-.17.25-.27.43-.24 12.59 2.23 24.13 9.49 32.49 20.44 8.44 11.05 13.09 25.19 13.09 39.81 0 .22-.17.39-.39.39s-.39-.17-.39-.39c0-14.44-4.59-28.41-12.93-39.33-8.18-10.71-19.42-17.83-31.7-20.09l-.96 2.34a.38.38 0 0 1-.36.24h-14.69a.38.38 0 0 1-.36-.24l-.96-2.32c-12.26 2.28-23.48 9.41-31.64 20.11-8.25 10.82-12.83 24.62-12.91 38.91h2.66c.22 0 .39.17.39.39v4.96a.4.4 0 0 1-.4.39z"/><path d="M450.05 488.55c-.18 0-.34-.12-.38-.3l-1.35-5.51-2.49.53c-.12.02-.24 0-.33-.08a.4.4 0 0 1-.15-.3v-30.61c0-.22.17-.39.39-.39h26.73c.22 0 .39.17.39.39v18.35c0 .04-.01.08-.02.12l-5.57 17.52c-.06.2-.28.32-.49.25s-.32-.28-.25-.49l5.55-17.46v-17.9h-25.95v29.74l2.39-.5c.21-.04.41.09.46.29l1.44 5.88a.39.39 0 0 1-.29.47h-.08zM509.75 553.18h-19.19c-.22 0-.39-.17-.39-.39v-4.96c0-.22.17-.39.39-.39h2.42c.22 0 .39.17.39.39s-.17.39-.39.39h-2.03v4.18h18.8c.22 0 .39.17.39.39s-.18.39-.39.39z"/><path d="M512.17 548.21h-19.19c-.22 0-.39-.17-.39-.39 0-25.59-14.35-48.44-35.71-56.86-.2-.08-.3-.31-.22-.51s.31-.3.51-.22c21.54 8.5 36.06 31.45 36.2 57.2h18.8c.22 0 .39.17.39.39s-.17.39-.39.39zM492.98 681.58c-.22 0-.39-.17-.39-.39v-69.1c0-.22.17-.39.39-.39s.39.17.39.39v69.1c0 .22-.17.39-.39.39zM410.79 716.83h-2.36a.39.39 0 0 1-.39-.39l-.25-24.55c0-.1.04-.2.11-.28.07-.07.17-.12.28-.12h4.45c.22 0 .39.17.39.39v4.37c0 .22-.17.39-.39.39-.8 0-1.45.69-1.45 1.53v7.6c0 .84.65 1.53 1.45 1.53.22 0 .39.17.39.39v2.15c0 .04 0 .07-.01.11l-1.84 6.59c-.05.17-.2.29-.38.29zm-1.97-.78h1.68l1.75-6.25v-1.74c-1.05-.19-1.84-1.14-1.84-2.27v-7.6c0-1.14.8-2.08 1.84-2.28v-3.62h-3.67zM509.2 716.83h-2.36a.4.4 0 0 1-.38-.28l-1.84-6.59c-.01-.03-.01-.07-.01-.11v-2.15c0-.22.17-.39.39-.39.8 0 1.45-.69 1.45-1.53v-7.6c0-.84-.65-1.53-1.45-1.53-.22 0-.39-.17-.39-.39v-4.37c0-.22.17-.39.39-.39h4.45a.395.395 0 0 1 .39.4l-.25 24.55c0 .21-.18.38-.39.38zm-2.06-.78h1.68l.24-23.76h-3.67v3.62c1.05.19 1.84 1.14 1.84 2.28v7.6c0 1.14-.8 2.08-1.84 2.27v1.74zM420.58 716.83h-3.15a.4.4 0 0 1-.38-.28l-1.84-6.59c-.01-.03-.01-.07-.01-.11v-2.15c0-.22.17-.39.39-.39.8 0 1.45-.69 1.45-1.53v-7.6c0-.84-.65-1.53-1.45-1.53-.22 0-.39-.17-.39-.39v-4.37c0-.22.17-.39.39-.39h6.84c.22 0 .39.17.39.39v4.37c0 .22-.17.39-.39.39-.8 0-1.45.69-1.45 1.53v7.6c0 .84.65 1.53 1.45 1.53.22 0 .39.17.39.39v2.15c0 .04 0 .07-.01.11l-1.84 6.59c-.06.16-.22.28-.39.28zm-2.86-.78h2.56l1.75-6.25v-1.74c-1.05-.19-1.84-1.14-1.84-2.27v-7.6c0-1.14.8-2.08 1.84-2.28v-3.62h-6.06v3.62c1.04.19 1.84 1.14 1.84 2.28v7.6c0 1.14-.8 2.08-1.84 2.27v1.74zM430.12 716.83h-3.15a.4.4 0 0 1-.38-.28l-1.84-6.59c-.01-.03-.01-.07-.01-.11v-2.15c0-.22.17-.39.39-.39.8 0 1.45-.69 1.45-1.53v-7.6c0-.84-.65-1.53-1.45-1.53-.22 0-.39-.17-.39-.39v-4.37c0-.22.17-.39.39-.39h6.84c.22 0 .39.17.39.39v4.37c0 .22-.17.39-.39.39-.8 0-1.45.69-1.45 1.53v7.6c0 .84.65 1.53 1.45 1.53.22 0 .39.17.39.39v2.15c0 .04 0 .07-.01.11l-1.84 6.59c-.06.16-.21.28-.39.28zm-2.85-.78h2.56l1.75-6.25v-1.74c-1.04-.19-1.84-1.14-1.84-2.27v-7.6c0-1.14.8-2.08 1.84-2.28v-3.62h-6.06v3.62c1.05.19 1.84 1.14 1.84 2.28v7.6c0 1.14-.8 2.08-1.84 2.27v1.74zM439.99 716.83h-3.15a.4.4 0 0 1-.38-.28l-1.84-6.59c-.01-.03-.01-.07-.01-.11v-2.15c0-.22.17-.39.39-.39.8 0 1.45-.69 1.45-1.53v-7.6c0-.84-.65-1.53-1.45-1.53-.22 0-.39-.17-.39-.39v-4.37c0-.22.17-.39.39-.39h6.84c.22 0 .39.17.39.39v4.37c0 .22-.17.39-.39.39-.8 0-1.45.69-1.45 1.53v7.6c0 .84.65 1.53 1.45 1.53.22 0 .39.17.39.39v2.15c0 .04 0 .07-.01.11l-1.84 6.59c-.06.16-.21.28-.39.28zm-2.85-.78h2.56l1.75-6.25v-1.74c-1.05-.19-1.84-1.14-1.84-2.27v-7.6c0-1.14.8-2.08 1.84-2.28v-3.62h-6.06v3.62c1.05.19 1.84 1.14 1.84 2.28v7.6c0 1.14-.8 2.08-1.84 2.27v1.74zM450.53 716.83h-3.15a.4.4 0 0 1-.38-.28l-1.84-6.59c-.01-.03-.01-.07-.01-.11v-2.15c0-.22.17-.39.39-.39.8 0 1.45-.69 1.45-1.53v-7.6c0-.84-.65-1.53-1.45-1.53-.22 0-.39-.17-.39-.39v-4.37c0-.22.17-.39.39-.39h6.84c.22 0 .39.17.39.39v4.37c0 .22-.17.39-.39.39-.8 0-1.45.69-1.45 1.53v7.6c0 .84.65 1.53 1.45 1.53.22 0 .39.17.39.39v2.15c0 .04 0 .07-.01.11l-1.84 6.59c-.06.16-.21.28-.39.28zm-2.86-.78h2.56l1.75-6.25v-1.74c-1.05-.19-1.84-1.14-1.84-2.27v-7.6c0-1.14.8-2.08 1.84-2.28v-3.62h-6.06v3.62c1.05.19 1.84 1.14 1.84 2.28v7.6c0 1.14-.8 2.08-1.84 2.27v1.74zM461.07 716.83h-3.15a.4.4 0 0 1-.38-.28l-1.84-6.59c-.01-.03-.01-.07-.01-.11v-2.15c0-.22.17-.39.39-.39.8 0 1.45-.69 1.45-1.53v-7.6c0-.84-.65-1.53-1.45-1.53-.22 0-.39-.17-.39-.39v-4.37c0-.22.17-.39.39-.39h6.84c.22 0 .39.17.39.39v4.37c0 .22-.17.39-.39.39-.8 0-1.45.69-1.45 1.53v7.6c0 .84.65 1.53 1.45 1.53.22 0 .39.17.39.39v2.15c0 .04 0 .07-.01.11l-1.84 6.59c-.06.16-.22.28-.39.28zm-2.86-.78h2.56l1.75-6.25v-1.74c-1.05-.19-1.84-1.14-1.84-2.27v-7.6c0-1.14.8-2.08 1.84-2.28v-3.62h-6.06v3.62c1.05.19 1.84 1.14 1.84 2.28v7.6c0 1.14-.8 2.08-1.84 2.27v1.74zM470.59 716.83h-3.15a.4.4 0 0 1-.38-.28l-1.84-6.59c-.01-.03-.01-.07-.01-.11v-2.15c0-.22.17-.39.39-.39.8 0 1.45-.69 1.45-1.53v-7.6c0-.84-.65-1.53-1.45-1.53-.22 0-.39-.17-.39-.39v-4.37c0-.22.17-.39.39-.39h6.84c.22 0 .39.17.39.39v4.37c0 .22-.17.39-.39.39-.8 0-1.45.69-1.45 1.53v7.6c0 .84.65 1.53 1.45 1.53.22 0 .39.17.39.39v2.15c0 .04 0 .07-.01.11l-1.84 6.59c-.06.16-.21.28-.39.28zm-2.85-.78h2.56l1.75-6.25v-1.74c-1.05-.19-1.84-1.14-1.84-2.27v-7.6c0-1.14.8-2.08 1.84-2.28v-3.62h-6.06v3.62c1.04.19 1.84 1.14 1.84 2.28v7.6c0 1.14-.8 2.08-1.84 2.27v1.74zM480.21 716.83h-3.15a.4.4 0 0 1-.38-.28l-1.84-6.59c-.01-.03-.01-.07-.01-.11v-2.15c0-.22.17-.39.39-.39.8 0 1.45-.69 1.45-1.53v-7.6c0-.84-.65-1.53-1.45-1.53-.22 0-.39-.17-.39-.39v-4.37c0-.22.17-.39.39-.39h6.84c.22 0 .39.17.39.39v4.37c0 .22-.17.39-.39.39-.8 0-1.45.69-1.45 1.53v7.6c0 .84.65 1.53 1.45 1.53.22 0 .39.17.39.39v2.15c0 .04 0 .07-.01.11l-1.84 6.59c-.06.16-.22.28-.39.28zm-2.86-.78h2.56l1.75-6.25v-1.74c-1.05-.19-1.84-1.14-1.84-2.27v-7.6c0-1.14.8-2.08 1.84-2.28v-3.62h-6.06v3.62c1.05.19 1.84 1.14 1.84 2.28v7.6c0 1.14-.8 2.08-1.84 2.27v1.74zM490.1 716.83h-3.15a.4.4 0 0 1-.38-.28l-1.84-6.59c-.01-.03-.01-.07-.01-.11v-2.15c0-.22.17-.39.39-.39.8 0 1.45-.69 1.45-1.53v-7.6c0-.84-.65-1.53-1.45-1.53-.22 0-.39-.17-.39-.39v-4.37c0-.22.17-.39.39-.39h6.84c.22 0 .39.17.39.39v4.37c0 .22-.17.39-.39.39-.8 0-1.45.69-1.45 1.53v7.6c0 .84.65 1.53 1.45 1.53.22 0 .39.17.39.39v2.15c0 .04 0 .07-.01.11l-1.84 6.59c-.06.16-.21.28-.39.28zm-2.85-.78h2.56l1.75-6.25v-1.74c-1.05-.19-1.84-1.14-1.84-2.27v-7.6c0-1.14.8-2.08 1.84-2.28v-3.62h-6.06v3.62c1.05.19 1.84 1.14 1.84 2.28v7.6c0 1.14-.8 2.08-1.84 2.27v1.74zM499.91 716.83h-3.15a.4.4 0 0 1-.38-.28l-1.84-6.59c-.01-.03-.01-.07-.01-.11v-2.15c0-.22.17-.39.39-.39.8 0 1.45-.69 1.45-1.53v-7.6c0-.84-.65-1.53-1.45-1.53-.22 0-.39-.17-.39-.39v-4.37c0-.22.17-.39.39-.39h6.84c.22 0 .39.17.39.39v4.37c0 .22-.17.39-.39.39-.8 0-1.45.69-1.45 1.53v7.6c0 .84.65 1.53 1.45 1.53.22 0 .39.17.39.39v2.15c0 .04 0 .07-.01.11l-1.84 6.59c-.06.16-.21.28-.39.28zm-2.85-.78h2.56l1.75-6.25v-1.74c-1.05-.19-1.84-1.14-1.84-2.27v-7.6c0-1.14.8-2.08 1.84-2.28v-3.62h-6.06v3.62c1.05.19 1.84 1.14 1.84 2.28v7.6c0 1.14-.8 2.08-1.84 2.27v1.74zM490.56 553.18h-82.65c-.22 0-.39-.17-.39-.39s.17-.39.39-.39h82.65c.22 0 .39.17.39.39s-.18.39-.39.39z"/><path d="M494.73 612.48h-92.92c-.22 0-.39-.17-.39-.39s.17-.39.39-.39h92.53v-3.68h-1.36c-.22 0-.39-.17-.39-.39v-16.88c0-.22.17-.39.39-.39s.39.17.39.39v16.49h1.36c.22 0 .39.17.39.39v4.46c0 .22-.17.39-.39.39z"/><path d="M460.65 681.58c-.22 0-.39-.17-.39-.39v-69.1c0-.22.17-.39.39-.39s.39.17.39.39v69.1c0 .22-.17.39-.39.39zM428.83 681.58c-.22 0-.39-.17-.39-.39v-69.1c0-.22.17-.39.39-.39s.39.17.39.39v69.1c0 .22-.18.39-.39.39zM487.48 647.74h-8.02c-.22 0-.39-.17-.39-.39v-29.27c0-.22.17-.39.39-.39h8.02c.22 0 .39.17.39.39v29.27c0 .21-.18.39-.39.39zm-7.63-.78h7.24v-28.49h-7.24zM474.06 647.74h-8.02c-.22 0-.39-.17-.39-.39v-29.27c0-.22.17-.39.39-.39h8.02c.22 0 .39.17.39.39v29.27c0 .21-.17.39-.39.39zm-7.62-.78h7.24v-28.49h-7.24zM487.48 681.58c-.22 0-.39-.17-.39-.39v-29.17h-7.24v29.17c0 .22-.17.39-.39.39s-.39-.17-.39-.39v-29.56c0-.22.17-.39.39-.39h8.02c.22 0 .39.17.39.39v29.56c0 .22-.18.39-.39.39zM474.06 681.58c-.22 0-.39-.17-.39-.39v-29.17h-7.24v29.17c0 .22-.17.39-.39.39s-.39-.17-.39-.39v-29.56c0-.22.17-.39.39-.39h8.02c.22 0 .39.17.39.39v29.56c0 .22-.17.39-.39.39zM455.46 647.74h-8.02c-.22 0-.39-.17-.39-.39v-29.27c0-.22.17-.39.39-.39h8.02c.22 0 .39.17.39.39v29.27c0 .21-.18.39-.39.39zm-7.63-.78h7.24v-28.49h-7.24zM442.04 647.74h-8.02c-.22 0-.39-.17-.39-.39v-29.27c0-.22.17-.39.39-.39h8.02c.22 0 .39.17.39.39v29.27c0 .21-.17.39-.39.39zm-7.63-.78h7.24v-28.49h-7.24zM455.46 681.58c-.22 0-.39-.17-.39-.39v-29.17h-7.24v29.17c0 .22-.17.39-.39.39s-.39-.17-.39-.39v-29.56c0-.22.17-.39.39-.39h8.02c.22 0 .39.17.39.39v29.56c0 .22-.18.39-.39.39zM442.04 681.58c-.22 0-.39-.17-.39-.39v-29.17h-7.24v29.17c0 .22-.17.39-.39.39s-.39-.17-.39-.39v-29.56c0-.22.17-.39.39-.39h8.02c.22 0 .39.17.39.39v29.56c0 .22-.17.39-.39.39zM423.35 647.74h-8.02c-.22 0-.39-.17-.39-.39v-29.27c0-.22.17-.39.39-.39h8.02c.22 0 .39.17.39.39v29.27c0 .21-.17.39-.39.39zm-7.63-.78h7.24v-28.49h-7.24zM409.94 647.74h-5.26c-.22 0-.39-.17-.39-.39s.17-.39.39-.39h4.87v-28.49h-7.63c-.22 0-.39-.17-.39-.39s.17-.39.39-.39h8.02c.22 0 .39.17.39.39v29.27c0 .21-.18.39-.39.39zM487.48 603.28h-8.02c-.22 0-.39-.17-.39-.39v-7.57c0-.22.17-.39.39-.39h8.02c.22 0 .39.17.39.39v7.57c0 .22-.18.39-.39.39zm-7.63-.78h7.24v-6.79h-7.24zM474.06 603.28h-8.02c-.22 0-.39-.17-.39-.39v-7.57c0-.22.17-.39.39-.39h8.02c.22 0 .39.17.39.39v7.57c0 .22-.17.39-.39.39zm-7.62-.78h7.24v-6.79h-7.24zM455.46 603.28h-8.02c-.22 0-.39-.17-.39-.39v-7.57c0-.22.17-.39.39-.39h8.02c.22 0 .39.17.39.39v7.57c0 .22-.18.39-.39.39zm-7.63-.78h7.24v-6.79h-7.24zM442.04 603.28h-8.02c-.22 0-.39-.17-.39-.39v-7.57c0-.22.17-.39.39-.39h8.02c.22 0 .39.17.39.39v7.57c0 .22-.17.39-.39.39zm-7.63-.78h7.24v-6.79h-7.24zM423.35 603.28h-8.02c-.22 0-.39-.17-.39-.39v-7.57c0-.22.17-.39.39-.39h8.02c.22 0 .39.17.39.39v7.57c0 .22-.17.39-.39.39zm-7.63-.78h7.24v-6.79h-7.24zM409.94 603.28h-8.12c-.22 0-.39-.17-.39-.39s.17-.39.39-.39h7.73v-6.79h-7.63c-.22 0-.39-.17-.39-.39s.17-.39.39-.39h8.02c.22 0 .39.17.39.39v7.57c0 .22-.18.39-.39.39zM423.35 681.58c-.22 0-.39-.17-.39-.39v-29.17h-7.24v29.17c0 .22-.17.39-.39.39s-.39-.17-.39-.39v-29.56c0-.22.17-.39.39-.39h8.02c.22 0 .39.17.39.39v29.56c0 .22-.17.39-.39.39zM409.94 681.58c-.22 0-.39-.17-.39-.39v-29.17h-2.21c-.22 0-.39-.17-.39-.39s.17-.39.39-.39h2.6c.22 0 .39.17.39.39v29.56c0 .22-.18.39-.39.39zM383.05 587.48h-42.21c-.22 0-.39-.17-.39-.39s.17-.39.39-.39h42.21c.22 0 .39.17.39.39s-.18.39-.39.39zM472.59 444.26h-21.42c-2.04 0-3.7-1.69-3.7-3.76v-10.24c0-.22.17-.39.39-.39s.39.17.39.39v10.24c0 1.64 1.31 2.98 2.92 2.98h21.42c1.61 0 2.92-1.33 2.92-2.98v-10.24c0-.22.17-.39.39-.39s.39.17.39.39v10.24c0 2.08-1.66 3.76-3.7 3.76zM375.93 579.29h-29.15c-.22 0-.39-.17-.39-.39v-18.51c0-.22.17-.39.39-.39h29.15c.22 0 .39.17.39.39v18.51c0 .21-.18.39-.39.39zm-28.76-.78h28.37v-17.73h-28.37z"/><path d="M373.85 577.26h-25c-.22 0-.39-.17-.39-.39v-14.45c0-.22.17-.39.39-.39h25c.22 0 .39.17.39.39v14.45c0 .21-.17.39-.39.39zm-24.61-.78h24.22v-13.67h-24.22zM612.13 958.91H299.55c-.22 0-.39-.17-.39-.39v-227c0-.22.17-.39.39-.39s.39.17.39.39v226.6h311.8V829.38c0-.22.17-.39.39-.39s.39.17.39.39v129.14c0 .21-.18.39-.39.39z"/><path d="M709.35 820.75H304.06c-.22 0-.39-.17-.39-.39v-3.53c0-.22.17-.39.39-.39h2.69v-26.36h-2.69c-.22 0-.39-.17-.39-.39v-3.31c0-.22.17-.39.39-.39h405.29c.22 0 .39.17.39.39v3.31c0 .22-.17.39-.39.39h-2.69v26.36h2.69c.22 0 .39.17.39.39v3.53c0 .22-.18.39-.39.39zm-404.9-.78h404.51v-2.75h-2.69c-.22 0-.39-.17-.39-.39V789.7c0-.22.17-.39.39-.39h2.69v-2.53H304.45v2.53h2.69c.22 0 .39.17.39.39v27.14c0 .22-.17.39-.39.39h-2.69z"/><path d="M702.04 786.78c-.04 0-.08-.01-.12-.02l-100.68-31.64-44.83.68c-.19-.01-.39-.17-.4-.38 0-.22.17-.39.38-.4l44.89-.69c.04 0 .08.01.12.02L702.14 786c.21.06.32.28.26.49-.04.18-.19.29-.36.29zM706.26 790.09H307.14c-.22 0-.39-.17-.39-.39s.17-.39.39-.39h399.12c.22 0 .39.17.39.39s-.17.39-.39.39zM616.6 780.89c-.04 0-.08-.01-.12-.02l-60.07-20.31-60.07 20.31c-.2.07-.43-.04-.49-.24-.07-.2.04-.43.24-.49l60.19-20.35c.08-.03.17-.03.25 0l60.19 20.35c.2.07.31.29.24.49-.05.16-.2.26-.36.26z"/><path d="M411.34 820.75c-.22 0-.39-.17-.39-.39v-3.14h-2.69c-.22 0-.39-.17-.39-.39V789.7c0-.22.17-.39.39-.39h2.69v-2.63L306.6 755.11a.39.39 0 0 1 .12-.76h158.66l91.04.69c.22 0 .39.18.39.39s-.18.39-.39.39l-91.03-.69H309.35l102.1 30.89c.16.05.28.2.28.37v3.31c0 .22-.17.39-.39.39h-2.69v26.36h2.69c.22 0 .39.17.39.39v3.53c0 .21-.18.38-.39.38z"/><path d="M616.6 786.78c-.22 0-.39-.17-.39-.39v-5.89c0-.22.17-.39.39-.39h3.08l2.99-2.81-66.36-21.5c-2.46.32-47.9 15.39-66.18 21.5l3 2.81h3.08c.22 0 .39.17.39.39v5.89c0 .22-.17.39-.39.39s-.39-.17-.39-.39v-5.5h-2.85c-.1 0-.19-.04-.27-.11l-3.59-3.36a.384.384 0 0 1-.11-.37.42.42 0 0 1 .26-.29c60.79-20.32 66.55-21.72 67.25-21.7v-.01l67.01 21.71c.13.04.23.15.26.29a.39.39 0 0 1-.11.37l-3.59 3.36c-.07.07-.17.11-.27.11h-2.85v5.5c.03.22-.14.39-.36.39zM611.91 757.93c-.22 0-.39-.17-.39-.39v-26.02c0-.22.17-.39.39-.39s.39.17.39.39v26.02c0 .21-.17.39-.39.39zM592.9 743.01c-9.8 0-17.77-5.16-17.77-11.49 0-.22.17-.39.39-.39s.39.17.39.39c0 5.91 7.62 10.71 16.99 10.71s16.99-4.81 16.99-10.71c0-.22.17-.39.39-.39s.39.17.39.39c0 6.34-7.97 11.49-17.77 11.49zM318.88 743.01c-9.8 0-17.77-5.16-17.77-11.49 0-.22.17-.39.39-.39s.39.17.39.39c0 5.91 7.62 10.71 16.99 10.71s16.99-4.81 16.99-10.71c0-.22.17-.39.39-.39s.39.17.39.39c0 6.34-7.97 11.49-17.77 11.49zM458.47 743.01c-30.52 0-62.09-4.3-62.09-11.49 0-.22.17-.39.39-.39s.39.17.39.39c0 5.17 24.64 10.71 61.31 10.71 16.46 0 31.93-1.15 43.56-3.25 11.28-2.03 17.75-4.75 17.75-7.47 0-.22.17-.39.39-.39s.39.17.39.39c.01 7.21-31.56 11.5-62.09 11.5zM571.06 958.91c-.22 0-.39-.17-.39-.39V820.36c0-.22.17-.39.39-.39s.39.17.39.39v138.15a.4.4 0 0 1-.39.4zM340.84 958.91c-.22 0-.39-.17-.39-.39V820.36c0-.22.17-.39.39-.39s.39.17.39.39v138.15c0 .22-.17.4-.39.4zM534.98 634.76h-18.77c-.22 0-.39-.17-.39-.39s.17-.39.39-.39h18.77c.22 0 .39.17.39.39s-.17.39-.39.39zM385.61 634.76h-2.56c-.22 0-.39-.17-.39-.39s.17-.39.39-.39h2.56c.22 0 .39.17.39.39s-.17.39-.39.39zM534.98 923.57h-18.77c-.22 0-.39-.17-.39-.39s.17-.39.39-.39h18.77c.22 0 .39.17.39.39s-.17.39-.39.39zM404.3 926.87h-18.65c-.22 0-.39-.17-.39-.39s.17-.39.39-.39h18.26v-2.51h-2.05c-.22 0-.39-.17-.39-.39V820.42c0-.22.17-.39.39-.39s.39.17.39.39V922.8h2.05c.22 0 .39.17.39.39v3.29c0 .21-.18.39-.39.39z"/><path d="M384.77 938.51c-.22 0-.39-.17-.39-.39v-2.94l1.59-8.76c.04-.21.25-.36.45-.31.21.04.35.24.31.45l-1.58 8.69.01 2.87c0 .21-.17.39-.39.39zM404.72 938.51c-.22 0-.39-.17-.39-.39v-2.94l-1.4-8.63c-.03-.21.11-.41.32-.45s.41.11.45.32l1.4 8.69.01 3.01c0 .21-.18.39-.39.39zM407.38 958.92c-.22 0-.39-.17-.39-.39V938.5h-.94c-.22 0-.39-.17-.39-.39s.17-.39.39-.39h1.33c.22 0 .39.17.39.39v20.42c0 .22-.17.39-.39.39zM382.29 958.92c-.22 0-.39-.17-.39-.39v-20.42c0-.22.17-.39.39-.39h1.4c.22 0 .39.17.39.39s-.17.39-.39.39h-1.01v20.03c0 .22-.18.39-.39.39z"/><path d="M406.05 938.51h-22.36c-.22 0-.39-.17-.39-.39s.17-.39.39-.39h22.36c.22 0 .39.17.39.39 0 .21-.18.39-.39.39zM379.99 926.87c-.22 0-.39-.17-.39-.39v-3.36c0-.11.04-.21.12-.28.07-.07.18-.1.28-.11l2.7.07V820.35c0-.22.17-.39.39-.39s.39.17.39.39V923.2c0 .11-.04.21-.12.28-.07.07-.17.12-.28.11l-2.7-.07v2.96c0 .21-.18.39-.39.39z"/><path d="M379.11 938.51c-.22 0-.39-.17-.39-.39v-2.94l1.59-8.76c.03-.19.2-.32.38-.32h5.52c.22 0 .39.17.39.39s-.17.39-.39.39h-5.19l-1.52 8.37.01 2.87c-.01.21-.19.39-.4.39zM376.62 958.92c-.22 0-.39-.17-.39-.39v-20.42c0-.22.17-.39.39-.39h1.4c.22 0 .39.17.39.39s-.17.39-.39.39h-1.01v20.03c0 .22-.17.39-.39.39z"/><path d="M382.29 938.51h-4.26c-.22 0-.39-.17-.39-.39s.17-.39.39-.39h4.26c.22 0 .39.17.39.39 0 .21-.18.39-.39.39zM506.5 958.54c-.22 0-.39-.17-.39-.39v-104.9h-33.1v104.9c0 .22-.17.39-.39.39s-.39-.17-.39-.39V852.87c0-.22.17-.39.39-.39h33.88c.22 0 .39.17.39.39v105.29c0 .21-.18.38-.39.38z"/><path d="M439.33 958.54c-.22 0-.39-.17-.39-.39V852.87c0-.22.17-.39.39-.39h33.88c.22 0 .39.17.39.39s-.17.39-.39.39h-33.49v104.9c0 .21-.17.38-.39.38z"/><path d="M405.76 938.51c-.22 0-.39-.17-.39-.39v-85.25c0-.22.17-.39.39-.39h36.37c.22 0 .39.17.39.39s-.17.39-.39.39h-35.98v84.86c0 .21-.18.39-.39.39z"/><path d="M406.34 853.26h-4.48c-.22 0-.39-.17-.39-.39s.17-.39.39-.39h4.48c.22 0 .39.17.39.39s-.17.39-.39.39zM372.47 958.54c-.22 0-.39-.17-.39-.39V852.87c0-.22.17-.39.39-.39h10.52c.22 0 .39.17.39.39s-.17.39-.39.39h-10.13v104.9c0 .21-.18.38-.39.38zM401.86 923.58h-18.77c-.22 0-.39-.17-.39-.39s.17-.39.39-.39h18.77c.22 0 .39.17.39.39s-.18.39-.39.39zM515.78 853.26h-9.28c-.22 0-.39-.17-.39-.39s.17-.39.39-.39h9.28c.22 0 .39.17.39.39s-.17.39-.39.39z"/><path d="M372.47 853.26h-31.63c-.22 0-.39-.17-.39-.39s.17-.39.39-.39h31.63c.22 0 .39.17.39.39s-.18.39-.39.39zM570.84 853.26h-35.86c-.22 0-.39-.17-.39-.39s.17-.39.39-.39h35.86c.22 0 .39.17.39.39s-.18.39-.39.39z"/><path d="M565.76 853.26c-.22 0-.39-.17-.39-.39v-8.06c0-.22.17-.39.39-.39h5.3c.22 0 .39.17.39.39s-.17.39-.39.39h-4.91v7.67c0 .21-.18.39-.39.39z"/><path d="M565.76 845.2h-30.77c-.22 0-.39-.17-.39-.39s.17-.39.39-.39h30.77c.22 0 .39.17.39.39s-.18.39-.39.39zM516.11 846.32H401.86c-.22 0-.39-.17-.39-.39s.17-.39.39-.39h114.25c.22 0 .39.17.39.39s-.17.39-.39.39zM382.99 846.32h-42.15c-.22 0-.39-.17-.39-.39s.17-.39.39-.39h42.15c.22 0 .39.17.39.39s-.18.39-.39.39zM418.64 356.5h-11.57c-.22 0-.39-.17-.39-.39v-20.83c0-.22.17-.39.39-.39h11.57c.22 0 .39.17.39.39v4.67c0 .22-.17.39-.39.39h-6.08v2.46h5.89c.22 0 .39.17.39.39v4.67c0 .22-.17.39-.39.39h-5.89v2.79h6.08c.22 0 .39.17.39.39v4.67c0 .23-.18.4-.39.4zm-11.18-.78h10.79v-3.89h-6.08c-.22 0-.39-.17-.39-.39v-3.57c0-.22.17-.39.39-.39h5.89v-3.89h-5.89c-.22 0-.39-.17-.39-.39v-3.24c0-.22.17-.39.39-.39h6.08v-3.89h-10.79zM444.65 356.5h-4.9a.395.395 0 0 1-.39-.4l.14-12.94-3.71 13.06c-.05.17-.2.28-.37.28h-3.52c-.17 0-.33-.12-.38-.28l-3.71-13.05.14 12.94c0 .1-.04.2-.11.28-.07.07-.17.12-.28.12h-4.9c-.22 0-.39-.17-.39-.39v-20.83c0-.22.17-.39.39-.39h6.84c.17 0 .32.11.37.28l3.79 12.56 3.74-12.56c.05-.17.2-.28.37-.28h6.87c.22 0 .39.17.39.39v20.83c.01.21-.17.38-.38.38zm-4.5-.78h4.11v-20.05h-6.19l-4 13.43c-.05.17-.2.28-.37.28s-.38-.11-.43-.28l-4.05-13.43h-6.16v20.05h4.11l-.16-15.2c0-.1.04-.2.11-.28l.06-.06c.1-.1.24-.14.37-.1a.4.4 0 0 1 .28.27l4.37 15.37h2.93l4.37-15.37c.04-.13.14-.24.28-.27.13-.03.28 0 .37.1l.06.06c.07.07.11.17.11.28zM455.08 356.5h-5.09c-.22 0-.39-.17-.39-.39v-20.83c0-.22.17-.39.39-.39h6.81c3.93 0 5.46.62 6.67 1.61 1.65 1.36 2.59 3.48 2.59 5.82 0 2.26-.94 4.57-2.33 5.76-1.46 1.23-2.9 1.89-6.33 1.89h-1.92v6.14c-.01.22-.19.39-.4.39zm-4.71-.78h4.31v-6.14c0-.22.17-.39.39-.39h2.31c3.2 0 4.51-.6 5.83-1.71 1.21-1.03 2.06-3.15 2.06-5.16 0-2.1-.84-4-2.31-5.22-1.07-.88-2.48-1.43-6.17-1.43h-6.42zm6.88-10.42h-2.17c-.22 0-.39-.17-.39-.39v-4.95c0-.22.17-.39.39-.39h1.97c1.07 0 3.91 0 3.91 2.84 0 2.89-2.7 2.89-3.71 2.89zm-1.78-.78h1.78c1.52 0 2.93-.26 2.93-2.12 0-1.9-1.61-2.06-3.13-2.06h-1.58zM473.94 356.5h-5.32c-.22 0-.39-.17-.39-.39v-20.83c0-.22.17-.39.39-.39h5.32c.22 0 .39.17.39.39v20.83c0 .22-.18.39-.39.39zm-4.93-.78h4.54v-20.05h-4.54zM494.49 356.5h-6.08c-.13 0-.24-.06-.32-.16l-4.16-5.82v5.59c0 .22-.17.39-.39.39h-5.09c-.22 0-.39-.17-.39-.39v-20.83c0-.22.17-.39.39-.39h6.59c3.5 0 5.11.38 6.66 1.57 1.7 1.34 2.71 3.58 2.71 6 0 2.83-1.51 5.94-4.87 6.81l5.26 6.6c.09.12.11.28.05.41a.41.41 0 0 1-.36.22zm-5.88-.78h5.07l-5.15-6.46c-.09-.11-.11-.25-.06-.38s.16-.22.3-.24c3.58-.59 4.85-3.69 4.85-6.17 0-2.18-.9-4.19-2.41-5.38-1.21-.93-2.5-1.41-6.18-1.41h-6.2v20.05h4.31v-6.34c0-.22.17-.39.39-.39.13 0 .3.06.37.16zm-3.19-9.58h-1.89c-.22 0-.39-.17-.39-.39v-5.8c0-.22.17-.39.39-.39h1.94c2.39 0 3.82 1.2 3.82 3.21.01 1.01-.37 3.37-3.87 3.37zm-1.49-.78h1.5c2.56 0 3.1-1.41 3.1-2.59 0-2.11-1.91-2.43-3.04-2.43h-1.55v5.02zM509.12 356.5h-11.57c-.22 0-.39-.17-.39-.39v-20.83c0-.22.17-.39.39-.39h11.57c.22 0 .39.17.39.39v4.67c0 .22-.17.39-.39.39h-6.08v2.46h5.89c.22 0 .39.17.39.39v4.67c0 .22-.17.39-.39.39h-5.89v2.79h6.08c.22 0 .39.17.39.39v4.67c0 .23-.17.4-.39.4zm-11.18-.78h10.79v-3.89h-6.08c-.22 0-.39-.17-.39-.39v-3.57c0-.22.17-.39.39-.39h5.89v-3.89h-5.89c-.22 0-.39-.17-.39-.39v-3.24c0-.22.17-.39.39-.39h6.08v-3.89h-10.79zM408.28 390.06h-5.1c-.22 0-.39-.17-.39-.39v-20.83c0-.22.17-.39.39-.39H410c3.93 0 5.46.62 6.67 1.61 1.65 1.36 2.59 3.48 2.59 5.82 0 2.26-.94 4.57-2.33 5.76-1.46 1.23-2.9 1.89-6.33 1.89h-1.92v6.14a.4.4 0 0 1-.4.39zm-4.7-.78h4.31v-6.14c0-.22.17-.39.39-.39h2.31c3.2 0 4.51-.6 5.83-1.71 1.21-1.03 2.06-3.15 2.06-5.16 0-2.1-.84-4-2.31-5.22-1.07-.88-2.48-1.43-6.17-1.43h-6.42zm6.87-10.42h-2.17c-.22 0-.39-.17-.39-.39v-4.95c0-.22.17-.39.39-.39h1.97c1.07 0 3.91 0 3.91 2.84 0 2.89-2.7 2.89-3.71 2.89zm-1.78-.78h1.78c1.52 0 2.93-.26 2.93-2.11 0-1.9-1.61-2.06-3.13-2.06h-1.58zM438.2 390.06h-5.77c-.17 0-.32-.11-.37-.27l-.92-2.75h-6.68l-1 2.76c-.06.15-.2.26-.37.26h-5.71c-.13 0-.25-.06-.32-.17s-.09-.24-.04-.36l8.36-20.83c.06-.15.2-.24.36-.24h4.19c.16 0 .3.1.36.25l8.28 20.83c.05.12.03.26-.04.36-.08.1-.2.16-.33.16zm-5.49-.78h4.92l-7.97-20.05H426l-8.05 20.05h4.87l1-2.76c.06-.15.2-.26.37-.26h7.23c.17 0 .32.11.37.27zm-2.7-6.45h-4.36a.397.397 0 0 1-.37-.51l2.14-7.12c.05-.16.2-.28.37-.28s.41.11.46.28l2.14 7.12c.04.12.01.25-.06.34-.08.11-.2.17-.32.17zm-3.84-.78h3.31l-1.66-5.52zM452.7 390.06h-11.48c-.22 0-.39-.17-.39-.39v-20.83c0-.22.17-.39.39-.39h5.32c.22 0 .39.17.39.39v15.77h5.77c.22 0 .39.17.39.39v4.67c0 .22-.18.39-.39.39zm-11.1-.78h10.7v-3.89h-5.77c-.22 0-.39-.17-.39-.39v-15.77h-4.54zM475.54 390.06h-5.77c-.17 0-.32-.11-.37-.27l-.92-2.75h-6.68l-1 2.76c-.06.15-.2.26-.37.26h-5.71c-.13 0-.25-.06-.32-.17s-.09-.24-.04-.36l8.36-20.83c.06-.15.2-.24.36-.24h4.19c.16 0 .3.1.36.25l8.28 20.83c.05.12.03.26-.04.36-.08.1-.2.16-.33.16zm-5.49-.78h4.92L467 369.23h-3.66l-8.05 20.05h4.86l1-2.76c.06-.15.2-.26.37-.26h7.24c.17 0 .32.11.37.27zm-2.7-6.45h-4.36a.397.397 0 0 1-.37-.51l2.14-7.12c.05-.16.2-.28.37-.28s.41.11.46.28l2.14 7.12c.04.12.01.25-.06.34-.08.11-.2.17-.32.17zm-3.84-.78h3.31l-1.66-5.52zM487.42 390.46c-7.12 0-11.37-5.71-11.37-11.23 0-5.49 4.23-11.17 11.31-11.17 6.54 0 10.35 5.05 10.97 8.63.02.11-.01.23-.09.32-.07.09-.18.14-.3.14h-5.57a.38.38 0 0 1-.36-.25c-.62-1.63-2.18-3.38-4.67-3.38-3.37 0-5.18 2.93-5.18 5.69 0 2.81 1.83 5.8 5.21 5.8 2.59 0 3.96-1.79 4.66-3.29.06-.14.2-.23.35-.23h5.57c.12 0 .23.06.31.15.07.09.1.22.07.33-1.25 5.08-5.63 8.49-10.91 8.49zm-.06-21.62c-6.59 0-10.53 5.28-10.53 10.39 0 5.14 3.96 10.45 10.59 10.45 4.74 0 8.71-2.96 10.02-7.41h-4.82c-1.13 2.27-2.99 3.52-5.26 3.52-3.75 0-5.99-3.35-5.99-6.58 0-3.14 2.09-6.47 5.96-6.47 2.76 0 4.52 1.83 5.3 3.63h4.83c-.79-3.28-4.28-7.53-10.1-7.53zM513.01 390.06h-11.57c-.22 0-.39-.17-.39-.39v-20.83c0-.22.17-.39.39-.39h11.57c.22 0 .39.17.39.39v4.67c0 .22-.17.39-.39.39h-6.08v2.46h5.89c.22 0 .39.17.39.39v4.67c0 .22-.17.39-.39.39h-5.89v2.79h6.08c.22 0 .39.17.39.39v4.67c0 .23-.18.4-.39.4zm-11.18-.78h10.79v-3.89h-6.08c-.22 0-.39-.17-.39-.39v-3.57c0-.22.17-.39.39-.39h5.89v-3.89h-5.89c-.22 0-.39-.17-.39-.39v-3.24c0-.22.17-.39.39-.39h6.08v-3.89h-10.79zM706.26 817.22H307.14c-.22 0-.39-.17-.39-.39s.17-.39.39-.39h399.12c.22 0 .39.17.39.39s-.17.39-.39.39zM412.99 825.29h-8.13c-.22 0-.39-.17-.39-.39v-4.48c0-.22.17-.39.39-.39h8.13c.22 0 .39.17.39.39v4.48c0 .21-.18.39-.39.39zm-7.74-.78h7.35v-3.7h-7.35z"/><path d="M410.82 829.77h-3.8c-.22 0-.39-.17-.39-.39v-4.48c0-.22.17-.39.39-.39h3.8c.22 0 .39.17.39.39v4.48c0 .21-.17.39-.39.39zm-3.41-.78h3.02v-3.7h-3.02zM502.85 825.29h-8.13c-.22 0-.39-.17-.39-.39v-4.48c0-.22.17-.39.39-.39h8.13c.22 0 .39.17.39.39v4.48c0 .21-.18.39-.39.39zm-7.74-.78h7.35v-3.7h-7.35z"/><path d="M500.68 829.77h-3.8c-.22 0-.39-.17-.39-.39v-4.48c0-.22.17-.39.39-.39h3.8c.22 0 .39.17.39.39v4.48c0 .21-.17.39-.39.39zm-3.41-.78h3.02v-3.7h-3.02zM617.61 825.29h-8.13c-.22 0-.39-.17-.39-.39v-4.48c0-.22.17-.39.39-.39h8.13c.22 0 .39.17.39.39v4.48c0 .21-.18.39-.39.39zm-7.75-.78h7.35v-3.7h-7.35z"/><path d="M615.44 829.77h-3.8c-.22 0-.39-.17-.39-.39v-4.48c0-.22.17-.39.39-.39h3.8c.22 0 .39.17.39.39v4.48c0 .21-.17.39-.39.39zm-3.41-.78h3.02v-3.7h-3.02zM315.55 825.29h-8.13c-.22 0-.39-.17-.39-.39v-4.48c0-.22.17-.39.39-.39h8.13c.22 0 .39.17.39.39v4.48c0 .21-.17.39-.39.39zm-7.74-.78h7.35v-3.7h-7.35z"/><path d="M313.39 829.77h-3.8c-.22 0-.39-.17-.39-.39v-4.48c0-.22.17-.39.39-.39h3.8c.22 0 .39.17.39.39v4.48c0 .21-.18.39-.39.39zm-3.41-.78H313v-3.7h-3.02zM702.05 825.29h-8.13c-.22 0-.39-.17-.39-.39v-4.48c0-.22.17-.39.39-.39h8.13c.22 0 .39.17.39.39v4.48c0 .21-.17.39-.39.39zm-7.74-.78h7.35v-3.7h-7.35z"/><path d="M699.88 829.77h-3.8c-.22 0-.39-.17-.39-.39v-4.48c0-.22.17-.39.39-.39h3.8c.22 0 .39.17.39.39v4.48c0 .21-.17.39-.39.39zm-3.4-.78h3.02v-3.7h-3.02zM396.77 786.78c-.04 0-.07 0-.11-.02l-90.06-26.24a.384.384 0 0 1-.28-.37v-5.41c0-.22.17-.39.39-.39s.39.17.39.39v5.12l89.78 26.16c.21.06.33.28.27.48-.05.17-.21.28-.38.28z"/><path d="M306.71 786.78c-.05 0-.11-.01-.16-.04a.386.386 0 0 1-.23-.36v-26.24c0-.22.17-.39.39-.39s.39.17.39.39v25.38l21.38-18.63-4.97-1.45-11.75 11.5c-.11.11-.28.14-.42.08s-.24-.2-.24-.36v-15.13c0-.22.17-.39.39-.39s.39.17.39.39v14.2l11.25-11.01c.1-.1.25-.14.38-.1l5.88 1.71c.14.04.24.15.27.29s-.02.28-.12.38l-22.57 19.67c-.07.08-.17.11-.26.11zM311.49 786.78c-.11 0-.22-.05-.3-.14a.386.386 0 0 1 .05-.55l21.84-18.49c.16-.14.41-.12.55.05.14.16.12.41-.05.55l-21.84 18.49c-.07.06-.16.09-.25.09zM616.6 817.22c-.22 0-.39-.17-.39-.39V789.7c0-.22.17-.39.39-.39s.39.17.39.39v27.14c0 .21-.17.38-.39.38zM496.22 817.22c-.22 0-.39-.17-.39-.39V789.7c0-.22.17-.39.39-.39s.39.17.39.39v27.14c0 .21-.18.38-.39.38zM505.18 772.12h-13.15c-.22 0-.39-.17-.39-.39v-4.49c0-.22.17-.39.39-.39h13.15c.22 0 .39.17.39.39v4.49c0 .22-.17.39-.39.39zm-12.75-.78h12.37v-3.71h-12.37z"/><path d="M500.53 767.64c-.22 0-.39-.17-.39-.39v-4.11c0-.87-.71-1.57-1.57-1.57s-1.57.71-1.57 1.57v4.11c0 .22-.17.39-.39.39s-.39-.17-.39-.39v-4.11c0-1.3 1.06-2.35 2.35-2.35 1.3 0 2.35 1.06 2.35 2.35v4.11c0 .21-.17.39-.39.39zM621.02 772.12h-13.15c-.22 0-.39-.17-.39-.39v-4.49c0-.22.17-.39.39-.39h13.15c.22 0 .39.17.39.39v4.49c0 .22-.17.39-.39.39zm-12.75-.78h12.37v-3.71h-12.37z"/><path d="M616.45 775.21c-.22 0-.39-.17-.39-.39v-3.08c0-.22.17-.39.39-.39s.39.17.39.39v3.08c0 .21-.17.39-.39.39zM616.45 767.64c-.22 0-.39-.17-.39-.39v-4.11c0-.87-.7-1.57-1.57-1.57s-1.57.71-1.57 1.57v4.11c0 .22-.17.39-.39.39s-.39-.17-.39-.39v-4.11c0-1.3 1.06-2.35 2.35-2.35 1.3 0 2.35 1.06 2.35 2.35v4.11c0 .21-.17.39-.39.39zM500.53 786.78c-.22 0-.39-.17-.39-.39v-7.35c0-.22.17-.39.39-.39s.39.17.39.39v7.35c0 .22-.17.39-.39.39zM611.91 786.78c-.22 0-.39-.17-.39-.39v-7.35c0-.22.17-.39.39-.39s.39.17.39.39v7.35c0 .22-.17.39-.39.39zM496.61 775.12c-.22 0-.39-.17-.39-.39v-3c0-.22.17-.39.39-.39s.39.17.39.39v3c0 .22-.18.39-.39.39zM401.82 634.76h-13.11c-.22 0-.39-.17-.39-.39s.17-.39.39-.39h13.11c.22 0 .39.17.39.39s-.18.39-.39.39zM506.84 716.83h-95.67c-.22 0-.39-.17-.39-.39s.17-.39.39-.39h95.67c.22 0 .39.17.39.39s-.17.39-.39.39zM539.17 652.91h-22.36c-.22 0-.39-.17-.39-.39s.17-.39.39-.39h22.36c.22 0 .39.17.39.39s-.17.39-.39.39zM406.01 652.91h-22.36c-.22 0-.39-.17-.39-.39s.17-.39.39-.39h22.36c.22 0 .39.17.39.39s-.17.39-.39.39zM566.61 534.83h-19.7c-.22 0-.39-.17-.39-.39v-73.27c0-.22.17-.39.39-.39h19.35c.16 0 .3.1.36.24l2.85 7.06c.02.05.03.1.03.15v2.15c0 .21-.17.39-.39.39l-2.11.03v63.63c0 .22-.17.4-.39.4zm-19.3-.78h18.92v-63.63c0-.21.17-.39.39-.39l2.11-.02v-1.69l-2.72-6.75h-18.69v72.48zM370.05 534.83h-19.7c-.22 0-.39-.17-.39-.39v-73.27c0-.22.17-.39.39-.39h19.35c.16 0 .3.1.36.24l2.85 7.06c.02.05.03.1.03.15v2.15c0 .21-.17.39-.39.39l-2.11.02v63.63c0 .23-.18.41-.39.41zm-19.31-.78h18.92v-63.63c0-.21.17-.39.39-.39l2.11-.02v-1.69l-2.72-6.75h-18.69v72.48zM611.91 448.19h-38.43c-.22 0-.39-.17-.39-.39s.17-.39.39-.39h38.43c.22 0 .39.17.39.39 0 .21-.17.39-.39.39zM612.13 681.58h-38.65c-.22 0-.39-.17-.39-.39s.17-.39.39-.39h38.65c.22 0 .39.17.39.39s-.18.39-.39.39zM338.2 681.58h-38.65c-.22 0-.39-.17-.39-.39s.17-.39.39-.39h38.65c.22 0 .39.17.39.39s-.17.39-.39.39zM338.2 493.12h-38.65c-.22 0-.39-.17-.39-.39s.17-.39.39-.39h38.65c.22 0 .39.17.39.39s-.17.39-.39.39zM338.2 448.19h-38.65c-.22 0-.39-.17-.39-.39s.17-.39.39-.39h38.65c.22 0 .39.17.39.39 0 .21-.17.39-.39.39zM516.21 535.04c-.19 0-.36-.14-.39-.34-3.74-26.32-22.71-47.17-47.2-51.88-.21-.04-.35-.25-.31-.46s.24-.35.46-.31c24.82 4.77 44.05 25.88 47.83 52.53.03.21-.12.41-.33.44-.02.02-.04.02-.06.02zM401.82 527.61c-.03 0-.07 0-.1-.01a.394.394 0 0 1-.28-.48c6.12-23.38 24.52-41.1 46.9-45.16.21-.04.42.1.45.31.04.21-.1.42-.31.45-22.08 4-40.24 21.5-46.28 44.59-.05.18-.21.3-.38.3zM611.69 394.53h-37.78c-.22 0-.39-.17-.39-.39s.17-.39.39-.39h37.78c.22 0 .39.17.39.39s-.17.39-.39.39zM338.2 394.53h-38.65c-.22 0-.39-.17-.39-.39s.17-.39.39-.39h38.65c.22 0 .39.17.39.39s-.17.39-.39.39zM453.01 490.99h-.06a.397.397 0 0 1-.33-.45l3.11-19.96a.39.39 0 0 1 .39-.33h16.36c.22 0 .39.17.39.39s-.17.39-.39.39h-16.03l-3.06 19.63c-.03.19-.19.33-.38.33z"/><path d="M456.12 471.02c-.22 0-.39-.17-.39-.39v-18.07c0-.22.17-.39.39-.39s.39.17.39.39v18.07c0 .22-.17.39-.39.39zM612.53 939.74h-41.47c-.22 0-.39-.17-.39-.39s.17-.39.39-.39h41.47c.22 0 .39.17.39.39s-.18.39-.39.39zM340.84 939.74h-41.29c-.22 0-.39-.17-.39-.39s.17-.39.39-.39h41.29c.22 0 .39.17.39.39s-.17.39-.39.39zM490.56 548.21h-82.65c-.22 0-.39-.17-.39-.39s.17-.39.39-.39h82.65c.22 0 .39.17.39.39s-.18.39-.39.39zM488.8 943.24h-9.82c-.22 0-.39-.17-.39-.39v-17.92c0-.22.17-.39.39-.39h9.82c.22 0 .39.17.39.39v17.92c0 .22-.18.39-.39.39zm-9.44-.78h9.04v-17.14h-9.04zM502.02 943.24h-9.82c-.22 0-.39-.17-.39-.39v-17.92c0-.22.17-.39.39-.39h9.82c.22 0 .39.17.39.39v17.92c0 .22-.18.39-.39.39zm-9.44-.78h9.04v-17.14h-9.04zM454.03 943.24h-9.82c-.22 0-.39-.17-.39-.39v-17.92c0-.22.17-.39.39-.39h9.82c.22 0 .39.17.39.39v17.92c0 .22-.17.39-.39.39zm-9.43-.78h9.04v-17.14h-9.04zM467.25 943.24h-9.82c-.22 0-.39-.17-.39-.39v-17.92c0-.22.17-.39.39-.39h9.82c.22 0 .39.17.39.39v17.92c0 .22-.17.39-.39.39zm-9.43-.78h9.04v-17.14h-9.04zM420.65 943.24h-9.82c-.22 0-.39-.17-.39-.39v-17.92c0-.22.17-.39.39-.39h9.82c.22 0 .39.17.39.39v17.92c0 .22-.18.39-.39.39zm-9.44-.78h9.04v-17.14h-9.04zM433.86 943.24h-9.82c-.22 0-.39-.17-.39-.39v-17.92c0-.22.17-.39.39-.39h9.82c.22 0 .39.17.39.39v17.92c0 .22-.17.39-.39.39zm-9.43-.78h9.04v-17.14h-9.04zM379.11 938.51h-1.78c-.22 0-.39-.17-.39-.39v-13.18c0-.22.17-.39.39-.39h2.66c.22 0 .39.17.39.39v1.16h.31c.12 0 .23.05.3.14s.11.21.08.32l-1.58 8.69.01 2.87c0 .21-.18.39-.39.39zm-1.4-.78h1v-2.55l1.5-8.3h-.23c-.22 0-.39-.17-.39-.39v-1.16h-1.88zM506.5 951.67h-99.12c-.22 0-.39-.17-.39-.39s.17-.39.39-.39h99.12c.22 0 .39.17.39.39s-.18.39-.39.39zM513.89 720.06H408.18c-.22 0-.39-.17-.39-.39v-3.23c0-.22.17-.39.39-.39s.39.17.39.39v2.84H513.5v-2.45h-4.37c-.22 0-.39-.17-.39-.39s.17-.39.39-.39h4.76c.22 0 .39.17.39.39v3.23c0 .21-.17.39-.39.39z"/><path d="M512.23 716.83c-.22 0-.39-.17-.39-.39v-24.16H408.18c-.22 0-.39-.17-.39-.39s.17-.39.39-.39h104.05c.22 0 .39.17.39.39v24.55c0 .22-.17.39-.39.39zM492.98 608.02h-91.06c-.22 0-.39-.17-.39-.39s.17-.39.39-.39h91.06c.22 0 .39.17.39.39s-.17.39-.39.39z"/><path d="M460.65 608.02c-.22 0-.39-.17-.39-.39v-16.88c0-.22.17-.39.39-.39s.39.17.39.39v16.88c0 .22-.17.39-.39.39zM428.16 608.02c-.22 0-.39-.17-.39-.39v-16.88c0-.22.17-.39.39-.39s.39.17.39.39v16.88c0 .22-.18.39-.39.39z"/><path d="M494.73 591.15h-92.81c-.22 0-.39-.17-.39-.39s.17-.39.39-.39h92.42v-3.53h-1.36c-.22 0-.39-.17-.39-.39v-33.66c0-.22.17-.39.39-.39s.39.17.39.39v33.27h1.36c.22 0 .39.17.39.39v4.31c0 .21-.17.39-.39.39z"/><path d="M492.98 586.84h-91.06c-.22 0-.39-.17-.39-.39s.17-.39.39-.39h91.06c.22 0 .39.17.39.39s-.17.39-.39.39z"/><path d="M488.63 586.84c-.22 0-.39-.17-.39-.39v-30.49h-8.39v30.49c0 .22-.17.39-.39.39s-.39-.17-.39-.39v-30.88c0-.22.17-.39.39-.39h9.17c.22 0 .39.17.39.39v30.88c0 .21-.17.39-.39.39zM474.64 586.84c-.22 0-.39-.17-.39-.39v-30.49h-8.39v30.49c0 .22-.17.39-.39.39s-.39-.17-.39-.39v-30.88c0-.22.17-.39.39-.39h9.17c.22 0 .39.17.39.39v30.88c0 .21-.17.39-.39.39zM456.03 586.84c-.22 0-.39-.17-.39-.39v-30.49h-8.39v30.49c0 .22-.17.39-.39.39s-.39-.17-.39-.39v-30.88c0-.22.17-.39.39-.39h9.17c.22 0 .39.17.39.39v30.88c0 .21-.17.39-.39.39zM442.62 586.84c-.22 0-.39-.17-.39-.39v-30.49h-8.39v30.49c0 .22-.17.39-.39.39s-.39-.17-.39-.39v-30.88c0-.22.17-.39.39-.39h9.17c.22 0 .39.17.39.39v30.88c0 .21-.18.39-.39.39zM423.93 586.84c-.22 0-.39-.17-.39-.39v-30.49h-8.39v30.49c0 .22-.17.39-.39.39s-.39-.17-.39-.39v-30.88c0-.22.17-.39.39-.39h9.17c.22 0 .39.17.39.39v30.88c0 .21-.18.39-.39.39zM410.78 586.84c-.22 0-.39-.17-.39-.39v-30.49h-8.57c-.22 0-.39-.17-.39-.39s.17-.39.39-.39h8.96c.22 0 .39.17.39.39v30.88c0 .21-.18.39-.39.39zM346.78 579.29h-2.07c-.22 0-.39-.17-.39-.39v-18.51c0-.22.17-.39.39-.39h2.07c.22 0 .39.17.39.39s-.17.39-.39.39h-1.68v17.73h1.68c.22 0 .39.17.39.39 0 .21-.18.39-.39.39zM569.27 579.29h-29.15c-.22 0-.39-.17-.39-.39v-18.51c0-.22.17-.39.39-.39h29.15c.22 0 .39.17.39.39v18.51c0 .21-.17.39-.39.39zm-28.76-.78h28.37v-17.73h-28.37z"/><path d="M567.2 577.26h-25c-.22 0-.39-.17-.39-.39v-14.45c0-.22.17-.39.39-.39h25c.22 0 .39.17.39.39v14.45c0 .21-.18.39-.39.39zm-24.61-.78h24.22v-13.67h-24.22zM540.12 579.29h-2.07c-.22 0-.39-.17-.39-.39v-18.51c0-.22.17-.39.39-.39h2.07c.22 0 .39.17.39.39s-.17.39-.39.39h-1.68v17.73h1.68c.22 0 .39.17.39.39 0 .21-.17.39-.39.39zM570.84 448.19h-230c-.22 0-.39-.17-.39-.39s.17-.39.39-.39h230c.22 0 .39.17.39.39 0 .21-.18.39-.39.39zM451.17 444.26h-2.5c-2.04 0-3.7-1.69-3.7-3.76 0-.22.17-.39.39-.39s.39.17.39.39c0 1.64 1.31 2.98 2.92 2.98h2.5c.22 0 .39.17.39.39s-.18.39-.39.39z"/><path d="M445.36 440.89c-.22 0-.39-.17-.39-.39v-10.24c0-.22.17-.39.39-.39s.39.17.39.39v10.24c.01.22-.17.39-.39.39zM455.74 74.78c-.22 0-.39-.17-.39-.39V42.01c0-.22.17-.39.39-.39s.39.17.39.39v32.38c0 .21-.18.39-.39.39z"/><path d="M459.69 74.78h-3.95c-.22 0-.39-.17-.39-.39s.17-.39.39-.39h3.95c.22 0 .39.17.39.39s-.18.39-.39.39zM489.4 777.53c-.03 0-.07 0-.1-.01l-74.06-19.28c-.21-.05-.33-.27-.28-.48s.27-.33.48-.28l74.06 19.28c.21.05.33.27.28.48-.05.17-.21.29-.38.29z"/></g></svg>